<svg width="175" height="101" viewBox="0 0 175 101" fill="none" xmlns="http://www.w3.org/2000/svg">
<circle cx="87.566" cy="34.3307" r="34.2252" fill="#282828"/>
<path d="M87.6168 10.9121C87.7644 10.9123 88.2393 11.1904 88.6813 11.5342C89.107 11.8781 89.729 12.4681 90.0729 12.8447C90.4004 13.2214 90.9248 13.9253 91.2359 14.3838C91.5471 14.8587 91.9567 15.6611 92.1695 16.1523C92.4806 16.9055 92.5455 17.348 92.5455 18.8545C92.5619 20.41 92.4968 20.7706 92.1529 21.5566C91.94 22.0479 91.5634 22.785 91.3014 23.1943C91.0561 23.6032 90.8429 24.0281 90.8424 24.127C90.8424 24.2416 91.3996 24.9458 92.0709 25.6826C92.7423 26.4359 93.6919 27.5991 94.1832 28.2705C94.658 28.9418 95.3293 30.0222 95.6568 30.6445C96.0007 31.2667 96.4759 32.413 96.7379 33.1826C96.9999 33.9523 97.2783 35.0501 97.3766 35.6396C97.4748 36.2291 97.5562 37.1949 97.5563 37.8008C97.5563 38.4231 97.4588 39.4551 97.3277 40.0938C97.1967 40.7487 96.9344 41.7311 96.7379 42.2715C96.5415 42.8116 96.345 43.3844 96.3121 43.5322C96.2466 43.7942 96.4267 43.8271 98.2604 43.8271C99.7178 43.8271 100.619 43.9087 101.569 44.1543C102.289 44.3344 103.469 44.7774 104.189 45.1377C104.91 45.498 106.105 46.267 106.858 46.8564C107.595 47.4459 108.643 48.478 109.183 49.1494C109.789 49.9191 110.166 50.5251 110.166 50.7871C110.165 51.0165 109.871 51.5567 109.478 52.0479C109.085 52.5227 108.332 53.3414 107.792 53.8818C107.251 54.4058 106.301 55.1756 105.663 55.585C105.04 56.0107 104.041 56.5346 103.452 56.7803C102.862 57.0095 101.847 57.337 101.209 57.4844C100.554 57.6317 99.3092 57.747 98.4576 57.7471C97.4915 57.7471 96.3285 57.6155 95.3951 57.4189C94.56 57.2225 93.1356 56.7473 92.235 56.3379C91.3344 55.9449 89.9915 55.2249 89.2545 54.75C88.6468 54.3718 88.1512 54.0147 88.0143 53.874C87.9078 53.8373 87.821 53.8164 87.7633 53.8164C87.5664 53.8167 86.8294 54.1933 86.1256 54.668C85.4379 55.1428 84.2757 55.7975 83.5553 56.125C82.8348 56.4525 81.8356 56.8458 81.3443 56.9932C80.8531 57.1405 79.8868 57.37 79.2154 57.501C78.5441 57.632 77.84 57.7305 77.6598 57.7305C77.5969 57.7248 77.5789 57.7097 77.5983 57.6875C76.9284 57.7371 76.1581 57.7137 75.5309 57.5996C74.9086 57.485 73.8775 57.2387 73.2389 57.0586C72.6166 56.8785 71.6175 56.4857 71.0279 56.1582C70.4385 55.8471 69.5544 55.5035 69.0631 55.127C68.9971 55.0764 68.9221 55.0114 68.8375 54.9404C68.7594 54.8872 68.64 54.8006 68.4899 54.6846C68.1296 54.4062 67.4747 53.7835 67.0162 53.3086C66.5359 52.7922 66.4424 52.6816 66.8209 53.0205C66.5324 52.7054 66.2928 52.4234 66.1149 52.1787L65.902 51.8789C65.681 51.5537 65.4608 51.164 65.4606 50.8203C65.4606 50.542 65.9022 49.9522 66.6061 49.3955C67.2938 48.8387 68.3099 48.2323 68.5719 48.085C68.8502 47.954 69.2756 47.7574 69.7174 47.5938H69.7164C69.9244 47.5048 70.1524 47.411 70.3893 47.3154C70.8318 47.1369 71.2777 46.9652 71.649 46.8311C72.1801 46.595 72.7769 46.3431 72.9928 46.2998C73.4022 46.2179 73.9593 46.1521 74.2213 46.1357C74.4993 46.1194 74.7608 46.169 74.8268 46.2344C74.9086 46.2999 74.5652 46.6108 74.0904 46.9219C73.6319 47.2166 72.7971 47.8888 72.2731 48.3965C72.0189 48.6362 71.7826 48.7929 71.6256 48.8672C71.367 49.1284 71.0862 49.4217 70.8287 49.7295C70.8057 49.7679 70.7859 49.8046 70.7662 49.8369C70.5534 50.2297 70.3728 50.6066 70.3727 50.7051C70.3727 50.8033 70.5696 51.0491 70.8317 51.2783C71.0774 51.5076 71.7162 51.9826 72.2565 52.3428C72.7969 52.6866 73.7139 53.1285 74.3033 53.3086C74.7172 53.4465 75.438 53.6064 76.1422 53.7305L77.4957 53.6367C78.7075 53.5548 79.4778 53.3908 80.444 53.0469C81.1643 52.7685 82.1626 52.2935 82.6539 51.9824C83.1452 51.6713 83.6862 51.2946 83.8336 51.1309C83.9973 50.9835 84.1285 50.8192 84.1285 50.7373C84.1273 50.6707 83.8655 50.3272 83.5387 49.9678C83.2274 49.6074 82.4248 48.6412 81.7535 47.8389C81.0985 47.0365 80.1976 45.7761 79.7555 45.0557C79.3297 44.3351 78.7568 43.1232 78.4947 42.3535C78.4291 42.1479 78.3605 41.9046 78.2926 41.6436C78.2697 41.613 78.2484 41.577 78.233 41.5342C78.0201 40.9608 77.6764 39.7164 77.6764 37.6865C77.66 35.0828 77.6601 35.0498 78.2496 33.3467C78.5771 32.3969 79.2327 30.9557 79.7076 30.1533C80.1661 29.351 81.0174 28.0906 81.5904 27.3701C82.1636 26.6496 82.9991 25.6834 83.4576 25.2412C83.9161 24.7991 84.2926 24.3236 84.2926 24.209C84.2922 24.1102 83.9971 23.5542 83.6207 22.9814C83.2605 22.4248 82.8346 21.5567 82.6871 21.0654C82.5234 20.5087 82.4254 19.6404 82.4254 18.7725C82.4254 17.7572 82.5237 17.1345 82.7858 16.4795C82.9823 15.9882 83.4244 15.137 83.7682 14.5967C84.1284 14.0563 84.7674 13.2378 85.2096 12.7793C85.6516 12.3373 86.3063 11.7314 86.6666 11.4365C87.0269 11.1581 87.4531 10.9285 87.6168 10.9121ZM94.4283 55.6504C94.6085 55.9943 94.7721 56.3875 94.7721 56.5186C94.772 56.6277 94.7091 56.6906 94.6031 56.7031C94.6917 56.7145 94.773 56.6376 94.7731 56.5186C94.7731 56.3876 94.6094 55.9943 94.4293 55.6504C94.4154 55.6267 94.4029 55.6034 94.3902 55.5811C94.4028 55.6032 94.4146 55.6269 94.4283 55.6504ZM93.6266 56.5186C93.6451 56.5215 93.6636 56.5253 93.6822 56.5283C93.639 56.5203 93.5964 56.5107 93.5543 56.5029C93.5804 56.508 93.604 56.5159 93.6266 56.5186ZM94.2838 55.3779C94.2956 55.4027 94.3081 55.4284 94.3219 55.4551C94.308 55.4284 94.2956 55.4027 94.2838 55.3779ZM94.2067 54.8125C94.1956 54.8438 94.1878 54.875 94.1822 54.9062L94.2076 54.8125C94.2187 54.7813 94.2323 54.7494 94.2486 54.7168L94.2067 54.8125ZM94.3268 54.5586L94.4068 54.3672C94.4174 54.3397 94.4253 54.311 94.4352 54.2832C94.4012 54.3783 94.3648 54.4742 94.3268 54.5586ZM94.4576 54.2227C94.4665 54.196 94.4751 54.1696 94.483 54.1436C94.4751 54.1696 94.4666 54.196 94.4576 54.2227ZM94.527 53.9805C94.5388 53.9301 94.5463 53.8813 94.5504 53.834C94.5464 53.8813 94.5388 53.9301 94.527 53.9805ZM94.5504 53.8242C94.5536 53.7809 94.5533 53.7391 94.5494 53.6982C94.5534 53.7391 94.5536 53.7809 94.5504 53.8242ZM94.5445 53.6602C94.5428 53.649 94.541 53.6379 94.5387 53.627C94.541 53.6379 94.5428 53.649 94.5445 53.6602ZM94.5328 53.6016C94.5297 53.5896 94.5279 53.5772 94.524 53.5654L94.5192 53.5537C94.5246 53.5694 94.5287 53.5855 94.5328 53.6016ZM98.9479 48.0527C98.3258 48.0036 97.4416 48.0205 96.983 48.0859C96.5409 48.1514 95.6888 48.364 95.0992 48.5605C94.5097 48.7571 93.4618 49.2808 92.774 49.7393C92.0707 50.1809 91.498 50.672 91.4967 50.8037C91.4967 50.9346 91.7422 51.2295 92.0367 51.4424C92.3151 51.6552 92.9703 52.0488 93.4615 52.3271C93.9528 52.6055 94.919 52.9988 95.5904 53.1953C96.4747 53.4737 97.2282 53.5713 98.2926 53.5713C99.3243 53.5713 100.11 53.4732 100.913 53.2275C101.551 53.031 102.616 52.5073 103.337 52.0488C104.024 51.5908 104.645 51.0835 104.712 50.9355C104.777 50.7227 104.647 50.5092 104.254 50.1816C103.942 49.9197 103.255 49.4781 102.714 49.167C102.174 48.8722 101.371 48.5119 100.913 48.3809C100.471 48.2499 99.5865 48.1019 98.9479 48.0527ZM94.4576 53.4268L94.4537 53.4199C94.4386 53.3967 94.4218 53.3739 94.4029 53.3516L94.4576 53.4268ZM94.2154 53.1689L94.2067 53.1611C94.1975 53.1533 94.1873 53.147 94.1783 53.1396C94.1903 53.1494 94.2033 53.1585 94.2154 53.1689ZM93.9391 52.998C93.9779 53.0048 94.0274 53.0316 94.0836 53.0693C94.0234 53.0284 93.9732 53.0007 93.9391 52.998ZM93.9049 52.998C93.9101 52.997 93.9155 52.9979 93.9215 52.998C93.9115 52.998 93.8989 52.9954 93.8844 52.9912C93.8926 52.9933 93.8992 52.998 93.9049 52.998ZM91.1783 50.7393C91.1695 50.7725 91.1664 50.7998 91.1695 50.8193C91.1695 50.934 91.5626 51.3273 92.0211 51.6875C92.496 52.0314 93.086 52.4734 93.3317 52.6699C93.4754 52.7687 93.6152 52.855 93.7223 52.9141C93.6152 52.8541 93.4814 52.7675 93.3483 52.6699C93.0862 52.4734 92.4962 52.0314 92.0377 51.6875C91.5629 51.3273 91.1705 50.9339 91.1705 50.8193C91.1673 50.7998 91.1697 50.7724 91.1783 50.7393ZM91.2535 50.5537C91.2498 50.5612 91.2463 50.5688 91.2428 50.5762C91.2489 50.5634 91.2555 50.5504 91.2623 50.5371L91.2535 50.5537ZM91.7535 49.5361C91.7549 49.5249 91.7563 49.5136 91.7574 49.502C91.7563 49.5135 91.7549 49.5249 91.7535 49.5361ZM91.7672 49.332C91.7706 49.2383 91.7702 49.1331 91.7672 49.0127C91.7703 49.1331 91.7705 49.2383 91.7672 49.332ZM91.6568 47.5244C91.6936 47.7742 91.7264 48.1016 91.7428 48.4453C91.7545 48.6416 91.7616 48.8106 91.7662 48.958C91.7617 48.8106 91.7555 48.6415 91.7438 48.4453C91.7192 47.9292 91.6573 47.4497 91.6002 47.2148L91.6568 47.5244ZM87.568 27.1074C87.437 27.1074 86.847 27.6158 86.2574 28.2217C85.6679 28.8276 84.8492 29.8593 84.4234 30.4814C83.9978 31.1036 83.4414 32.1019 83.1793 32.6914C82.9173 33.2809 82.5569 34.313 82.3932 34.9844C82.1803 35.8195 82.0819 36.7528 82.0983 37.9316C82.1081 38.6626 82.0623 39.1888 82.0045 39.4268C82.0992 39.8295 82.2668 40.4584 82.4215 40.9658C82.5687 41.1819 82.8586 41.7103 83.0807 42.1895C83.3918 42.8609 83.9977 43.8929 84.4234 44.4824C84.8492 45.0719 85.6841 46.0377 86.3063 46.6436C86.9122 47.2658 87.5022 47.7578 87.6168 47.7578C87.7157 47.7571 88.4035 47.1513 89.1236 46.3984C89.8442 45.6615 90.8265 44.4327 91.3014 43.6631C91.7762 42.8935 92.3661 41.6824 92.5953 40.9619C92.972 39.8484 93.0367 39.3731 93.0367 37.6865C93.0367 36.2455 92.9547 35.4588 92.7418 34.7383C92.578 34.1978 92.2186 33.2807 91.9567 32.6914C91.6946 32.1019 91.1373 31.1037 90.7115 30.4814C90.2858 29.8592 89.4671 28.8276 88.8776 28.2217C88.2887 27.6165 87.6999 27.1086 87.568 27.1074ZM91.5465 47.0693C91.5324 47.0582 91.5063 47.0467 91.4703 47.0342C91.5064 47.0468 91.5325 47.0582 91.5465 47.0693ZM91.4371 47.0234C91.418 47.0176 91.3966 47.0128 91.3736 47.0068C91.3966 47.0128 91.418 47.0176 91.4371 47.0234ZM91.2027 46.9678C91.1798 46.9633 91.1561 46.9584 91.1315 46.9541C91.1561 46.9584 91.1798 46.9633 91.2027 46.9678ZM64.8053 30.8252C65.4603 30.6287 66.1974 30.5798 67.5074 30.6289C68.5061 30.678 69.652 30.7758 70.0943 30.874C70.5198 30.9722 70.8634 31.1195 70.8639 31.2178C70.8639 31.316 70.5859 31.496 70.2584 31.627C69.9146 31.7579 69.2431 32.0691 68.7682 32.3311C68.2933 32.5767 67.4909 33.0845 66.9996 33.4775C66.5084 33.8542 65.8857 34.4771 65.6236 34.8701C65.402 35.17 65.2209 35.3841 65.1568 35.4102C65.1198 35.5046 65.0992 35.5836 65.0992 35.6396C65.0831 35.8691 65.3942 36.5077 65.8033 37.1133C65.9016 37.2606 66.0251 37.4302 66.1627 37.6113C66.2671 37.6675 66.6422 37.995 67.1637 38.5049C68.2117 39.5365 68.8337 39.9794 71.6012 41.3877L70.3727 41.2891C69.7012 41.2235 68.604 41.0434 67.9654 40.8633C67.3108 40.6996 66.5254 40.4543 66.2467 40.3232C65.9519 40.1922 64.3963 39.4062 64.4781 39.4062C64.4844 39.4052 64.4988 39.4111 64.5221 39.418C64.4784 39.3963 64.435 39.377 64.3951 39.3564C63.8547 39.0616 62.9545 38.3899 62.3815 37.8496C62.0374 37.5342 61.7093 37.202 61.4801 36.9443C61.4712 36.9431 61.4443 36.9119 61.4049 36.8584C61.2824 36.7156 61.1981 36.6028 61.1695 36.54C61.1485 36.5014 61.139 36.4764 61.1393 36.4639C60.9162 36.1181 60.6489 35.6783 60.5475 35.4756C60.3673 35.1153 60.2193 34.7221 60.2193 34.6074C60.2037 34.5085 60.4989 34.0344 60.8424 33.5928C60.9981 33.3946 61.2117 33.1627 61.444 32.9355C61.7489 32.6227 62.7228 31.7327 63.1188 31.5127C63.5445 31.2671 64.3141 30.9562 64.8053 30.8252ZM107.874 30.5791C108.643 30.5791 109.641 30.6609 110.084 30.7754C110.542 30.9064 111.378 31.2504 111.951 31.5615C112.606 31.9054 113.327 32.4793 113.883 33.1016C114.375 33.6418 114.817 34.2309 114.866 34.4111C114.915 34.6076 114.751 35.1322 114.44 35.7217C114.162 36.262 113.687 36.9663 113.392 37.2773C113.097 37.5884 112.524 38.112 112.115 38.4395C111.722 38.7833 110.919 39.308 110.33 39.6191C109.74 39.9467 108.495 40.4209 107.546 40.6992C106.596 40.9776 105.335 41.2558 104.713 41.3213C104.107 41.3868 103.616 41.4034 103.616 41.3379C103.616 41.2559 103.894 41.0925 104.238 40.9453C104.565 40.7979 105.253 40.4871 105.745 40.2578C106.318 39.9794 107.121 39.34 107.956 38.5049C108.692 37.768 109.429 36.8513 109.642 36.4092C110.002 35.6395 110.002 35.6393 109.691 35.1152C109.511 34.8205 109.118 34.3457 108.823 34.0674C108.528 33.7726 107.775 33.1994 107.136 32.79C106.514 32.3643 105.646 31.922 105.22 31.791C104.778 31.66 104.401 31.4801 104.352 31.3818C104.303 31.2836 104.287 31.1849 104.32 31.1357C104.339 31.1024 104.829 30.9558 105.417 30.8252C106.006 30.6942 107.104 30.5955 107.874 30.5791ZM68.567 40.4287C68.551 40.5049 68.3198 40.5499 68.0387 40.5508C68.0416 40.5508 68.0446 40.5518 68.0475 40.5518C68.3258 40.5518 68.5719 40.503 68.5719 40.4375C68.5714 40.4348 68.5685 40.4323 68.567 40.4287ZM66.9303 40.3516C67.2897 40.4533 67.7201 40.5371 67.9869 40.5488C67.7675 40.5391 67.3541 40.4635 66.9303 40.3516ZM66.7701 40.3066C66.7843 40.3112 66.7995 40.3139 66.8141 40.3184C66.7958 40.3133 66.7776 40.3079 66.7594 40.3027C66.7631 40.304 66.7666 40.3055 66.7701 40.3066ZM82.4576 33.3799C82.3866 33.7921 82.2767 34.4134 82.1852 34.8701C82.2767 34.4133 82.3875 33.7921 82.4586 33.3799C82.4729 33.2777 82.4844 33.1869 82.4938 33.1064L82.4576 33.3799ZM82.4664 32.5352C82.4773 32.5563 82.4877 32.5784 82.4947 32.6035L82.4772 32.5527C82.4744 32.5464 82.4695 32.5412 82.4664 32.5352ZM81.1803 31.7744C81.4913 31.9217 81.9334 32.1512 82.1627 32.2822C82.2099 32.3089 82.2519 32.3336 82.2887 32.3574L82.1637 32.2822C81.9344 32.1512 81.4924 31.9218 81.1813 31.7744L81.1783 31.7734L81.1803 31.7744ZM102.224 18.1338C102.863 18.1338 103.452 18.1826 103.55 18.248C103.649 18.3135 103.812 18.5103 103.894 18.6904C103.992 18.8706 104.205 19.6076 104.369 20.3281C104.582 21.2451 104.664 22.2766 104.664 23.7666C104.664 25.6498 104.615 26.0434 104.206 27.2061C103.96 27.9266 103.517 28.8764 103.222 29.335C102.927 29.7771 102.273 30.5464 101.798 31.0049C101.307 31.4798 100.717 31.9711 100.455 32.0693C100.209 32.1839 99.9638 32.2493 99.9147 32.2002C99.8662 32.1493 100.029 31.4951 100.258 30.7266C100.504 29.9569 100.8 28.5979 100.947 27.6973C101.111 26.6165 101.143 25.6498 101.078 24.8311C101.012 24.1597 100.848 23.2099 100.701 22.7188C100.537 22.2276 100.292 21.7525 100.144 21.6543C99.9313 21.5233 99.5382 21.5238 98.6705 21.6875C98.0155 21.8021 97.0164 22.0803 96.4596 22.3096C95.887 22.5222 95.3633 22.6698 95.2643 22.6211C95.166 22.572 95.2153 22.2935 95.4117 21.917C95.5755 21.5896 96.0827 20.918 96.5084 20.4268C97.0488 19.8372 97.688 19.3786 98.4576 19.002C99.0962 18.6909 99.931 18.3798 100.34 18.2979C100.75 18.216 101.602 18.1502 102.224 18.1338ZM72.649 18.1172C73.2385 18.1172 74.1392 18.183 74.6305 18.2812C75.1218 18.3795 75.941 18.6418 76.4322 18.8711C76.9234 19.1003 77.6274 19.5254 77.9713 19.8037C78.3315 20.0985 78.9047 20.7702 79.2486 21.3105C79.5925 21.8509 79.8707 22.3427 79.8707 22.4082C79.8704 22.4898 79.7563 22.539 79.6256 22.5391C79.4946 22.5391 78.8232 22.3591 78.152 22.1299C77.4806 21.9006 76.4975 21.671 75.9899 21.6055C75.1056 21.5072 75.0233 21.5238 74.7613 21.9004C74.5976 22.1136 74.3686 22.8664 74.2213 23.5537C74.0903 24.2577 73.9753 25.2239 73.9752 25.6826C73.9752 26.1575 74.1232 27.3207 74.3033 28.2705C74.4835 29.2203 74.7785 30.4323 74.9586 30.9727C75.1385 31.5124 75.2855 32.0032 75.2858 32.0693C75.2858 32.1512 75.1707 32.2002 75.0397 32.2002C74.9082 32.1997 74.4832 31.9872 74.107 31.7256C73.6935 31.4155 73.2396 30.866 72.9264 30.5088C72.4323 29.9958 71.8507 29.1963 71.5846 28.6797C71.5776 28.6661 71.5712 28.6518 71.5641 28.6377C71.5405 28.6076 71.5247 28.5923 71.5192 28.5977C71.47 28.6468 70.7495 27.1073 70.6022 26.3867C70.3894 25.3717 70.3406 24.6348 70.4225 23.1123C70.488 21.9497 70.6674 20.6066 70.8639 19.8369C71.0604 19.1164 71.29 18.4281 71.3883 18.3135C71.487 18.199 71.9782 18.1172 72.649 18.1172ZM73.3971 25.7158C73.4399 25.7154 73.4804 25.7205 73.5162 25.7324C73.7291 25.7979 73.8111 25.9777 73.8111 26.4688C73.8111 26.5138 73.8146 26.5698 73.8199 26.6348L73.8121 26.4688C73.8121 25.978 73.73 25.798 73.5338 25.7324C73.4917 25.7198 73.445 25.7147 73.3971 25.7158ZM70.9967 25.4258C71.1084 25.4233 71.2445 25.4744 71.3385 25.5684C71.4858 25.6993 71.8626 25.8632 72.1901 25.9287C72.2924 25.9533 72.3859 25.9691 72.4703 25.9775C72.3861 25.9691 72.2931 25.9532 72.191 25.9287C71.8635 25.8632 71.4861 25.6994 71.3551 25.5684C71.2563 25.4697 71.1113 25.4174 70.9967 25.4258ZM87.6813 14.5156C87.5666 14.5156 87.2719 14.7124 87.0426 14.958V14.9746C86.8133 15.2203 86.4527 15.7441 86.2399 16.1533C85.9452 16.7263 85.8639 17.1686 85.8639 18.1182C85.8475 19.1498 85.9294 19.4773 86.2897 20.165C86.5352 20.607 86.8622 21.1636 87.026 21.3604C87.206 21.6058 87.4516 21.721 87.6481 21.6885C87.8282 21.6557 88.2215 21.2624 88.5162 20.8203C88.8109 20.3619 89.122 19.707 89.2203 19.3467C89.3186 18.9864 89.3681 18.2494 89.319 17.709C89.2862 17.1195 89.1058 16.4643 88.8766 16.0713C88.6802 15.7112 88.3695 15.2201 88.2057 14.958C88.0256 14.7124 87.7959 14.5157 87.6813 14.5156ZM91.2027 50.6729C91.1934 50.6972 91.1837 50.7189 91.1783 50.7393C91.1836 50.7189 91.1935 50.6972 91.2027 50.6729ZM91.7086 49.7617L91.7154 49.7441C91.7226 49.7182 91.7273 49.6911 91.733 49.6631C91.726 49.6976 91.7178 49.7303 91.7086 49.7617ZM91.735 49.6543C91.7423 49.6171 91.7485 49.578 91.7535 49.5361C91.7486 49.578 91.7423 49.6171 91.735 49.6543Z" fill="#9A9A9A"/>
<path d="M107.839 83.1787C107.806 83.4406 107.594 83.6207 107.103 83.8008C106.726 83.9316 106.333 84.1279 106.234 84.21C106.087 84.3246 106.168 84.7349 106.545 85.7666C106.823 86.5364 107.463 88.3374 107.954 89.7783C108.462 91.2189 109.001 92.7578 109.165 93.2168C109.329 93.6589 109.542 94.2982 109.641 94.6094C109.755 94.9203 109.837 95.3454 109.837 95.542C109.837 95.7549 109.952 95.9677 110.083 96.0332C110.214 96.115 110.361 96.1321 110.41 96.083C110.459 96.0339 110.606 95.526 110.737 94.9365C110.885 94.3471 111.13 93.463 111.294 92.9717C111.474 92.4805 111.916 91.0721 112.293 89.8604C112.67 88.6486 113.046 87.3874 113.145 87.0762C113.243 86.7652 113.374 86.3561 113.439 86.1758C113.505 85.9957 113.653 85.6517 113.751 85.3896C113.849 85.144 113.931 84.7832 113.931 84.5703C113.93 84.3412 113.783 84.128 113.521 83.9971C113.293 83.899 113.015 83.8011 112.916 83.8008C112.801 83.8172 112.555 83.6538 112.375 83.4736C112.157 83.2555 112.102 83.0916 112.211 82.9824C112.309 82.8842 113.472 82.8352 115.077 82.8516C117.5 82.9007 117.779 82.9332 117.812 83.1787C117.844 83.3916 117.631 83.5877 116.256 84.21L115.176 87.2402C114.57 88.9103 113.915 90.6784 113.734 91.1699C113.554 91.6612 113.341 92.2183 113.275 92.3984L112.621 94.1992C112.539 94.3794 112.244 95.1822 111.966 96.001C111.687 96.8198 111.31 97.8354 111.146 98.2939C110.983 98.736 110.803 99.2762 110.754 99.4727C110.688 99.6854 110.492 99.8821 110.296 99.915C110.083 99.9642 109.591 100.046 109.182 100.095C108.658 100.177 108.396 100.144 108.265 99.9805C108.166 99.8658 106.676 96.2625 101.829 84.21L101.043 83.834C100.617 83.6375 100.176 83.3912 100.094 83.293C99.9847 83.1839 100.011 83.0806 100.175 82.9824C100.306 82.9005 102.091 82.8184 107.872 82.8184L107.839 83.1787ZM140.705 82.6875C142.146 82.622 144.095 82.5727 145.045 82.6055C145.995 82.6382 147.239 82.7862 147.828 82.9336C148.418 83.0809 149.318 83.4077 149.826 83.6533C150.35 83.9153 151.137 84.4727 151.562 84.8984C151.988 85.3406 152.545 86.0445 152.774 86.5029C153.004 86.9451 153.33 87.7643 153.494 88.3047C153.691 88.976 153.772 89.8436 153.772 91.0879C153.772 92.2342 153.674 93.2666 153.511 93.9053C153.347 94.4784 153.02 95.3626 152.758 95.8701C152.496 96.3941 151.89 97.1968 151.415 97.6553C150.924 98.1136 150.203 98.6532 149.794 98.8662C149.385 99.0791 148.648 99.3743 148.156 99.5381C147.665 99.7182 146.846 99.8981 146.354 99.9473C145.863 100.013 143.636 100.013 141.393 99.9473C137.66 99.849 137.349 99.8329 137.397 99.5547C137.414 99.4073 137.79 99.0955 138.249 98.8662C138.707 98.637 139.117 98.3758 139.183 98.2939C139.248 98.2121 139.313 95.0181 139.313 84.292L138.38 83.834C137.872 83.5884 137.43 83.2934 137.397 83.1787C137.365 83.0805 137.512 82.9498 137.708 82.917C137.921 82.8679 139.264 82.7694 140.705 82.6875ZM34.7217 82.8184C36.5393 82.8184 38.1444 82.8839 38.2754 82.9658C38.4553 83.064 38.4719 83.1789 38.3574 83.3262C38.2755 83.4408 37.8001 83.7025 36.4736 84.292V91.2031C36.4736 95.0139 36.5391 98.204 36.6045 98.3096C36.67 98.4078 36.9979 98.5887 37.3418 98.7197C37.6856 98.8507 38.0789 99.0792 38.21 99.2266C38.3409 99.3902 38.4064 99.6036 38.3574 99.6855C38.3083 99.7838 36.9651 99.8496 31.3975 99.8496L31.4463 99.4727C31.4681 99.2326 31.6974 99.0034 32.1338 98.7852C32.494 98.6051 32.8387 98.3759 32.9043 98.2939C32.9862 98.2121 33.0186 96.7379 32.9531 91.9072L32.1338 91.7764C31.6914 91.7109 30.5781 91.6448 29.6777 91.6611C28.7771 91.6611 27.631 91.7108 26.2393 91.9072L26.1572 98.375L26.9434 98.7354C27.4837 98.9974 27.7294 99.2274 27.7949 99.8496H24.2734C21.0324 99.8496 20.7531 99.8328 20.7529 99.5547C20.7529 99.3746 21.081 99.0964 22.6367 98.2939L22.6855 91.5791C22.7019 87.8952 22.6851 84.719 22.6523 84.5381C22.6032 84.3416 22.3249 84.1281 21.9482 83.9971C21.6045 83.8661 21.1792 83.67 20.999 83.5391C20.7862 83.3917 20.7208 83.2281 20.7861 83.0645C20.9008 82.8516 21.3754 82.8188 24.3066 82.8516C27.1724 82.9007 27.7126 82.9336 27.7617 83.1465C27.7938 83.2939 27.4986 83.5559 26.1572 84.292V87.1904C26.1572 89.3349 26.2062 90.1542 26.3535 90.3184C26.5173 90.4657 27.3688 90.5146 29.5957 90.5146C31.8228 90.5146 32.6915 90.4655 32.8389 90.3018C32.9859 90.1692 33.0352 89.2648 33.0352 84.292L32.2656 83.916C31.7089 83.654 31.463 83.4406 31.3975 82.8184H34.7217ZM50.0986 82.5234C50.6386 82.5562 50.9821 82.6548 51.0479 82.8184C51.1134 82.9494 51.2445 83.2444 51.3428 83.4736C51.441 83.7029 51.736 84.4729 51.998 85.1934C52.2766 85.9143 53.1606 88.2065 53.9629 90.2695C54.7817 92.3329 55.7973 95.0024 56.2559 96.165C57.0417 98.2607 57.0743 98.2939 57.7783 98.6377C58.1713 98.8342 58.597 99.1124 58.6953 99.2598C58.8099 99.4071 58.8753 99.6037 58.8262 99.6855C58.7748 99.7837 57.3832 99.8496 55.1416 99.8496C53.1604 99.8496 51.5071 99.7996 51.458 99.7178C51.4256 99.6521 51.5557 99.4397 51.752 99.2598C51.9484 99.0633 52.3905 98.8012 52.7344 98.6865C53.1927 98.5065 53.3407 98.3592 53.3408 98.0811C53.3408 97.8845 53.2584 97.5237 53.1602 97.2617C53.0619 97.0161 52.9151 96.6723 52.8496 96.4922C52.7677 96.3121 52.571 95.8044 52.4072 95.3623C52.2436 94.9206 52.0149 94.4787 51.8838 94.3799C51.7364 94.2653 50.7533 94.1992 49.1484 94.1992C47.1343 94.1992 46.594 94.2488 46.3975 94.4453C46.2664 94.5765 45.8573 95.4773 45.4971 96.4434C45.1209 97.4246 44.859 98.2912 44.9072 98.375C44.9564 98.4569 45.3331 98.6371 45.7588 98.7354C46.1682 98.85 46.61 99.0962 46.7246 99.2764C46.8391 99.4563 46.9045 99.652 46.8721 99.7178C46.8229 99.7997 45.4968 99.8496 43.9248 99.8496C41.3063 99.8496 41.0594 99.8165 41.0918 99.5713C41.1245 99.4075 41.5339 99.0635 42.9092 98.2939L43.6465 96.4102C44.0394 95.3787 44.4654 94.2983 44.5801 94.0361C44.6947 93.7741 44.9568 93.1348 45.1533 92.6436C45.3498 92.1524 45.6766 91.3669 45.873 90.9248C46.0859 90.4663 46.5611 89.2872 46.9541 88.3047C47.3307 87.3221 47.9368 85.733 48.3135 84.7832C48.6737 83.8335 49.0343 82.9333 49.1162 82.7695C49.2472 82.5403 49.4436 82.4907 50.0986 82.5234ZM70.0928 82.4912C70.4694 82.4748 70.8626 82.5729 70.9609 82.6875C71.0592 82.8021 71.5173 83.8995 71.9922 85.1113C72.467 86.323 72.9256 87.4691 72.9912 87.6494C73.0731 87.8295 73.7943 89.6798 74.5967 91.7432L74.5986 91.749C75.4005 93.8109 76.3159 96.1659 76.6104 96.9512C77.1506 98.3755 77.1838 98.4081 77.9697 98.752C78.4118 98.9485 78.8378 99.2432 78.9033 99.3906C79.0016 99.5871 78.9797 99.713 78.8379 99.7676C78.7396 99.8167 77.0524 99.8328 75.1201 99.8164C72.1236 99.7673 71.5996 99.7344 71.5996 99.5215C71.6001 99.3903 72.0091 99.0629 72.5 98.8174C72.9913 98.5717 73.4174 98.3425 73.4502 98.3262C73.4661 98.3083 73.3681 97.9159 73.2373 97.4746C73.0899 97.0161 72.91 96.5082 72.8281 96.3281C72.7462 96.1479 72.5495 95.6405 72.3857 95.2148C72.2221 94.7895 71.9768 94.3967 71.8457 94.3633C71.7147 94.3305 71.0754 94.2491 70.4531 94.1836C69.8145 94.1345 68.6685 94.1181 67.8662 94.1836C66.6053 94.2655 66.4245 94.3305 66.2607 94.6416C66.1461 94.8546 65.8189 95.7228 65.5078 96.5742C65.2131 97.4257 64.9678 98.2121 64.9678 98.2939C64.9525 98.376 65.2956 98.5723 65.7207 98.7031C66.1298 98.834 66.5881 99.0791 66.7031 99.2266C66.8341 99.3903 66.8997 99.6037 66.8506 99.6855C66.8007 99.7837 65.7033 99.8496 64.0664 99.8496C62.43 99.8496 61.3335 99.7837 61.2832 99.6855C61.2341 99.6037 61.2992 99.4069 61.3975 99.2432C61.5121 99.0958 61.9054 98.8503 62.2656 98.6865C62.6913 98.5064 62.9862 98.244 63.1172 97.9492C63.216 97.6859 63.8873 95.9996 64.6074 94.1992C65.3279 92.3979 66.3105 89.9256 66.8018 88.7139C67.293 87.5021 67.9803 85.7659 68.3242 84.8652C68.6517 83.9647 69.0455 83.0645 69.1602 82.8516C69.3403 82.5732 69.5526 82.4912 70.0928 82.4912ZM88.7119 82.5234C89.3833 82.5071 90.4483 82.6053 91.0869 82.7363C91.709 82.8837 92.5273 83.1461 92.8877 83.3262C93.248 83.5063 93.7563 83.8664 94.002 84.0957C94.2639 84.3414 94.6238 84.8332 94.8203 85.1934C95.0495 85.6355 95.1804 86.2577 95.2295 87.1582C95.2786 88.157 95.2302 88.6484 95.001 89.2051C94.8372 89.6145 94.4439 90.2208 94.1328 90.5811C93.8053 90.9249 93.2648 91.3499 92.9209 91.5137C92.5934 91.6938 92.2825 91.9074 92.2334 91.9893C92.1844 92.0712 92.2495 92.3163 92.3477 92.5127C92.4623 92.7092 93.0353 93.5772 93.6084 94.4287C94.1815 95.2965 95.1151 96.59 95.6719 97.3105C96.2284 98.0307 96.883 98.7516 97.1289 98.8994C97.3581 99.0631 97.5545 99.3413 97.5547 99.5215C97.5547 99.8326 97.4405 99.8496 95.623 99.8496C93.9036 99.8496 93.6575 99.8002 93.1826 99.4727C92.8878 99.2761 92.2819 98.5551 91.8398 97.8838C91.3977 97.2123 90.6121 95.7391 90.1045 94.6094C89.5968 93.4795 89.0885 92.5128 88.9902 92.4473C88.8751 92.3818 88.4824 92.3164 88.0898 92.3164C87.7132 92.3164 87.2872 92.3493 87.1562 92.3984C86.9437 92.4643 86.9111 92.9578 86.9111 98.375L87.8115 98.7852C88.4663 99.0798 88.7118 99.276 88.7119 99.5215C88.7119 99.8326 88.5975 99.8496 85.1914 99.8496C83.0141 99.8496 81.6387 99.7838 81.5889 99.6855C81.5397 99.6037 81.5566 99.4074 81.6221 99.2764C81.7039 99.129 82.0967 98.8991 82.5225 98.7354C83.0136 98.5552 83.3251 98.3427 83.3906 98.1299C83.4234 97.9498 83.4717 94.8875 83.4717 91.334C83.4717 87.7817 83.4231 84.7202 83.374 84.5381C83.3249 84.358 83.0952 84.1117 82.8496 83.9971C82.6043 83.8826 82.3263 83.801 82.2441 83.8008C82.1459 83.8008 81.9489 83.6701 81.7852 83.4736C81.6378 83.2936 81.5399 83.0644 81.5889 82.9824C81.638 82.9005 82.2768 82.8018 83.0137 82.8018C83.767 82.7854 85.0772 82.7198 85.9287 82.6543C86.7801 82.6052 88.0405 82.5398 88.7119 82.5234ZM133.369 83.4248C133.304 83.7688 133.205 84.4891 133.156 85.0293C133.107 85.5697 132.976 86.2251 132.878 86.4707C132.763 86.7325 132.583 86.9124 132.436 86.8799C132.321 86.8471 132.075 86.5689 131.911 86.2578C131.747 85.9467 131.469 85.3404 130.962 84.1289L129.7 84.0469C128.996 83.9978 127.915 84.0135 126.131 84.21L126.098 87.1582C126.065 89.3192 126.114 90.1543 126.262 90.3184C126.393 90.4603 126.906 90.5256 127.801 90.5146C128.848 90.5146 129.193 90.4497 129.422 90.2207C129.569 90.0733 129.831 89.6632 129.995 89.3193C130.208 88.9266 130.421 88.714 130.634 88.7139C130.814 88.7139 130.994 88.8282 131.043 88.959C131.092 89.09 131.125 90.0892 131.125 91.1699C131.125 92.2507 131.092 93.2499 131.043 93.3809C130.994 93.5117 130.831 93.6257 130.684 93.626C130.503 93.6424 130.225 93.3316 129.946 92.8076C129.684 92.3655 129.389 91.9395 129.291 91.874C129.176 91.8086 128.456 91.7759 127.687 91.8086C126.851 91.825 126.245 91.9235 126.18 92.0381C126.114 92.1536 126.049 93.562 126.049 95.1826C126.049 96.8029 126.114 98.2105 126.18 98.3262C126.245 98.4244 126.982 98.5553 127.932 98.6045C128.832 98.67 129.93 98.6534 130.355 98.5879C130.961 98.4896 131.191 98.359 131.354 98.0479L132.042 96.6562C132.435 95.8538 132.599 95.6738 132.927 95.6738C133.303 95.6739 133.352 95.7718 133.532 96.8193C133.63 97.458 133.729 98.3922 133.745 99.8496H127.195C121.072 99.8496 120.645 99.8329 120.645 99.5547C120.628 99.3746 120.956 99.1283 122.61 98.375V84.292L121.709 83.8828C121.218 83.6536 120.76 83.3912 120.694 83.293C120.613 83.1947 120.678 83.0477 120.809 82.9658C120.94 82.8839 123.855 82.8184 133.5 82.8184L133.369 83.4248ZM164.892 82.7695C165.023 82.5403 165.22 82.4914 166.693 82.5732L167.25 84.0469C167.545 84.8656 167.889 85.7004 167.987 85.9297C168.086 86.1589 168.232 86.4869 168.298 86.667C168.363 86.8471 168.495 87.1741 168.593 87.4033C168.675 87.6326 169.052 88.5825 169.412 89.5322C169.755 90.436 170.453 92.2445 171 93.6592L171.082 93.8721C171.639 95.3125 172.146 96.6383 172.229 96.8193C172.294 96.9994 172.474 97.4254 172.621 97.7529C172.834 98.2442 173.064 98.4576 173.784 98.7852C174.439 99.0798 174.684 99.276 174.685 99.5215C174.685 99.8326 174.57 99.8496 171 99.8496C167.43 99.8496 167.315 99.8326 167.315 99.5215C167.316 99.276 167.561 99.0797 168.216 98.7852C168.707 98.5559 169.117 98.2767 169.117 98.1621C169.116 98.062 168.838 97.2275 168.511 96.3281C168.183 95.4279 167.807 94.5767 167.692 94.4453C167.512 94.2488 166.971 94.1992 164.957 94.1992C162.665 94.1992 162.403 94.2326 162.092 94.5273C161.896 94.7073 161.732 94.9523 161.748 95.0508C161.748 95.1654 161.666 95.4117 161.584 95.5918C161.502 95.7718 161.339 96.066 161.257 96.2461C161.175 96.4262 161.093 96.6722 161.093 96.7705C161.093 96.8851 160.995 97.2294 160.848 97.5078C160.717 97.8026 160.634 98.163 160.684 98.2939C160.733 98.425 161.11 98.6543 161.535 98.7852C161.977 98.8998 162.37 99.129 162.436 99.2764C162.517 99.4074 162.533 99.6037 162.484 99.6855C162.434 99.7837 161.337 99.8496 159.701 99.8496C158.064 99.8496 156.967 99.7838 156.917 99.6855C156.868 99.6037 156.901 99.4232 156.982 99.3086C157.064 99.2103 157.457 98.9484 157.834 98.752C158.227 98.5718 158.603 98.3097 158.669 98.1787C158.718 98.0635 159.521 96.0823 160.438 93.79C161.355 91.4975 162.19 89.3851 162.321 89.123C162.436 88.861 162.681 88.2877 162.878 87.8457C163.058 87.4202 163.221 87.0275 163.222 86.9453C163.222 86.8798 163.565 85.9789 163.975 84.9473C164.384 83.9162 164.793 82.9341 164.892 82.7695ZM10.584 83.3262C10.7642 83.8012 11.5005 85.7498 12.2373 87.6328C12.9735 89.5143 13.6447 91.2325 13.7275 91.4316C13.8094 91.6445 13.9406 91.9724 14.0225 92.1689C14.1043 92.3818 14.6774 93.8557 16.4131 98.375L17.2646 98.7686C17.8865 99.0631 18.1325 99.2758 18.1328 99.5049C18.1328 99.816 18.0348 99.8333 14.4814 99.7842C11.3701 99.7514 10.8457 99.7178 10.8457 99.5049C10.8466 99.3736 11.2554 99.0461 11.7461 98.8008C12.2374 98.5551 12.6635 98.3259 12.6963 98.3096C12.7286 98.2923 12.6308 97.9488 12.5 97.54C12.369 97.1306 12.0737 96.2958 11.8281 95.6572C11.5991 95.0194 11.3539 94.4631 11.2881 94.3965C11.2226 94.331 10.3546 94.2327 9.37207 94.1836C8.37315 94.1181 7.12841 94.1338 5.60547 94.3467L5.14746 95.4932C4.88545 96.1318 4.57436 96.9347 4.44336 97.2949C4.32875 97.6551 4.21387 98.0643 4.21387 98.1953C4.21394 98.3427 4.57437 98.5721 5.14746 98.7686C5.90044 99.0305 6.11322 99.1781 6.17871 99.833H3.31348C0.56236 99.833 0.447266 99.816 0.447266 99.5049C0.447558 99.2758 0.677216 99.079 1.25 98.8008C1.69195 98.6043 2.13413 98.2773 2.23242 98.0645C2.33064 97.868 2.47792 97.5242 2.57617 97.2949L2.7334 96.8848C2.79273 96.7375 2.85422 96.5901 2.90332 96.4756C2.98521 96.2463 3.13298 95.9023 3.21484 95.6895C3.29674 95.4929 3.4765 95.0678 3.60742 94.7568C3.73842 94.4457 4.24658 93.2173 4.70508 92.0547C5.17986 90.8923 5.65476 89.697 5.76953 89.4346C5.89768 89.1783 6.49562 87.6523 7.13477 86.0225L7.17773 85.9131C7.81633 84.2429 8.42226 82.7857 8.52051 82.6875V82.6709C8.60267 82.5727 9.02867 82.4746 10.2725 82.4746L10.584 83.3262ZM143.621 84.0791C143.048 84.1119 142.9 84.1772 142.835 84.4883C142.786 84.687 142.77 87.9123 142.786 91.6445L142.835 98.4404C145.257 98.5223 145.815 98.4569 146.355 98.2441C146.765 98.0967 147.371 97.7036 147.731 97.3926C148.075 97.0651 148.583 96.3606 148.845 95.8203C149.123 95.2801 149.451 94.2978 149.565 93.6592C149.696 93.0043 149.795 91.857 149.795 91.1201C149.795 90.2852 149.664 89.2695 149.468 88.5C149.288 87.7961 148.877 86.83 148.566 86.3223C148.255 85.8313 147.748 85.2415 147.47 85.0283C147.175 84.8156 146.749 84.5542 146.52 84.4395C146.29 84.3249 145.701 84.1771 145.21 84.1279C144.719 84.0788 143.998 84.0464 143.621 84.0791ZM8.71777 86.9775C8.57042 86.6337 8.47199 86.5678 8.42285 86.7314C8.37362 86.8628 8.16079 87.5669 7.93164 88.2871C7.70237 89.0077 7.29301 90.2197 7.01465 90.9893C6.73629 91.7589 6.50684 92.4799 6.50684 92.5781C6.50858 92.7412 7.01694 92.791 8.47168 92.791C9.55166 92.791 10.4692 92.741 10.5029 92.6592C10.5503 92.5891 10.2065 91.3956 9.74902 90.0068C9.29102 88.6165 8.83304 87.2417 8.71777 86.9775ZM49.2803 86.7646C49.1984 86.7319 49.0677 86.9118 49.0186 87.1738C48.9529 87.4197 48.7067 88.1399 48.4775 88.7783C48.2483 89.4005 47.855 90.5139 47.6094 91.2344C47.3478 91.9538 47.1847 92.5921 47.2168 92.6592C47.253 92.7408 48.1686 92.791 49.2471 92.791C50.8831 92.791 51.2125 92.7411 51.2129 92.5449C51.2129 92.4139 50.9505 91.5455 50.623 90.6123C50.2956 89.6955 49.9021 88.4676 49.7383 87.8779C49.575 87.2899 49.3788 86.7997 49.2803 86.7646ZM69.4062 86.5674C69.3244 86.5674 69.193 86.7642 69.0947 87.0098C69.0129 87.2717 68.8492 87.7629 68.751 88.123C68.6364 88.4833 68.4891 88.9263 68.4072 89.1064C68.3251 89.2873 68.0467 90.0562 67.7686 90.8252C67.4902 91.5948 67.2607 92.3487 67.2607 92.4961C67.2611 92.7575 67.4587 92.791 69.2256 92.791C71.0749 92.791 71.1903 92.7737 71.1904 92.4629C71.1903 92.2823 70.8304 91.0542 70.3721 89.7119C69.9302 88.3862 69.5541 87.1417 69.5537 86.9277C69.5536 86.7321 69.4877 86.5685 69.4062 86.5674ZM165.057 86.5186C164.975 86.2893 164.876 86.4531 164.729 87.0918C164.597 87.567 164.139 88.9593 163.697 90.1709C163.255 91.3825 162.895 92.4799 162.895 92.5781C162.896 92.7412 163.405 92.791 164.859 92.791C166.005 92.791 166.858 92.7251 166.907 92.627C166.956 92.5284 166.579 91.1851 166.071 89.6299C165.564 88.0921 165.107 86.6846 165.057 86.5186ZM88.2549 84.1113C87.7315 84.1113 87.2409 84.1612 87.1582 84.2266C87.0763 84.2757 87.0266 85.7656 87.043 87.5342C87.0593 90.3008 87.0924 90.7763 87.3379 90.9893C87.567 91.2017 87.7645 91.2027 88.6973 91.0391C89.3194 90.908 89.9912 90.6621 90.2695 90.4492C90.5478 90.2363 90.9076 89.7771 91.0713 89.417C91.235 89.0731 91.4157 88.3691 91.4648 87.8779C91.4975 87.387 91.4477 86.6668 91.3496 86.29C91.2514 85.8972 90.9731 85.3564 90.7275 85.0615C90.4657 84.7833 90.0235 84.4554 89.7451 84.3242C89.4504 84.2097 88.7787 84.1114 88.2549 84.1113Z" fill="#9A9A9A"/>
</svg>
