<svg width="195" height="100" viewBox="0 0 195 100" fill="none" xmlns="http://www.w3.org/2000/svg">
<path d="M111.25 2.26074C111.363 2.26099 111.49 2.33096 111.532 2.40137C111.575 2.48622 111.971 2.67045 112.423 2.83984C112.861 3.00923 113.637 3.19305 114.146 3.26367C114.781 3.33425 115.206 3.32002 115.517 3.20703C115.77 3.10846 116.024 3.09406 116.081 3.15039C116.137 3.22163 116.194 3.60367 116.194 4.73242L152.359 4.80371C176.742 4.86022 188.68 4.93041 189.019 5.0293C189.287 5.1143 189.923 5.36851 190.431 5.6084C190.939 5.84861 191.66 6.31534 192.041 6.6543C192.422 6.99341 192.973 7.62905 193.256 8.05273C193.552 8.4766 193.934 9.23952 194.457 10.666V94.1553L194.118 95.0742C193.935 95.5826 193.596 96.2747 193.355 96.6279C193.13 96.981 192.733 97.4757 192.493 97.7441C192.253 97.9984 191.702 98.4505 191.278 98.7471C190.855 99.0437 190.091 99.4248 188.665 99.9473L97.7588 99.9902C32.4756 100.018 6.61772 99.9899 5.93457 99.877C5.42618 99.7922 4.57831 99.4954 4.02734 99.2412C3.49067 98.9729 2.75563 98.5066 2.40234 98.21C2.04936 97.9134 1.52718 97.3202 1.23047 96.8965C0.947944 96.4727 0.551888 95.667 0.000976562 94.085V52.5098C0.000976562 18.6503 0.0433277 10.8224 0.18457 10.2422C0.297581 9.86082 0.566023 9.15461 0.791992 8.68848C1.0463 8.1517 1.54099 7.50153 2.12012 6.93652C2.64276 6.42806 3.4055 5.86275 3.88574 5.63672C4.35196 5.41072 5.115 5.12763 5.58105 5.01465C6.30358 4.84524 11.5501 4.81783 42.0703 4.80371C73.5952 4.80371 77.708 4.77513 77.7695 4.5918C77.8119 4.47863 77.8398 4.09703 77.8398 3.74414C77.8398 3.3629 77.9105 3.08025 78.0234 3.05176C78.1084 3.00982 78.3343 3.07971 78.5176 3.19238C78.7294 3.33343 79.0408 3.36209 79.5771 3.30566C79.9728 3.26322 80.6373 3.12229 81.0186 3.02344C81.4139 2.91044 81.9503 2.69828 82.2188 2.54297C82.4865 2.38804 82.783 2.27528 82.8545 2.26074C82.9264 2.26228 83.3218 2.60019 83.7305 3.00879C84.1259 3.4042 84.8042 3.95509 85.2139 4.19531C85.6236 4.44959 86.4155 4.81693 86.9521 5.01465C87.5027 5.19815 88.1098 5.36806 88.3359 5.36816C88.5474 5.36827 88.6884 5.43926 88.6465 5.50977C88.6021 5.59428 87.7833 5.63658 86.5 5.6084C85.3425 5.58017 84.2546 5.50961 84.0557 5.45312C83.7449 5.35426 83.6883 5.39661 83.6318 5.79199C83.5753 6.11691 83.618 6.27259 83.7734 6.3291C83.8866 6.37101 84.0983 6.32901 84.2393 6.23047C84.3955 6.13172 85.2026 6.07475 88.5059 6.08887L87.1641 6.58301C86.43 6.85124 85.4834 7.27496 85.0732 7.5293C84.6636 7.76942 83.9992 8.3209 82.9258 9.46484L81.8379 8.9707C81.1176 8.65999 80.3821 8.44764 79.7324 8.37695C78.9986 8.29231 78.6588 8.3067 78.4893 8.43359C78.3623 8.53227 78.1648 8.58893 78.0518 8.54688C77.9105 8.50448 77.8399 8.27851 77.8398 7.84082C77.8398 7.45974 77.7549 7.12057 77.6279 6.99316C77.4443 6.80952 73.2902 6.78093 5.86328 6.85156L5.08691 7.2334C4.66321 7.43113 3.9991 7.88319 3.60352 8.23633C3.22219 8.57529 2.74181 9.16838 2.54395 9.5498C2.36032 9.93118 2.12039 10.5247 2.02148 10.8779C1.89436 11.3729 1.85156 18.5214 1.85156 42.4512C1.83744 59.4519 1.89371 73.4608 1.9502 73.5586C2.04268 73.6997 22.1325 73.7283 192.479 73.6719L192.521 42.5928C192.55 18.9349 192.522 11.3609 192.395 10.8779C192.296 10.5249 192.084 9.95964 191.9 9.60645C191.731 9.25336 191.307 8.6877 190.968 8.34863C190.643 8.00981 190.036 7.58613 189.654 7.40234C189.259 7.21876 188.566 7.00669 188.1 6.92188C187.543 6.83715 174.942 6.78125 151.851 6.78125C123.74 6.78125 116.443 6.82377 116.293 6.96484C116.194 7.05004 116.124 7.47346 116.124 7.88281C116.124 8.51809 116.081 8.61705 115.841 8.61719C115.686 8.61712 115.559 8.56107 115.559 8.47656C115.559 8.40596 115.276 8.33503 114.923 8.33496C114.57 8.33496 113.948 8.40554 113.553 8.49023C113.143 8.57499 112.422 8.82973 111.108 9.45117L110.332 8.68848C109.908 8.26481 109.173 7.69962 108.707 7.41699C108.241 7.14865 107.379 6.76715 106.8 6.56934C106.221 6.38594 105.614 6.20247 105.458 6.17383C105.303 6.13145 106.178 6.10299 107.407 6.08887C108.763 6.07476 109.654 6.13107 109.696 6.21582C109.739 6.30038 109.894 6.35735 110.049 6.35742C110.204 6.35719 110.36 6.24414 110.402 6.11719C110.445 5.97613 110.445 5.75026 110.402 5.62305C110.346 5.42538 110.232 5.38265 109.95 5.45312C109.724 5.4955 108.537 5.56647 107.294 5.59473C106.051 5.62297 105.091 5.60871 105.147 5.53809C105.219 5.48143 105.671 5.35413 106.136 5.26953C106.616 5.17052 107.535 4.8312 108.185 4.52051C108.989 4.12508 109.597 3.70148 110.19 3.1084C110.657 2.64232 111.137 2.26074 111.25 2.26074ZM192.479 75.9326C12.8382 75.8621 2.01301 75.89 1.92285 76.0732C1.88047 76.1863 1.83789 80.0712 1.83789 84.6904C1.83789 90.7085 1.88067 93.3084 2.00781 93.8311C2.10674 94.2407 2.33202 94.8627 2.51562 95.2158C2.69936 95.569 3.0955 96.0911 3.37793 96.3877C3.66051 96.6843 4.16939 97.0943 4.52246 97.292C4.87573 97.5038 5.48308 97.7445 5.86426 97.8574C6.45632 97.9985 22.7064 98.041 97.1943 98.041C172.348 98.041 187.945 97.9982 188.524 97.8428C188.92 97.7438 189.485 97.5317 189.796 97.3623C190.107 97.2067 190.573 96.8678 190.841 96.5996C191.109 96.3453 191.463 95.9359 191.646 95.71C191.816 95.4696 192.099 94.8765 192.254 94.3682C192.551 93.4783 192.551 93.2367 192.522 84.6904L192.479 75.9326ZM72.0479 78.0508C72.4574 78.1073 72.868 78.2629 73.1787 78.5312C73.4471 78.7432 73.786 79.139 73.9131 79.4072C74.0966 79.7745 74.1529 80.2834 74.167 81.6816C74.167 83.1637 74.1242 83.5036 73.9551 83.5605C73.8421 83.6028 73.5882 83.6308 73.3906 83.6309C73.1931 83.6309 72.9384 83.6028 72.8252 83.5605C72.6557 83.504 72.6133 83.1932 72.6133 81.8936C72.6133 80.7214 72.5566 80.2266 72.4014 79.9863C72.2602 79.7747 72.048 79.6759 71.7236 79.6758C71.4412 79.6617 71.1719 79.775 70.9883 79.9727C70.7202 80.255 70.7064 80.4978 70.6641 86.6543C70.6358 91.5536 70.6777 93.1087 70.8047 93.3643C70.9036 93.5619 71.1862 93.774 71.4121 93.8447C71.6945 93.9293 71.9404 93.9199 72.1475 93.8164C72.4716 93.6614 72.4719 93.6422 72.4014 87.5303L72.0479 87.4453C71.7233 87.3747 71.6953 87.2893 71.6953 85.9619H74.2383L74.2803 90.1299C74.2944 92.416 74.2801 94.4202 74.252 94.5791C74.2096 94.7344 73.9831 94.9323 73.7148 95.0312C73.4607 95.1301 72.9242 95.2717 72.543 95.3564C72.1476 95.4412 71.5534 95.4837 71.2002 95.4414C70.8472 95.3849 70.3387 95.2147 70.0703 95.0312C69.8019 94.8617 69.4341 94.4939 68.9258 93.7314L68.9404 87.0215C68.9404 82.1065 68.9969 80.171 69.124 79.7607C69.2088 79.4641 69.4488 79.0258 69.6465 78.7998C69.8725 78.5315 70.2542 78.3058 70.7061 78.1787C71.0874 78.0799 71.6948 78.0226 72.0479 78.0508ZM134.221 85.6377C134.235 89.6195 134.277 93.0367 134.333 93.2373C134.39 93.4349 134.602 93.6749 134.813 93.7598C135.096 93.9008 135.266 93.901 135.506 93.7881C135.689 93.6894 135.859 93.5909 135.901 93.5625C135.944 93.5095 136 90.0966 136.113 78.4746L136.919 78.4326C137.667 78.4044 137.738 78.4326 137.809 78.7148C137.851 78.8997 137.879 82.2904 137.851 86.2451C137.808 92.7135 137.78 93.4915 137.568 93.873C137.441 94.099 137.117 94.4947 136.862 94.749C136.608 94.989 136.114 95.2574 135.761 95.3564C135.295 95.4694 134.955 95.4839 134.489 95.3711C134.136 95.2864 133.641 95.0311 133.387 94.791C133.147 94.5649 132.836 94.1271 132.723 93.8447C132.539 93.3925 132.511 92.219 132.511 85.8633V78.4043H134.206L134.221 85.6377ZM108.849 78.0654C109.004 78.0373 109.414 78.0368 109.767 78.0791C110.12 78.1215 110.558 78.2351 110.756 78.334C110.954 78.4333 111.264 78.7863 111.462 79.125C111.758 79.6757 111.815 79.9585 111.857 81.5117C111.914 83.1072 111.886 83.2925 111.66 83.4619C111.505 83.5606 111.265 83.6306 111.109 83.6309C110.954 83.6309 110.714 83.5606 110.572 83.4619C110.346 83.3065 110.29 83.0236 110.233 81.6533C110.191 80.7217 110.092 79.9446 110.007 79.8447C109.908 79.7461 109.64 79.6613 109.414 79.6611C109.103 79.6611 108.934 79.7748 108.778 80.043C108.623 80.3113 108.566 80.8199 108.58 81.7803C108.58 82.9384 108.637 83.2356 108.947 83.8428C109.145 84.2242 109.442 84.8035 109.626 85.1143C109.81 85.4251 110.106 85.9623 110.304 86.3154C110.502 86.6686 110.826 87.2338 111.038 87.5869C111.236 87.9401 111.547 88.6602 111.717 89.2109C111.943 89.9314 112.027 90.5536 112.027 91.5C112.027 92.4461 111.956 93.0253 111.759 93.5479C111.589 93.9856 111.278 94.4806 110.981 94.749C110.699 95.0031 110.219 95.2856 109.908 95.3564C109.598 95.427 109.103 95.4548 108.807 95.3984C108.524 95.342 108.1 95.1724 107.874 95.0029C107.648 94.8475 107.309 94.438 107.111 94.085C106.772 93.4916 106.744 93.3222 106.729 89.7764L107.394 89.7344C108.001 89.7062 108.086 89.7483 108.143 90.0166C108.171 90.2005 108.213 90.935 108.241 91.6553C108.284 92.8984 108.312 92.9974 108.665 93.3223C108.891 93.5058 109.16 93.6611 109.272 93.6611C109.386 93.6607 109.64 93.5199 109.838 93.3506C110.177 93.0401 110.205 92.9403 110.205 91.6836C110.219 90.5255 110.163 90.2283 109.838 89.4941C109.64 89.028 109.23 88.265 108.947 87.7988C108.665 87.3327 108.283 86.6966 108.1 86.3857C107.93 86.0749 107.634 85.4956 107.45 85.1143C107.267 84.7331 107.041 84.1826 106.956 83.9141C106.871 83.6457 106.8 82.7128 106.8 81.8652C106.8 80.8905 106.885 80.0993 106.998 79.7461C107.111 79.4353 107.352 79.0116 107.535 78.7998C107.719 78.574 108.015 78.348 108.213 78.2773C108.411 78.1926 108.693 78.1078 108.849 78.0654ZM46.6904 78.1924C47.0576 78.0512 47.4959 78.0089 47.9619 78.0654C48.3856 78.1079 48.8518 78.2775 49.1201 78.4893C49.3743 78.673 49.6854 79.0682 49.8125 79.3506C49.9537 79.7038 50.067 80.4813 50.1094 81.583C50.18 83.1219 50.1656 83.2925 49.9258 83.4619C49.7705 83.5607 49.4594 83.6308 49.2334 83.6309C49.0077 83.6309 48.7252 83.5606 48.626 83.4619C48.513 83.3348 48.4561 82.7831 48.4561 81.7236C48.456 80.4392 48.3996 80.1279 48.2021 79.916C48.0751 79.7749 47.8061 79.6613 47.6084 79.6611C47.411 79.6613 47.1571 79.7745 47.0439 79.9014C46.8885 80.085 46.8316 80.5092 46.8457 81.71C46.8457 83.1084 46.888 83.3488 47.2129 83.9844C47.4108 84.366 47.99 85.3977 48.4844 86.2451C48.9786 87.0923 49.5295 88.1511 49.6992 88.5752C49.8687 88.999 50.0671 89.7061 50.1377 90.1299C50.2083 90.5538 50.2368 91.4157 50.2227 92.0371C50.1803 92.9408 50.0952 93.3225 49.7705 93.9297C49.5587 94.3532 49.2193 94.8194 49.0215 94.9609C48.8238 95.1021 48.3995 95.2857 48.0605 95.3564C47.6654 95.4552 47.2696 95.4415 46.8604 95.3428C46.5356 95.258 46.0831 95.0171 45.8711 94.8193C45.6453 94.6076 45.3914 94.2407 45.2783 94.0146C45.1795 93.7887 45.0374 93.3082 44.9668 92.9551C44.9103 92.6019 44.8821 91.7541 44.9951 89.7764L45.6309 89.7344C46.0398 89.7062 46.2943 89.7623 46.3652 89.875C46.4076 89.9745 46.4648 90.6243 46.4648 91.3301C46.479 92.0357 46.5206 92.7417 46.5488 92.9121C46.5913 93.0957 46.818 93.3362 47.0439 93.4492C47.2695 93.562 47.5233 93.6608 47.6084 93.6611C47.6935 93.6605 47.9061 93.4917 48.1035 93.2803C48.4282 92.9273 48.4707 92.7708 48.4707 91.7539C48.4566 91.1327 48.3855 90.3986 48.3008 90.1299C48.2161 89.8617 48.075 89.4801 47.9902 89.2822C47.8914 89.0845 47.3683 88.1657 46.8174 87.2334C46.2666 86.3013 45.7157 85.3126 45.6025 85.0439C45.4896 84.7758 45.3206 84.3804 45.2217 84.1543C45.1369 83.9424 45.0664 82.9817 45.0664 81.9082C45.0664 80.3404 45.108 79.93 45.334 79.4639C45.4753 79.1531 45.7162 78.7853 45.8574 78.6582C46.0132 78.517 46.3801 78.3053 46.6904 78.1924ZM173.196 77.9805C173.394 77.9806 173.79 78.0515 174.072 78.1221C174.369 78.2069 174.807 78.4328 175.062 78.6445C175.302 78.8707 175.626 79.2949 175.753 79.6055C175.993 80.1281 176.021 80.7084 176.021 86.5273C176.021 91.019 175.979 93.0253 175.866 93.3789C175.767 93.6473 175.527 94.113 175.329 94.3955C175.131 94.692 174.736 95.0315 174.468 95.1729C174.171 95.314 173.648 95.413 173.196 95.4131C172.688 95.4131 172.25 95.3143 171.953 95.1309C171.699 94.9896 171.289 94.5795 170.653 93.5908V86.7676C170.653 81.1875 170.696 79.8874 170.852 79.5625C170.965 79.3506 171.233 79.0116 171.459 78.7998C171.671 78.588 172.08 78.319 172.349 78.2061C172.617 78.0931 172.999 77.9946 173.196 77.9805ZM160.567 78.3623C160.709 78.3201 161.09 78.32 161.4 78.3623C161.711 78.4047 162.007 78.5169 162.064 78.6016C162.121 78.6922 162.149 82.3917 162.135 86.8379C162.121 91.263 162.051 94.9434 161.994 95.0312C161.924 95.0877 161.556 95.1587 161.175 95.1729C160.709 95.2011 160.412 95.144 160.271 95.0029C160.087 94.8189 160.059 93.7159 160.059 86.7812C160.059 82.3597 160.115 78.6863 160.172 78.6016C160.243 78.5169 160.412 78.4046 160.567 78.3623ZM36.5479 78.291C36.6469 78.2775 36.8307 78.3619 36.9434 78.4746C37.0563 78.5878 37.1553 78.8566 37.1553 79.0684C37.1552 79.2942 37.0842 79.5627 37.0137 79.6758C36.9147 79.8311 36.5044 79.9022 33.9766 80.0293L33.9336 82.6426C33.9195 84.0831 33.9342 85.3964 33.9766 85.5664C34.0331 85.8489 34.1463 85.8913 35.6719 85.9619V87.375L34.8945 87.417C34.4712 87.4452 34.0757 87.5442 34.0186 87.6289C33.962 87.7278 33.9053 89.0563 33.9053 90.582C33.9053 93.2374 33.9201 93.3924 34.1885 93.5195C34.3447 93.5901 35.0365 93.6611 35.7422 93.6611C36.9421 93.6611 37.0139 93.6753 37.0986 93.9717C37.141 94.1553 37.141 94.4669 37.0986 94.6787C37.0139 95.0457 36.956 95.0743 36.1797 95.1025C35.7133 95.1308 34.6393 95.1307 32.2109 95.0742V78.4043L34.2871 78.3623C35.4453 78.3482 36.4631 78.3051 36.5479 78.291ZM83.8438 78.3477C84.2249 78.39 84.5927 78.4748 84.6494 78.5312C84.7062 78.5758 84.8761 79.2537 85.0312 80.0293C85.2008 80.8063 85.4545 82.0067 85.5957 82.7129C85.7511 83.4192 85.9915 84.6063 86.1328 85.3691C86.274 86.1177 86.4156 86.7393 86.458 86.7393C86.5001 86.718 86.5422 84.9603 86.5703 82.8262C86.5844 80.6648 86.6275 78.7853 86.6699 78.6582C86.7266 78.4609 86.8968 78.4043 88.0117 78.4043V95.0742H86.458L86.2461 94.0566C86.119 93.4916 85.9632 92.7428 85.8926 92.3896C85.8078 92.0362 85.4968 90.5533 85.2002 89.0703C84.8895 87.5875 84.5502 86.0338 84.4512 85.6094C84.2817 84.9172 84.268 85.3547 84.2256 89.8467C84.2115 93.0057 84.1406 94.9121 84.042 95.0029C83.9714 95.0735 83.6603 95.1307 83.3779 95.1025C83.0961 95.0744 82.8144 94.9752 82.7568 94.8906C82.7003 94.7917 82.6294 91.0904 82.6152 86.6406C82.6011 78.8021 82.6009 78.5597 82.8691 78.4043C83.0248 78.3197 83.4486 78.3054 83.8438 78.3477ZM148.305 78.4043C150.183 78.4043 150.424 78.4323 150.777 78.6865C150.989 78.842 151.257 79.1676 151.37 79.3936C151.554 79.7612 151.582 80.8644 151.582 86.7109C151.582 93.5614 151.568 93.6054 151.258 94.1279C151.088 94.4244 150.748 94.7628 150.494 94.876C150.183 95.0171 149.491 95.0884 148.305 95.1025C147.345 95.1166 146.498 95.0736 146.397 95.0312C146.257 94.9574 146.214 93.1325 146.214 86.6826V78.4043H148.305ZM20.4424 78.4043C22.405 78.4184 22.5618 78.4326 22.957 78.7432C23.183 78.9128 23.466 79.3085 23.5508 79.6191C23.6779 80.0291 23.7344 81.9367 23.7344 86.7676C23.7344 93.0099 23.7199 93.4068 23.4658 93.9717C23.2681 94.3953 23.0277 94.664 22.6465 94.8477C22.2086 95.0595 21.8126 95.102 20.3721 95.0879C19.4275 95.0879 18.5953 95.0452 18.5078 95.0029C18.4231 94.9605 18.3662 92.0368 18.3662 86.6689V78.4043H20.4424ZM60.3232 95.0742H58.4863V78.4043H60.3232V95.0742ZM119.585 78.4893C119.659 78.447 120.764 78.4182 124.389 78.4746L124.431 79.04C124.459 79.3788 124.402 79.6753 124.289 79.7744C124.19 79.8591 123.851 79.9587 122.976 80.0293L122.834 95.0029L122.015 95.0459C121.577 95.06 121.21 95.0311 121.21 94.9746C121.196 94.8929 121.196 91.5227 121.21 80.0996L120.856 79.958C120.659 79.8874 120.305 79.8175 120.079 79.8174C119.825 79.8173 119.628 79.7323 119.585 79.6055C119.543 79.4925 119.5 79.2099 119.486 78.998C119.472 78.7722 119.529 78.546 119.585 78.4893ZM173.295 79.8164C173.055 79.8165 172.744 79.8875 172.631 79.958C172.448 80.0723 172.419 80.9798 172.419 86.7246C172.419 92.4447 172.447 93.3923 172.631 93.5762C172.744 93.675 172.971 93.8161 173.126 93.8584C173.309 93.9145 173.55 93.8444 173.804 93.6611L174.186 93.3779C174.186 81.1672 174.157 80.2129 173.974 80.0283C173.861 79.9154 173.549 79.8165 173.295 79.8164ZM20.7959 79.958C20.4148 79.958 20.2034 80.0141 20.2031 80.127V86.8799C20.2031 90.4963 20.231 93.4634 20.2451 93.4775C20.2633 93.4925 20.4599 93.548 20.6973 93.5898C21.0076 93.6602 21.2198 93.6041 21.502 93.3926L21.8975 93.0957C21.9116 80.8945 21.883 80.438 21.6572 80.2119C21.5018 80.0567 21.1769 79.9581 20.7959 79.958ZM148.051 93.5332C148.658 93.6602 149.011 93.6178 149.223 93.5049C149.448 93.4059 149.675 93.1664 149.718 92.9688C149.774 92.7699 149.816 89.9163 149.816 86.6113C149.816 82.0779 149.774 80.5371 149.633 80.2822C149.492 80.0282 149.335 79.9717 148.757 79.9717H148.051V93.5332ZM63.9951 15.624C64.7719 15.6806 65.55 15.8365 66.1855 16.0625C66.7364 16.2604 67.5275 16.6556 67.9512 16.9521C68.3749 17.2347 69.0106 17.7857 69.3496 18.167C69.6745 18.5485 70.1128 19.213 70.3105 19.6367C70.5082 20.0605 70.7204 20.7947 70.791 21.2607C70.8758 21.7559 70.9038 29.4268 70.8896 39.9082C70.8473 55.7128 70.8188 57.7782 70.6211 58.3438C70.494 58.6968 70.1834 59.3894 69.915 59.8838C69.6467 60.3781 69.0251 61.2117 68.5166 61.7344C67.9518 62.2992 67.3015 62.808 66.8213 63.0342C66.3977 63.246 65.7894 63.4718 65.4785 63.5566C65.1675 63.6413 64.2776 63.7119 63.501 63.7119C62.6114 63.7119 61.806 63.6275 61.3115 63.4863C60.8881 63.3593 60.2807 63.1333 59.9697 62.9639C59.659 62.8085 59.1223 62.4544 58.7832 62.1719C58.4443 61.8894 57.907 61.2825 57.582 60.8164C57.2572 60.3504 56.9179 59.8132 56.833 59.6152C56.7483 59.4176 56.6218 59.1069 56.5371 58.9092C56.4665 58.7114 56.325 58.0753 56.2402 57.4961C56.1131 56.7043 56.085 51.915 56.1133 38.9902C56.1557 22.6172 56.169 21.5009 56.4092 20.8369C56.5505 20.4555 56.8046 19.8761 56.96 19.5654C57.1296 19.2546 57.5542 18.662 57.9072 18.2383C58.2604 17.8145 58.9382 17.2209 59.4043 16.9102C59.8704 16.5994 60.5346 16.2179 60.8877 16.0625C61.2409 15.9072 61.8061 15.7376 62.1592 15.667C62.5125 15.6106 63.3316 15.5958 63.9951 15.624ZM129.12 16.4717C129.235 16.4295 130.322 16.4294 131.521 16.4717C132.72 16.514 133.737 16.5846 133.782 16.627C133.825 16.6853 133.867 26.187 133.924 58.627H139.43C140.889 58.6395 141.414 58.69 141.51 58.7959C141.637 58.9236 141.68 59.5192 141.623 62.7803L141.199 62.8789C140.959 62.9495 138.303 62.9917 135.266 63.0059C131.721 63.02 129.616 62.9635 128.979 62.7236L128.951 39.6396C128.923 19.5831 128.951 16.5432 129.12 16.4717ZM97.6455 16.4434C98.309 16.4575 98.9162 16.5148 98.9873 16.5713C99.0438 16.6594 99.1154 26.1655 99.1719 58.627H102.915C106.517 58.627 106.659 58.6408 106.8 58.9092C106.884 59.0653 106.927 59.9832 106.913 60.9434C106.885 61.9026 106.814 62.7495 106.758 62.8223C106.687 62.8788 104.808 62.9639 102.59 62.9922C100.358 63.0204 97.5601 63.0055 94.2266 62.8643V16.5283L95.3291 16.4863C95.9225 16.4581 96.9677 16.4434 97.6455 16.4434ZM173.479 16.458C174.213 16.4015 175.033 16.401 175.287 16.4434C175.527 16.4858 175.768 16.6131 175.796 16.7119C175.824 16.7969 175.796 17.1646 175.711 17.5176C175.64 17.8708 175.428 18.8876 175.23 19.7773C175.047 20.6673 174.764 22.0095 174.608 22.7441C174.453 23.4787 174.227 24.5383 174.114 25.0752C173.987 25.6261 173.818 26.3891 173.747 26.7705C173.662 27.166 173.535 27.7312 173.479 28.042C173.422 28.3528 173.295 28.9321 173.225 29.3135C173.14 29.7091 172.899 30.8106 172.688 31.7852C172.49 32.7595 172.264 33.805 172.193 34.1162C172.123 34.4269 172.01 35.0063 171.925 35.3877C171.854 35.7832 171.67 36.6731 171.515 37.3652C171.373 38.0715 171.134 39.146 171.007 39.7676C170.866 40.3888 170.709 41.1509 170.639 41.4619C170.568 41.7725 170.442 42.352 170.343 42.7334C170.23 43.2137 170.159 46.5057 170.018 62.7939L168.816 62.8926C168.153 62.9349 167.122 62.9781 166.528 62.9922C165.922 63.0063 165.33 62.9777 165.215 62.9355C165.031 62.879 165.003 61.6638 165.003 53.2305C165.003 47.5099 164.946 43.3846 164.861 43.0869C164.791 42.8185 164.565 41.8297 164.367 40.8975C164.169 39.9651 163.872 38.665 163.717 38.001C163.561 37.3372 163.378 36.5462 163.308 36.2354C163.237 35.9245 163.011 34.9358 162.799 34.0459C162.601 33.1561 162.304 31.8848 162.163 31.2207C162.008 30.5568 161.824 29.765 161.753 29.4541C161.682 29.1432 161.527 28.4799 161.414 27.9717C161.301 27.4631 161.075 26.4876 160.905 25.7812C160.75 25.0893 160.553 24.2421 160.482 23.917C160.398 23.578 160.284 23.0408 160.199 22.7158C160.129 22.3766 159.903 21.374 159.705 20.4844C159.493 19.5945 159.239 18.478 159.126 18.0117C159.027 17.5456 158.914 17.0231 158.899 16.8535C158.871 16.6558 158.956 16.5288 159.14 16.4863C159.296 16.444 160.215 16.415 161.188 16.415C162.163 16.4151 163.165 16.4582 163.42 16.5146C163.674 16.5571 163.915 16.6986 163.957 16.8115C164 16.9262 164.155 17.6318 164.311 18.3652C164.466 19.0998 164.72 20.3143 164.861 21.0488C165.017 21.7833 165.299 23.1536 165.497 24.0859C165.695 25.0183 165.921 26.1069 165.991 26.4883C166.062 26.884 166.26 27.8018 166.415 28.5361C166.585 29.2706 166.796 30.3303 166.909 30.8672C167.008 31.4182 167.235 32.4637 167.404 33.1982C167.56 33.9328 167.771 34.7947 167.842 35.1055C167.955 35.515 168.026 35.6134 168.11 35.458C168.167 35.343 168.351 34.5528 168.521 33.6924C168.69 32.8449 168.887 31.884 168.958 31.5732C169.029 31.2623 169.142 30.6551 169.227 30.2314C169.311 29.8075 169.538 28.6631 169.735 27.6885C169.933 26.7138 170.159 25.6402 170.216 25.2871C170.286 24.9339 170.413 24.2977 170.498 23.874C170.583 23.4504 170.71 22.787 170.78 22.3916C170.865 22.0101 171.091 20.8936 171.289 19.9189C171.487 18.9444 171.727 17.8146 171.826 17.3906C171.911 16.981 172.024 16.6137 172.066 16.5996C172.115 16.585 172.748 16.5142 173.479 16.458ZM22.2793 16.4014C24.2852 16.3873 26.6869 16.4436 27.6191 16.5283C28.5513 16.599 29.5402 16.7547 29.8086 16.8535C30.0769 16.9524 30.5006 17.1356 30.7266 17.2627C30.9668 17.3759 31.3626 17.7299 31.6309 18.0264C31.8992 18.3372 32.2524 18.9019 32.4219 19.2832C32.5914 19.6788 32.8177 20.3997 32.9307 20.9082C33.1001 21.6719 33.1289 24.8384 33.1289 39.5557C33.1289 54.176 33.1002 57.4401 32.9307 58.2031C32.8176 58.7116 32.5629 59.5027 32.3369 59.9688C32.0968 60.4771 31.6731 61.0703 31.2637 61.4375C30.8964 61.7906 30.2318 62.229 29.0312 62.7939L23.8047 62.8359C18.9043 62.8783 18.5641 62.864 18.3945 62.624C18.2533 62.4252 18.2251 57.7343 18.2109 39.5977C18.2109 19.1561 18.2251 16.8106 18.4229 16.627C18.6075 16.4439 19.2741 16.4155 22.2793 16.4014ZM63.502 20.4844C62.7677 20.4844 62.3995 20.5549 62.0605 20.7666C61.8063 20.922 61.467 21.2614 61.3115 21.5156C61.0291 21.9676 61.0293 22.224 61.0293 39.5273C61.0293 53.1164 61.0716 57.2136 61.2129 57.7227C61.3259 58.1604 61.5519 58.5277 61.9189 58.8525C62.2296 59.1349 62.6537 59.3755 62.9785 59.418C63.2612 59.4744 63.7705 59.4744 64.1094 59.418C64.5187 59.3613 64.8442 59.1919 65.1689 58.8672C65.4372 58.5988 65.6917 58.1326 65.8047 57.7373C65.9318 57.2282 65.9736 53.1305 65.9736 39.584C65.9736 23.2274 65.9598 22.0806 65.7197 21.6143C65.5926 21.346 65.2536 20.9787 64.9854 20.7949C64.5899 20.5407 64.3065 20.4844 63.502 20.4844ZM24.7656 20.7666C23.6222 20.7666 23.4381 20.7954 23.2969 21.0352C23.1839 21.2329 23.1411 26.4034 23.1553 39.7529C23.1694 49.896 23.1979 58.302 23.2402 58.415C23.297 58.5843 23.5938 58.6269 24.7656 58.627C25.6977 58.6269 26.3763 58.5558 26.7012 58.4287C26.9694 58.3156 27.3368 58.0761 27.4922 57.8926C27.6617 57.7229 27.8875 57.3126 27.9863 57.002C28.1557 56.5347 28.1846 53.4955 28.1846 39.5557C28.1846 24.1464 28.1561 22.6321 27.9443 22.1797C27.8173 21.9114 27.5625 21.5442 27.3789 21.3887C27.2094 21.2193 26.8279 21.0208 26.5596 20.9219C26.2908 20.8372 25.4856 20.7666 24.7656 20.7666ZM96.8311 0.0107422C96.9404 0.116642 97.2791 1.03302 98.1123 3.74414L100.075 3.81445C101.487 3.87092 102.053 3.94138 102.096 4.06836C102.123 4.15342 101.643 4.57756 101.051 5.00098C100.443 5.42473 99.7365 5.94786 99.002 6.56934L99.5957 8.47656C99.9197 9.51904 100.159 10.3933 100.132 10.4258C100.1 10.4374 99.3671 9.94405 98.5078 9.32422C97.6336 8.70381 96.8285 8.19528 96.7412 8.19336C96.6659 8.19433 96.2423 8.46481 95.708 8.84375L94.583 9.66211C94.0505 10.0402 93.63 10.3101 93.5635 10.3125C93.4646 10.3125 93.3936 10.2278 93.4219 10.1289C93.4503 10.0434 93.5777 9.57786 93.7188 9.1123C93.86 8.64611 94.1 7.91107 94.2412 7.4873C94.3682 7.06387 94.4527 6.6261 94.3965 6.5127C94.34 6.3997 93.6195 5.82026 92.7861 5.21289C91.9385 4.59131 91.3023 4.05403 91.3447 3.9834C91.3905 3.92695 92.3259 3.85693 95.4277 3.74414L96.0352 1.86523C96.3742 0.848166 96.7136 0 96.8125 0L96.8311 0.0107422Z" fill="#9A9A9A"/>
</svg>
