<svg width="301" height="100" viewBox="0 0 301 100" fill="none" xmlns="http://www.w3.org/2000/svg">
<path d="M182.074 36.327C184.355 36.327 186.216 36.3651 186.22 36.4032C186.21 36.4415 186.073 36.7655 185.907 37.1181C185.74 37.4803 185.416 38.2434 185.181 38.8153C184.946 39.3874 184.475 40.5028 184.123 41.2938C183.77 42.0755 183.309 43.1524 183.093 43.6767C182.878 44.201 182.299 45.5455 181.809 46.6513C181.32 47.7637 180.919 48.7054 180.917 48.7479C180.917 48.7956 180.829 48.9962 180.731 49.2059C180.623 49.4161 180.123 50.5121 179.614 51.6366C179.104 52.7609 178.614 53.8567 178.536 54.0673C178.457 54.277 178.192 54.9251 177.947 55.497C177.702 56.0689 177.437 56.7179 177.339 56.9276C177.251 57.1375 177.026 57.6712 176.83 58.119C176.643 58.5671 176.457 59.0152 176.408 59.12C176.368 59.2252 176.183 59.6348 175.997 60.0253C175.801 60.4161 175.624 60.8267 175.594 60.9315C175.555 61.0372 175.349 61.4748 175.133 61.9032C174.918 62.3404 174.743 62.7114 174.742 62.7421C174.742 62.7564 174.714 62.828 174.67 62.9315L174.323 63.6972C174.279 63.8007 174.251 63.8723 174.251 63.8866C174.25 63.9183 174.044 64.3936 173.8 64.954C173.555 65.5255 173.262 66.1733 173.144 66.412C173.036 66.6503 172.782 67.194 172.576 67.6229C172.36 68.0614 172.193 68.4812 172.193 68.5575C172.193 68.6335 172.164 68.7188 172.125 68.7382C172.076 68.7572 171.899 69.1297 171.712 69.5683C171.536 70.0067 171.31 70.5402 171.212 70.7499C171.114 70.9595 170.948 71.3312 170.831 71.579C170.723 71.8364 170.625 72.0563 170.625 72.0849C170.624 72.1153 170.506 72.3814 170.37 72.6757C170.232 72.9808 169.938 73.6766 169.722 74.2294C169.507 74.7822 169.194 75.5544 169.007 75.9452C168.831 76.336 168.566 76.9177 168.418 77.2323C168.272 77.5466 168.096 77.937 168.027 78.0897C167.958 78.2423 167.556 79.1297 167.144 80.0448C166.723 80.9591 166.322 81.8638 166.243 82.0458C166.164 82.2268 166.056 82.4652 166.017 82.5702C165.968 82.6751 165.781 83.0856 165.595 83.4765C165.409 83.8678 164.792 85.2399 164.213 86.5263C163.635 87.8131 163.077 89.0338 162.812 89.6249H149.333L149.392 89.3866C149.412 89.2532 149.499 88.8906 149.568 88.5761C149.646 88.2615 149.843 87.7278 150.009 87.3847C150.166 87.0415 150.598 86.031 150.96 85.1444C151.333 84.2579 151.686 83.4092 151.764 83.2567C151.842 83.1138 151.881 82.9999 151.852 82.9999C151.823 82.9988 152.245 82.1313 152.793 81.0643C153.331 80.0086 153.782 79.0952 153.793 79.0438C153.803 78.9962 153.842 78.9289 153.891 78.9003C153.93 78.8717 153.979 78.786 153.989 78.7099C154.008 78.6336 154.048 78.4715 154.087 78.3475C154.127 78.2334 154.195 78.138 154.253 78.1376C154.312 78.1376 154.333 78.1091 154.313 78.0614C154.303 78.0232 154.45 77.6987 154.656 77.327C154.852 76.9552 155.244 76.231 155.508 75.7069C155.773 75.1826 156.166 74.2577 156.381 73.6571C156.597 73.0566 156.92 72.1508 157.096 71.6552C157.273 71.1597 157.43 70.5596 157.459 70.3212C157.499 69.9495 157.459 69.8443 157.214 69.5585C157.048 69.3774 156.695 68.7476 156.411 68.1757C156.136 67.6038 155.822 66.9557 155.724 66.746C155.633 66.5518 155.442 66.0963 155.274 65.6972L155.234 65.6024C155.057 65.1831 154.813 64.6206 154.685 64.3632C154.558 64.0963 154.43 63.7716 154.401 63.619C154.371 63.4762 154.312 63.3622 154.253 63.3622C154.195 63.3619 154.156 63.2854 154.156 63.1903C154.156 63.1046 154.107 62.9709 154.039 62.9042C153.97 62.8376 153.94 62.7902 153.989 62.7899C154.028 62.7899 153.95 62.5901 153.813 62.3329C153.686 62.085 153.273 61.1789 152.891 60.3114C152.519 59.444 152.048 58.3286 151.852 57.8329C151.656 57.3372 151.44 56.8703 151.381 56.8036C151.313 56.7369 151.293 56.6798 151.342 56.6893C151.382 56.6893 151.362 56.5935 151.293 56.4696C151.225 56.3553 151.186 56.2311 151.196 56.1835C151.205 56.1456 151.175 56.1171 151.117 56.1171C151.068 56.1169 151.019 56.0505 151.019 55.9745C151.019 55.8982 150.931 55.6688 150.833 55.4686C150.725 55.2777 150.411 54.6015 150.136 53.9726C149.862 53.3434 149.597 52.7425 149.548 52.6376C149.499 52.5326 149.274 52.0181 149.048 51.494C148.823 50.9697 148.509 50.264 148.352 49.9208C148.185 49.5776 147.902 48.9766 147.715 48.5858C147.529 48.1951 147.342 47.7854 147.293 47.6806C147.244 47.5747 146.744 46.3933 146.176 45.0595C145.618 43.7249 145.058 42.4086 144.96 42.1513C144.853 41.8841 144.578 41.16 144.353 40.5311C144.128 39.9021 143.647 38.7296 143.285 37.9384C142.932 37.1376 142.658 36.4604 142.687 36.4413C142.737 36.4132 145.905 36.4414 149.745 36.4794C153.597 36.527 156.851 36.6034 156.979 36.6415C157.116 36.6891 157.234 36.8226 157.263 36.9559C157.283 37.0894 157.41 37.4904 157.538 37.8622C157.665 38.2343 158.097 39.4352 158.508 40.5311C158.92 41.6274 159.46 43.0956 159.705 43.7724C159.92 44.367 160.165 45.0356 160.288 45.37L160.332 45.4882C160.43 45.7456 160.694 46.4793 160.919 47.1083C161.145 47.7374 161.361 48.3383 161.41 48.4433C161.449 48.5481 161.586 48.8914 161.713 49.2059C161.831 49.5198 161.968 49.8242 161.998 49.8729C162.037 49.9206 162.283 50.5503 162.538 51.2558C162.783 51.9612 163.115 53.0767 163.272 53.7343C163.419 54.392 163.625 55.3546 163.713 55.8788C163.811 56.4029 163.929 56.908 163.968 56.994C164.017 57.0894 164.086 57.1659 164.135 57.1659C164.175 57.1651 164.302 56.965 164.419 56.7177C164.547 56.4603 164.645 56.2312 164.645 56.1835C164.645 56.1446 164.713 55.9544 164.801 55.7548C164.889 55.5642 165.017 55.2687 165.085 55.1161C165.154 54.9636 165.331 54.5723 165.478 54.2577C165.625 53.9431 165.831 53.4479 165.939 53.162C166.047 52.8762 166.213 52.4666 166.311 52.2567C166.409 52.047 166.713 51.2269 166.988 50.4452C167.272 49.6541 167.781 48.2434 168.134 47.2997L168.26 46.9638C168.604 46.0436 169.051 44.8468 169.321 44.1532C169.615 43.362 170.115 42.0084 170.438 41.122C170.752 40.245 170.987 39.5302 170.948 39.5302C170.899 39.5395 170.938 39.4723 171.016 39.3866C171.094 39.301 171.124 39.2443 171.066 39.244C171.007 39.244 171.017 39.1965 171.085 39.1298C171.154 39.063 171.222 38.9009 171.251 38.7675C171.271 38.6348 171.301 38.521 171.301 38.5009C171.311 38.4912 171.33 38.4332 171.36 38.3856C171.389 38.338 171.418 38.2623 171.418 38.2147C171.428 38.1766 171.428 38.1188 171.418 38.0712C171.419 38.0333 171.467 38.0049 171.536 38.0048C171.594 38.0048 171.624 37.9855 171.585 37.9569C171.536 37.9283 171.595 37.747 171.703 37.5468C171.81 37.3561 171.899 37.0893 171.899 36.9559C171.899 36.8225 171.948 36.6603 172.016 36.5936C172.095 36.5174 172.565 36.4792 173.565 36.4696C174.349 36.4601 175.654 36.4228 176.458 36.3847C177.272 36.3465 179.8 36.3175 182.074 36.327ZM111.808 46.87C111.808 52.6659 111.778 60.7881 111.69 72.4657L106.191 72.5233C103.162 72.5615 100.436 72.6188 100.142 72.6474C99.8481 72.6759 99.5349 72.6655 99.4565 72.6083C99.3781 72.5606 99.2993 72.3987 99.2993 72.2558C99.2895 72.1114 99.2506 70.9777 99.2017 69.7489C99.1625 68.5192 99.1129 67.585 99.0933 67.6708C99.0736 67.7661 98.9658 67.8619 98.8481 67.8905C98.72 67.9105 98.1816 68.3671 97.6431 68.9003C97.104 69.434 96.1824 70.2254 95.5845 70.664C94.9964 71.0929 94.2216 71.5788 93.8687 71.7313C93.5158 71.8838 93.0162 72.0752 92.7417 72.161C92.4771 72.2468 91.8791 72.3799 91.4185 72.4657C90.9577 72.5515 90.4766 72.6373 90.3394 72.6659C90.2012 72.685 89.3684 72.733 88.4771 72.7616C87.448 72.7997 86.4679 72.7805 85.7817 72.7138C85.1937 72.647 84.2623 72.4939 83.7231 72.37C83.184 72.2461 82.4579 72.0369 82.105 71.913C81.7524 71.7796 81.3119 71.6175 81.1255 71.5507C80.9394 71.4745 80.7626 71.3889 80.7329 71.3602C80.7035 71.3221 80.4683 71.188 80.1938 71.0546C79.9292 70.9306 79.4392 70.6259 79.1157 70.3876C78.7922 70.1493 78.2916 69.7112 77.9976 69.4061C77.7035 69.0916 77.2631 68.5475 77.0181 68.1757C76.773 67.804 76.3803 67.1278 76.1353 66.6513C75.9 66.1746 75.6841 65.7448 75.6743 65.6972C75.654 65.6477 75.5074 65.2771 75.3413 64.8876C75.1747 64.4968 74.9297 63.791 74.7925 63.3143C74.6651 62.8378 74.5183 62.0752 74.4595 61.5985C74.4007 61.1219 74.3122 59.5392 74.2729 58.0712C74.2337 56.603 74.1851 51.1597 74.1655 36.5272L76.978 36.4511C78.5367 36.4129 81.0173 36.3847 82.4976 36.3847C83.9776 36.3847 85.5458 36.4124 86.7612 36.5077L86.7915 46.289C86.8111 51.6628 86.8403 56.17 86.8599 56.3075C86.8893 56.441 86.9281 56.9083 86.9575 57.3563C86.9869 57.8044 87.0754 58.4146 87.1538 58.7196C87.2322 59.0151 87.3985 59.4439 87.5063 59.6727C87.624 59.892 87.9379 60.2833 88.2222 60.5311C88.5162 60.798 89.0846 61.1698 89.604 61.4081C90.0941 61.6369 90.5947 61.8558 90.7319 61.8749C90.8693 61.9035 91.2221 61.9991 91.5161 62.0849C91.8788 62.1897 92.4478 62.2462 93.2319 62.2558C93.8784 62.2557 94.5443 62.2374 94.7017 62.2089C94.8682 62.1803 95.2406 62.0274 95.5347 61.8749C95.8288 61.7224 96.4664 61.236 96.9468 60.788C97.4271 60.34 97.9666 59.7492 98.1431 59.4823C98.3293 59.2059 98.5441 58.729 98.6226 58.4335C98.701 58.1284 98.8089 57.4039 98.8579 56.8319C98.9069 56.2596 98.9663 51.5128 98.9761 46.2987C98.9957 41.0844 98.9762 36.7369 98.937 36.6415C98.8782 36.489 98.9762 36.4792 100.221 36.4696C100.957 36.4601 103.613 36.422 106.123 36.3934C108.632 36.3649 110.936 36.3368 111.818 36.3368L111.808 46.87ZM36.9634 27.3856C41.5499 27.4047 45.49 27.4332 45.7368 27.4618C45.9819 27.4904 46.5117 27.5279 46.9136 27.5565C47.3154 27.5851 48.0894 27.6527 48.6284 27.7099C49.1675 27.767 50.0502 27.8999 50.5894 28.0048C51.1285 28.1192 51.6777 28.224 51.8149 28.2431C51.9522 28.2717 52.2361 28.3485 52.4517 28.4247C52.6673 28.4914 53.1086 28.6153 53.4321 28.7011C53.7556 28.7773 54.3933 29.0055 54.854 29.1962C55.3145 29.3867 55.8628 29.6064 56.0786 29.6923C56.2943 29.7685 57.069 30.1974 57.7944 30.6454C58.5198 31.0839 59.3627 31.6183 59.6567 31.828C59.9508 32.0282 60.3727 32.3427 60.5884 32.5048C60.7943 32.6764 61.1472 32.9526 61.3726 33.1337C61.5883 33.3149 62.1861 33.8776 62.6958 34.3827C63.2055 34.8784 63.7353 35.4216 63.8726 35.5741C64.01 35.7364 64.3726 36.2037 64.6763 36.6229C64.9802 37.0426 65.5781 38.0339 66.0093 38.8153C66.4503 39.6064 66.9403 40.569 67.0972 40.9599C67.254 41.3507 67.5486 42.2371 67.7446 42.914C67.9309 43.5908 68.1856 44.7542 68.3032 45.4882C68.4796 46.6034 68.5092 47.2518 68.519 49.4442C68.519 51.8369 68.4994 52.2089 68.2642 53.6864C68.1171 54.5825 67.9305 55.5835 67.8521 55.9267C67.7736 56.2699 67.5675 56.9277 67.3911 57.4042C67.2243 57.881 66.6071 59.1868 66.019 60.3114C65.4408 61.436 64.7059 62.7417 64.4019 63.2186C64.098 63.6952 63.5487 64.4578 63.186 64.9345C62.8235 65.4109 62.1963 66.0687 61.8042 66.412C61.4023 66.7552 60.9211 67.1467 60.7349 67.2802C60.5483 67.4139 60.0098 67.7951 59.5396 68.119C59.0592 68.4336 58.6471 68.7001 58.6079 68.7001C58.5586 68.7098 58.2845 68.8529 57.9907 69.0243C57.6967 69.2054 56.9617 69.5872 56.3735 69.8827C55.7854 70.1782 55.2653 70.4159 55.2261 70.4159C55.177 70.416 54.9612 70.5023 54.7358 70.5975C54.5005 70.7024 53.9416 70.9121 53.481 71.0741C53.0202 71.2362 52.2756 71.4749 51.8149 71.6083C51.3542 71.7417 50.5406 71.9419 50.0015 72.0468C49.4623 72.1516 48.8247 72.2565 48.5796 72.285C48.3346 72.3137 48.0108 72.3607 47.8442 72.3798C47.6807 72.3989 42.9588 72.4564 37.356 72.5136C31.7488 72.5612 27.1509 72.5895 27.1411 72.58C27.1313 72.5425 27.1118 67.5869 27.1118 61.5507V27.4237L27.8765 27.3944C28.2888 27.3754 32.386 27.3666 36.9634 27.3856ZM134.021 27.6327C134.031 27.6518 134.07 28.5197 134.109 29.5683C134.138 30.6169 134.167 32.3139 134.167 33.3339C134.167 34.3537 134.207 35.4688 134.305 36.4315L134.992 36.4413C135.374 36.4508 136.315 36.4225 137.099 36.3749C137.883 36.3272 139.03 36.3177 140.775 36.413L140.746 41.7128C140.736 44.6257 140.716 47.0161 140.697 47.0419C140.687 47.0514 139.403 47.0895 137.834 47.1181C136.276 47.1467 134.805 47.1749 134.57 47.1845C134.207 47.2035 134.138 47.2421 134.089 47.4423C134.06 47.5759 134.06 48.4049 134.099 49.3007C134.129 50.1968 134.158 52.0564 134.158 53.4481C134.158 54.8398 134.188 57.1082 134.217 58.4999C134.247 59.8893 134.305 61.0796 134.334 61.1405C134.374 61.2072 134.648 61.284 134.942 61.3222C135.236 61.3508 135.835 61.389 136.266 61.4081C136.698 61.4272 137.844 61.4742 138.814 61.5028C139.784 61.5314 140.599 61.5795 140.628 61.5985C140.658 61.6217 140.667 62.1638 140.658 62.8095C140.638 63.4487 140.628 65.8991 140.628 72.5136L137.57 72.4657C135.884 72.4371 133.991 72.3898 133.374 72.3612C132.756 72.3326 131.913 72.2749 131.511 72.2177C131.109 72.17 130.6 72.1037 130.384 72.0751C130.169 72.0465 129.482 71.8651 128.865 71.6649C128.247 71.4648 127.434 71.1505 127.051 70.9599C126.679 70.7787 126.061 70.4162 125.678 70.1493C125.306 69.8919 124.64 69.3393 124.199 68.9296C123.767 68.5197 123.199 67.8517 122.954 67.4608C122.699 67.07 122.473 66.6124 122.434 66.4599C122.405 66.3074 122.326 66.1454 122.267 66.1073C122.199 66.0693 122.199 66.0315 122.248 66.0409C122.306 66.0409 122.287 65.9743 122.228 65.8886C122.16 65.8124 122.121 65.6981 122.15 65.6503C122.179 65.6027 122.169 65.5548 122.13 65.5546C122.081 65.5546 122.051 65.4975 122.042 65.4403C122.032 65.3736 121.983 65.0779 121.915 64.7919C121.846 64.5059 121.728 63.8386 121.65 63.3143C121.571 62.79 121.464 61.2074 121.405 59.787C121.336 58.2045 121.317 55.3446 121.356 52.3515C121.415 48.1865 121.404 47.4619 121.277 47.2997C121.149 47.1186 121.013 47.1088 119.091 47.0897C117.974 47.0707 116.925 47.0419 116.464 46.9657V36.5751H116.905C117.15 36.5656 118.102 36.5268 119.013 36.4696C119.854 36.4261 120.663 36.375 121.14 36.3446L121.267 36.3368L121.317 27.8046L127.62 27.7479C131.08 27.7193 133.933 27.6713 133.953 27.6522C133.972 27.6334 134.011 27.6234 134.021 27.6327ZM43.2866 38.6893C41.9633 38.6989 40.4731 38.7281 39.9829 38.7567C39.483 38.7853 39.0417 38.8614 38.9927 38.9091C38.9535 38.961 38.934 44.0216 38.9634 50.1581L39.022 61.3114C40.4628 61.3591 41.8058 61.3305 42.9429 61.2733C44.0702 61.2161 45.502 61.1111 46.1294 61.0253C46.747 60.949 47.58 60.7959 47.9917 60.6815C48.3935 60.5767 49.0109 60.3765 49.3638 60.2431C49.7069 60.1001 50.2659 59.8429 50.5894 59.6522C50.9128 59.4616 51.5894 58.9277 52.0894 58.4511C52.599 57.984 53.2065 57.336 53.4517 57.0214C53.6967 56.7068 54.0797 56.0876 54.3149 55.6395C54.5404 55.1915 54.8437 54.4472 54.9907 53.9706C55.128 53.4939 55.3146 52.617 55.4028 52.0165C55.5106 51.2349 55.5397 50.5768 55.5005 49.7284C55.4711 49.0708 55.3534 48.0418 55.2456 47.4413C55.1476 46.8408 54.9414 46.0114 54.8042 45.6015C54.667 45.2011 54.3734 44.5146 54.1479 44.0761C53.9323 43.6471 53.5201 42.9796 53.2456 42.5888C52.9711 42.1979 52.4228 41.5969 52.0405 41.2538C51.6583 40.9107 50.9913 40.4253 50.5698 40.1679C50.1483 39.92 49.2958 39.5473 48.6782 39.328C48.051 39.1183 47.1294 38.8809 46.6196 38.8046C45.9727 38.7188 44.9432 38.6798 43.2866 38.6893ZM74.0376 42.0565C74.0572 42.5332 74.0572 43.3246 74.0376 43.8202C74.0278 44.3153 74.0083 43.9339 74.0083 42.9618C74.0083 41.9895 74.0278 41.5799 74.0376 42.0565Z" fill="#494949"/>
<path d="M244.199 36.3367C244.924 36.3367 245.806 36.375 246.159 36.4226C246.512 36.4703 247.149 36.5751 247.581 36.6609C248.012 36.7372 248.737 36.9283 249.198 37.0808C249.658 37.2333 250.403 37.5384 250.864 37.7576C251.324 37.9672 251.981 38.3574 252.334 38.6052C252.687 38.8626 253.237 39.3395 253.56 39.6541C253.884 39.9782 254.325 40.3697 254.541 40.5222C254.755 40.6739 254.95 40.7975 254.981 40.7986C255.01 40.7986 255.021 39.8736 255.011 38.7488C254.992 37.1664 255.011 36.6988 255.109 36.6892C255.168 36.6892 255.913 36.6702 256.746 36.6511C257.579 36.6416 260.442 36.5948 263.098 36.5662C267.339 36.5186 267.92 36.5276 267.921 36.6511C267.921 36.7274 267.882 36.7947 267.823 36.7947C267.774 36.7955 267.706 37.0237 267.676 37.2996C267.657 37.5665 267.607 39.6447 267.578 41.8943C267.548 44.144 267.509 50.5601 267.48 56.1463C267.451 61.7324 267.401 67.2236 267.362 68.3484C267.323 69.473 267.284 70.8262 267.284 71.3601C267.284 71.9798 267.323 72.38 267.412 72.4754C267.51 72.6087 267.5 72.6472 267.382 72.6853C267.304 72.7139 264.559 72.7332 261.285 72.7332C258.001 72.7332 255.295 72.7049 255.246 72.6668C255.206 72.6191 255.109 72.1415 255.031 71.5886C254.952 71.0359 254.883 70.3594 254.883 70.0925C254.883 69.8161 254.844 69.3963 254.786 69.158C254.737 68.9198 254.668 68.7293 254.638 68.7293C254.609 68.7294 254.51 68.7676 254.422 68.8152C254.324 68.8633 254.031 69.2067 253.756 69.5877C253.492 69.969 253.07 70.4551 252.825 70.6648C252.58 70.8745 252.275 71.0842 252.138 71.1414C252 71.199 251.452 71.4939 250.914 71.7986C250.375 72.1036 249.688 72.4185 249.394 72.4949C249.1 72.5712 248.462 72.7238 247.972 72.8191C247.492 72.924 246.522 73.0571 245.816 73.1238C245.081 73.1905 244.062 73.21 243.415 73.1814C242.797 73.1528 242.198 73.1048 242.09 73.0857C241.982 73.0571 241.679 73.0095 241.405 72.9715C241.14 72.9333 240.404 72.7429 239.787 72.5427C239.169 72.352 238.11 71.9325 237.434 71.6179C236.758 71.313 235.994 70.9026 235.719 70.7215C235.455 70.5403 234.964 70.1971 234.64 69.9588C234.317 69.7203 233.788 69.2434 233.464 68.9099C233.141 68.5667 232.601 67.9092 232.278 67.4422C231.945 66.9654 231.386 66.0029 231.033 65.2976C230.68 64.5922 230.278 63.6865 230.131 63.2957C229.994 62.9048 229.73 61.9991 229.543 61.2937C229.367 60.5883 229.171 59.7682 229.112 59.4822C229.053 59.196 228.945 58.5095 228.857 57.9568C228.779 57.4039 228.68 56.6317 228.641 56.241C228.602 55.8499 228.573 54.8874 228.563 54.0965C228.563 53.3148 228.592 52.3898 228.631 52.0466C228.68 51.7035 228.749 51.189 228.798 50.9031C228.847 50.6171 228.965 50.0547 229.053 49.6638C229.151 49.273 229.435 48.3673 229.7 47.6619C229.954 46.9567 230.278 46.099 230.425 45.7556C230.563 45.4125 230.778 44.9259 230.896 44.659C231.014 44.4015 231.347 43.7342 231.631 43.1814C231.925 42.6285 232.346 41.9227 232.572 41.6082C232.807 41.2936 233.366 40.6936 233.827 40.2742C234.278 39.8547 235.004 39.2821 235.425 39.0056C235.857 38.7196 236.739 38.2434 237.385 37.948C238.032 37.643 238.826 37.3095 239.15 37.1951C239.473 37.0807 240.111 36.8993 240.572 36.7849C241.033 36.6706 241.738 36.5274 242.14 36.4607C242.542 36.3845 243.474 36.3367 244.199 36.3367ZM188.979 27.405C189.018 27.3669 192.303 27.3667 196.263 27.3953C200.223 27.4334 204.664 27.4807 206.115 27.4998C207.575 27.5284 209.133 27.5669 209.594 27.5955C210.055 27.6241 210.712 27.6714 211.065 27.7C211.418 27.7286 212.035 27.7959 212.437 27.8435C212.839 27.9007 213.457 28.0048 213.81 28.0906C214.163 28.1669 214.869 28.3583 215.378 28.5203C215.888 28.6824 216.731 28.9871 217.241 29.1873C217.75 29.3875 218.456 29.7215 218.809 29.9216C219.162 30.1314 219.995 30.7416 220.671 31.2849C221.387 31.8568 222.161 32.5905 222.524 33.0291C222.867 33.4485 223.358 34.087 223.613 34.4588C223.868 34.8305 224.211 35.3834 224.368 35.698C224.534 36.0126 224.818 36.6991 225.014 37.2234C225.21 37.7477 225.436 38.5108 225.524 38.9207C225.602 39.3211 225.72 40.0933 225.779 40.6365C225.847 41.3418 225.847 42.028 225.769 43.1336C225.7 44.0106 225.554 45.1265 225.407 45.7556C225.27 46.3561 225.025 47.2139 224.868 47.6619C224.711 48.1099 224.368 48.9013 224.103 49.4256C223.848 49.9498 223.417 50.7026 223.152 51.0935C222.887 51.4844 222.407 52.1043 222.083 52.4666C221.77 52.8383 221.172 53.4103 220.77 53.7439C220.368 54.0776 219.966 54.3823 219.887 54.4109C219.809 54.4397 219.475 54.6588 219.152 54.8875C218.828 55.1163 218.123 55.5359 217.583 55.8123C217.044 56.0887 216.182 56.451 215.672 56.6131C215.163 56.7846 214.407 56.9755 214.005 57.0613C213.603 57.1376 212.633 57.2614 211.849 57.3377C211.065 57.4139 209.918 57.4995 209.3 57.5281C208.683 57.5567 207.958 57.6047 207.683 57.6238C207.418 57.6524 206.065 57.6997 204.693 57.7283C203.321 57.7569 202.164 57.8044 202.125 57.8425C202.095 57.8807 202.046 61.265 202.027 65.364C202.017 69.4185 201.988 72.6933 201.978 72.7332C201.958 72.676 201.899 72.6757 201.831 72.7234C201.76 72.7615 198.877 72.8288 189.156 72.905L189.078 70.4646C189.038 69.1205 188.979 65.2021 188.959 61.7703C188.93 58.3385 188.901 50.1023 188.891 43.4675C188.881 36.833 188.881 30.5224 188.881 29.4353C188.891 28.3604 188.93 27.4468 188.979 27.405ZM298.8 36.4705C298.987 36.4515 299.319 36.4605 299.535 36.489C299.75 36.5081 299.937 36.5371 299.947 36.5466C299.966 36.5527 299.976 39.5628 299.976 43.2293C299.976 46.8921 299.937 49.9187 299.898 49.9685C299.859 49.9971 298.525 50.0454 296.937 50.074C294.967 50.1121 293.781 50.1789 293.212 50.2742C292.752 50.36 292.114 50.5119 291.791 50.6072C291.467 50.7121 291.016 50.9222 290.791 51.0652C290.565 51.2083 290.202 51.4848 289.977 51.6658C289.752 51.847 289.379 52.2566 289.144 52.5711C288.909 52.8856 288.635 53.3625 288.527 53.6199C288.419 53.8868 288.281 54.459 288.222 54.907C288.173 55.3553 288.095 56.709 288.076 57.9099C288.046 59.1114 288.017 62.9718 288.007 66.489C288.007 70.0066 287.987 72.8185 287.958 72.7517C287.938 72.6854 287.87 72.6665 287.801 72.7234C287.733 72.7615 284.929 72.8288 281.577 72.867C276.747 72.9146 275.461 72.895 275.401 72.8093C275.362 72.7426 275.322 67.1566 275.312 60.3884C275.292 53.6202 275.254 45.4884 275.175 36.5086L276.577 36.5564C277.341 36.585 278.959 36.6225 280.174 36.6511C281.39 36.6702 283.704 36.6895 288.262 36.699L288.193 37.4812C288.154 37.92 288.086 39.0731 288.046 40.0642C287.978 41.6179 287.987 41.8464 288.115 41.8465C288.193 41.8369 288.752 41.4371 289.34 40.9509C289.938 40.4553 291.261 39.5118 292.281 38.8445C293.31 38.168 294.378 37.5197 294.663 37.3953C294.937 37.2809 295.604 37.071 296.133 36.947C296.653 36.8231 297.398 36.6703 297.771 36.6131C298.153 36.5559 298.614 36.4895 298.8 36.4705ZM248.561 47.4812C248.022 47.4908 247.316 47.5483 246.993 47.615C246.669 47.6817 246.139 47.8436 245.816 47.9675C245.492 48.0915 244.983 48.3492 244.689 48.5398C244.385 48.7305 243.934 49.0738 243.669 49.3025C243.405 49.5313 243.023 49.9502 242.817 50.2361C242.621 50.5221 242.346 50.9797 242.208 51.2371C242.071 51.504 241.886 51.9713 241.788 52.2859C241.65 52.7244 241.601 53.1819 241.601 54.1922C241.601 54.9929 241.651 55.7369 241.729 56.0515C241.798 56.3375 241.954 56.852 242.062 57.1951C242.17 57.5383 242.434 58.1585 242.65 58.5779C242.865 58.9971 243.248 59.5875 243.493 59.9021C243.748 60.2071 244.218 60.656 244.542 60.8943C244.865 61.1231 245.366 61.4278 245.669 61.5613C245.964 61.6852 246.532 61.8474 246.944 61.9236C247.346 61.9903 247.973 62.0478 248.335 62.0574C248.698 62.0574 249.346 61.9899 249.757 61.9041C250.179 61.8183 250.698 61.6661 250.914 61.5613C251.129 61.4564 251.571 61.1895 251.894 60.9607C252.218 60.7415 252.747 60.2844 253.071 59.9412C253.394 59.598 253.825 59.0444 254.021 58.7107C254.227 58.3771 254.512 57.758 254.649 57.3386C254.835 56.7667 254.913 56.2991 254.953 55.4793C254.982 54.8501 254.953 54.0776 254.884 53.6677C254.825 53.2769 254.687 52.6576 254.57 52.2859C254.462 51.9142 254.207 51.2949 254.001 50.9041C253.805 50.5133 253.462 49.9509 253.237 49.6648C253.021 49.3789 252.6 48.9591 252.316 48.7302C252.032 48.5015 251.531 48.1865 251.208 48.034C250.884 47.8815 250.375 47.6913 250.081 47.615C249.757 47.5292 249.139 47.4812 248.561 47.4812ZM202.213 38.2254C202.184 38.4089 202.194 40.5146 202.223 42.8963L202.292 47.2332C205.173 47.195 206.879 47.1383 207.928 47.0906C209.585 47.0048 209.909 46.9668 210.331 46.7761C210.605 46.6522 210.997 46.3852 211.203 46.1756C211.418 45.9754 211.692 45.5651 211.83 45.2791C211.957 44.9931 212.134 44.4787 212.212 44.1355C212.291 43.7923 212.36 43.0866 212.36 42.5623C212.36 42.0381 212.291 41.314 212.203 40.9422C212.095 40.4561 211.938 40.1222 211.625 39.7029C211.399 39.3883 211.056 39.0158 210.87 38.8728C210.683 38.7394 210.223 38.5304 209.84 38.4256C209.468 38.3207 208.674 38.1869 208.076 38.1297C207.488 38.082 205.939 38.0057 204.635 37.9675L202.272 37.8914L202.213 38.2254Z" fill="#7B7B7B"/>
<path d="M13.7624 27.4805H27.2557V72.4578H13.7624V27.4805Z" fill="#7B7B7B"/>
<path d="M1.01855 27.4805H13.7624V72.4578H1.01855V27.4805Z" fill="#B3B3B3"/>
</svg>
