<svg width="291" height="100" viewBox="0 0 291 100" fill="none" xmlns="http://www.w3.org/2000/svg">
<g clip-path="url(#clip0_391_3092)">
<path d="M275.685 46.7099L290.92 69.8351C291.224 70.7315 290.613 71.0551 289.826 71.1596C288.765 71.2998 284.951 71.3031 283.896 71.1596C282.66 70.9917 282.206 69.8396 281.563 68.9132C279.238 65.5624 270.176 49.3311 267.896 48.1834C266.844 47.6529 265.954 47.4272 264.901 48.1612L264.4 49.3356L264.345 70.2655L263.949 70.8749C263.282 71.3832 257.434 71.1318 257.235 70.8594L257.181 20.692C257.535 19.6477 259.408 19.4665 260.352 19.283C267.758 17.845 281.497 17.6993 286.149 24.8157C292.213 34.0941 285.862 44.8293 275.685 46.7099ZM264.398 44.142C272.126 44.7737 280.841 43.001 280.947 33.5947C281.061 23.4167 272.699 22.1455 264.398 23.38V44.142Z" fill="#585858"/>
<path d="M86.1201 4.54102C86.3659 4.77678 86.466 7.88625 86.4871 8.47233C87.1867 27.6396 86.407 47.027 86.367 66.1854C85.4093 76.925 79.56 87.6981 69.3263 92.0298C67.5178 92.7949 64.4391 93.9492 62.4926 93.4988C61.0089 93.1552 59.9245 91.516 60.6196 90.0313C60.9789 89.2639 66.1975 87.0319 67.4521 86.14C73.9666 81.5136 76.3067 73.9679 76.6515 66.3066C77.4334 48.9476 76.4836 30.9437 76.7527 13.4957C76.7972 10.5731 76.8829 7.62713 76.9785 4.7045L86.119 4.54102H86.1201Z" fill="#585858"/>
<path d="M154.632 17.944C159.378 17.7182 167.057 20.1815 169.424 24.6444C170.468 26.6129 170.607 29.154 168.294 30.2506C164.655 31.9744 163.257 27.1333 161.305 25.1649C155.031 18.8414 144.167 25.2494 147.817 33.836C151.313 42.059 169.268 40.7734 172.033 54.4112C175.162 69.8396 156.385 76.8325 145.055 69.1912C142.299 67.3317 136.847 60.8014 141.028 57.9366C145.255 55.0407 146.763 60.5935 148.437 63.0223C153.88 70.9216 166.691 67.3885 165.147 57.1592C163.56 46.6387 142.57 47.9943 140.402 34.322C138.953 25.1816 145.754 18.3677 154.633 17.944H154.632Z" fill="#585858"/>
<path d="M113.617 19.1724C114.584 19.0634 117.027 18.7876 117.424 19.8774L137.097 70.4385L136.432 71.0947C135.967 71.2348 130.712 71.2615 130.121 71.158C129.62 71.0702 129.43 70.84 129.125 70.4785L121.525 50.8331L106.04 50.8965L98.4707 70.6854C97.9357 71.4872 92.7893 71.257 92.5725 70.8233L92.5669 69.9214L112.525 19.3091C112.885 19.2502 113.256 19.2135 113.618 19.1735L113.617 19.1724ZM107.715 46.3746L119.887 46.1911L113.915 29.5206L107.715 46.3746Z" fill="#585858"/>
<path d="M187.956 49.0537V70.5419C186.274 71.8208 183.352 70.88 181.306 71.0457L180.752 70.8177L180.597 70.0804L180.703 20.3223C181.617 18.762 194.699 18.534 196.839 18.6952C204.881 19.3024 212.255 23.2193 212.987 32.035C214.16 46.1388 199.319 50.3192 187.958 49.0548L187.956 49.0537ZM190.618 23.0792C189.795 23.1415 188.965 23.2916 188.147 23.4017L188.013 44.3661C188.301 44.891 193.428 44.6653 194.268 44.5863C200.973 43.9524 205.154 40.7796 205.214 33.7054C205.289 24.8797 198.314 22.4942 190.618 23.0792Z" fill="#585858"/>
<path d="M226.959 24.1609V41.4632H244.56C245.294 41.8068 245.029 45.9884 244.731 46.2097C244.53 46.1974 244.125 46.3743 244.002 46.3743H226.848L226.959 66.2444L247.783 66.1521C248.224 66.33 248.356 70.1779 247.862 70.7685C247.595 71.0854 246.963 71.121 246.578 71.161C238.321 72.0073 228.5 70.5916 220.095 71.0354L219.585 70.6528C219.677 69.2371 219.507 67.8225 219.468 66.4156C219.086 52.581 218.834 36.6344 219.467 22.872C219.518 21.7488 219.487 20.5154 219.87 19.479C220.142 19.2132 223.422 19.1542 224.105 19.132C231.873 18.8862 239.688 19.321 247.46 19.1453L248.075 19.7592L247.963 23.6494L247.669 24.0253C247.375 23.9519 246.876 24.1598 246.686 24.1598H226.961L226.959 24.1609Z" fill="#585858"/>
<path d="M83.2908 2.82324C83.5355 3.0579 83.6349 6.15358 83.656 6.73633C84.3523 25.8121 83.576 45.107 83.5359 64.1738C82.5827 74.8623 76.7608 85.5838 66.576 89.8955C64.7763 90.6573 61.7117 91.8056 59.7742 91.3574C58.2985 91.0158 57.2182 89.383 57.91 87.9062C58.269 87.142 63.4618 84.9216 64.7107 84.0342C71.1938 79.4301 73.5232 71.9204 73.867 64.2959C74.6444 47.0193 73.6997 29.1017 73.9666 11.7373C74.0111 8.82809 74.0956 5.89639 74.1912 2.98828L83.2889 2.82617L83.2908 2.82324ZM151.476 16.1631C156.2 15.9386 163.842 18.3895 166.198 22.8311C167.237 24.7906 167.375 27.3202 165.073 28.4111C161.452 30.1257 160.06 25.3091 158.116 23.3496C151.873 17.0563 141.06 23.433 144.693 31.9795C148.172 40.1635 166.042 38.8837 168.794 52.457C171.907 67.8118 153.22 74.7715 141.944 67.166C139.2 65.3155 133.776 58.8164 137.936 55.9648C142.143 53.0825 143.643 58.6072 145.31 61.0264C150.728 68.889 163.478 65.3717 161.941 55.1914C160.361 44.7211 139.471 46.0695 137.313 32.4629C135.871 23.3661 142.641 16.5844 151.477 16.1641L151.476 16.1631ZM220.619 17.3457C228.35 17.1011 236.127 17.533 243.862 17.3584L244.474 17.9697L244.362 21.8418L244.069 22.2168C243.777 22.1435 243.281 22.3496 243.091 22.3496H223.46V39.5693H240.977C241.708 39.9119 241.443 44.0735 241.146 44.2939C240.947 44.2829 240.544 44.459 240.421 44.459H223.348L223.459 64.2344L244.182 64.1416C244.622 64.3184 244.754 68.1491 244.262 68.7363C243.996 69.0518 243.367 69.0871 242.985 69.126C234.768 69.969 224.992 68.5593 216.628 69.002L216.12 68.6201C216.212 67.2112 216.043 65.8034 216.004 64.4033C215.622 50.6343 215.373 34.7632 216.003 21.0664C216.054 19.9489 216.023 18.7213 216.404 17.6904C216.674 17.4257 219.94 17.3668 220.619 17.3457ZM256.692 17.4961C264.064 16.0649 277.737 15.92 282.366 23.0029C288.4 32.2364 282.081 42.9197 271.953 44.792L287.115 67.8076C287.418 68.6994 286.809 69.0216 286.027 69.125C284.97 69.264 281.176 69.2673 280.125 69.125C278.895 68.9582 278.443 67.8116 277.803 66.8896C275.488 63.5544 266.469 47.4015 264.201 46.2588C263.153 45.7305 262.267 45.5057 261.22 46.2363L260.721 47.4053L260.666 68.2354L260.272 68.8428C259.609 69.3488 253.789 69.0985 253.59 68.8271L253.535 18.8984C253.889 17.8588 255.754 17.6785 256.692 17.4961ZM177.424 18.5283C178.333 16.9759 191.352 16.7479 193.482 16.9092C201.486 17.5131 208.824 21.4122 209.554 30.1855C210.72 44.2213 195.951 48.3828 184.643 47.124H184.641V68.5098C182.966 69.7818 180.06 68.8474 178.023 69.0107L177.471 68.7832L177.316 68.0498L177.424 18.5283ZM110.656 17.3838C111.618 17.2748 114.051 17.0016 114.446 18.0859L134.024 68.4053L133.363 69.0596C132.9 69.1997 127.67 69.2254 127.082 69.123C126.584 69.0363 126.394 68.8064 126.091 68.4473L118.526 48.8945L103.114 48.958L95.5818 68.6523C95.0491 69.4508 89.9286 69.2217 89.7117 68.7891L89.7058 67.8916L109.568 17.5215C109.926 17.4637 110.296 17.4269 110.656 17.3857V17.3838ZM104.783 44.4561V44.457L116.897 44.2744L110.955 27.6826L104.783 44.4561ZM201.816 31.8496C201.891 23.0661 194.948 20.6917 187.289 21.2744L187.29 21.2734C186.47 21.3357 185.645 21.4846 184.831 21.5947L184.697 42.459C184.984 42.9816 190.085 42.7567 190.923 42.6777C197.595 42.0472 201.757 38.889 201.816 31.8496ZM277.189 31.7383C277.303 21.6081 268.98 20.3436 260.72 21.5713V42.2354C268.411 42.8637 277.085 41.0999 277.189 31.7383Z" fill="#B5B5B5"/>
<path d="M83.2908 2.82324L83.985 2.09931L83.1206 1.27034L82.4563 2.26687L83.2908 2.82324ZM83.656 6.73633L82.6537 6.77268L82.6537 6.77291L83.656 6.73633ZM83.5359 64.1738L84.535 64.2629L84.5388 64.2195L84.5389 64.1759L83.5359 64.1738ZM66.576 89.8955L66.967 90.8192L66.967 90.8192L66.576 89.8955ZM59.7742 91.3574L59.548 92.3346L59.5482 92.3346L59.7742 91.3574ZM57.91 87.9062L57.0021 87.4798L57.0017 87.4808L57.91 87.9062ZM64.7107 84.0342L64.13 83.2164L64.1298 83.2165L64.7107 84.0342ZM73.867 64.2959L74.869 64.3411L74.869 64.341L73.867 64.2959ZM73.9666 11.7373L74.9695 11.7527V11.7526L73.9666 11.7373ZM74.1912 2.98828L74.1733 1.98543L73.2201 2.00242L73.1887 2.95531L74.1912 2.98828ZM83.2889 2.82617L83.3067 3.82902L83.832 3.81966L84.1234 3.38254L83.2889 2.82617ZM151.476 16.1631L151.429 15.1612L149.164 15.2689L150.767 16.8723L151.476 16.1631ZM166.198 22.8311L167.084 22.3613L167.084 22.3611L166.198 22.8311ZM165.073 28.4111L165.502 29.3177L165.503 29.3175L165.073 28.4111ZM158.116 23.3496L157.404 24.056L157.404 24.0561L158.116 23.3496ZM144.693 31.9795L145.616 31.5871L145.616 31.5871L144.693 31.9795ZM168.794 52.457L167.811 52.6563V52.6563L168.794 52.457ZM141.944 67.166L142.505 66.3345L142.505 66.3344L141.944 67.166ZM137.936 55.9648L137.369 55.1375L137.369 55.1375L137.936 55.9648ZM145.31 61.0264L146.136 60.4573L146.136 60.4572L145.31 61.0264ZM161.941 55.1914L160.949 55.3411V55.3412L161.941 55.1914ZM137.313 32.4629L136.323 32.6199L136.323 32.62L137.313 32.4629ZM151.477 16.1641L151.525 17.1659L153.79 17.0582L152.187 15.4548L151.477 16.1641ZM220.619 17.3457L220.65 18.3482L220.651 18.3482L220.619 17.3457ZM243.862 17.3584L244.571 16.6486L244.268 16.346L243.839 16.3556L243.862 17.3584ZM244.474 17.9697L245.477 17.9988L245.49 17.5659L245.183 17.2599L244.474 17.9697ZM244.362 21.8418L245.152 22.4593L245.355 22.1999L245.365 21.8709L244.362 21.8418ZM244.069 22.2168L243.825 23.1897L244.458 23.3483L244.86 22.8343L244.069 22.2168ZM243.091 22.3496V23.3526H243.091L243.091 22.3496ZM223.46 22.3496V21.3466H222.457V22.3496H223.46ZM223.46 39.5693H222.457V40.5723H223.46V39.5693ZM240.977 39.5693L241.403 38.6611L241.201 38.5663H240.977V39.5693ZM241.146 44.2939L241.091 45.2954L241.453 45.3156L241.744 45.0994L241.146 44.2939ZM223.348 44.459V43.456H222.34L222.345 44.4646L223.348 44.459ZM223.459 64.2344L222.456 64.24L222.461 65.2419L223.463 65.2374L223.459 64.2344ZM244.182 64.1416L244.557 63.2111L244.375 63.1377L244.178 63.1386L244.182 64.1416ZM244.262 68.7363L245.029 69.3827L245.03 69.3811L244.262 68.7363ZM242.985 69.126L242.883 68.1281L242.883 68.1282L242.985 69.126ZM216.628 69.002L216.025 69.8036L216.316 70.0228L216.681 70.0036L216.628 69.002ZM216.12 68.6201L215.119 68.5546L215.084 69.0958L215.517 69.4218L216.12 68.6201ZM216.004 64.4033L215.001 64.4311L215.001 64.4312L216.004 64.4033ZM216.003 21.0664L217.005 21.1125V21.1123L216.003 21.0664ZM216.404 17.6904L215.702 16.9738L215.541 17.1313L215.463 17.3424L216.404 17.6904ZM256.692 17.4961L256.501 16.5115L256.501 16.5115L256.692 17.4961ZM282.366 23.0029L283.206 22.4542V22.4542L282.366 23.0029ZM271.953 44.792L271.771 43.8057L270.283 44.0806L271.115 45.3438L271.953 44.792ZM287.115 67.8076L288.065 67.4845L288.023 67.363L287.953 67.2558L287.115 67.8076ZM286.027 69.125L286.158 70.1195L286.159 70.1193L286.027 69.125ZM280.125 69.125L279.99 70.1189L279.99 70.1189L280.125 69.125ZM277.803 66.8896L276.979 67.4615L276.979 67.462L277.803 66.8896ZM264.201 46.2588L263.749 47.1544L263.75 47.1545L264.201 46.2588ZM261.22 46.2363L260.646 45.4136L260.41 45.5783L260.297 45.8432L261.22 46.2363ZM260.721 47.4053L259.799 47.0121L259.719 47.1992L259.718 47.4026L260.721 47.4053ZM260.666 68.2354L261.508 68.7807L261.668 68.5331L261.669 68.238L260.666 68.2354ZM260.272 68.8428L260.881 69.6401L261.019 69.5344L261.114 69.3882L260.272 68.8428ZM253.59 68.8271L252.587 68.8282L252.587 69.1561L252.781 69.4205L253.59 68.8271ZM253.535 18.8984L252.585 18.5752L252.532 18.7329L252.532 18.8995L253.535 18.8984ZM177.424 18.5283L176.558 18.0214L176.421 18.2552L176.421 18.5261L177.424 18.5283ZM193.482 16.9092L193.406 17.9093L193.407 17.9093L193.482 16.9092ZM209.554 30.1855L210.553 30.1025V30.1024L209.554 30.1855ZM184.643 47.124L184.754 46.1272L184.699 46.121H184.643V47.124ZM184.641 47.124V46.121H183.638V47.124H184.641ZM184.641 68.5098L185.248 69.3085L185.644 69.0075V68.5098H184.641ZM178.023 69.0107L177.641 69.938L177.863 70.0298L178.103 70.0105L178.023 69.0107ZM177.471 68.7832L176.49 68.991L176.6 69.5087L177.089 69.7105L177.471 68.7832ZM177.316 68.0498L176.313 68.0476L176.313 68.1537L176.335 68.2576L177.316 68.0498ZM110.656 17.3838L110.543 16.3872L109.653 16.488V17.3838H110.656ZM114.446 18.0859L113.504 18.4291L113.507 18.4394L113.511 18.4496L114.446 18.0859ZM134.024 68.4053L134.73 69.1182L135.198 68.6551L134.959 68.0416L134.024 68.4053ZM133.363 69.0596L133.654 70.0195L133.892 69.9474L134.069 69.7725L133.363 69.0596ZM127.082 69.123L126.91 70.1112L126.91 70.1112L127.082 69.123ZM126.091 68.4473L125.155 68.8092L125.216 68.9662L125.325 69.0948L126.091 68.4473ZM118.526 48.8945L119.462 48.5326L119.212 47.8887L118.522 47.8915L118.526 48.8945ZM103.114 48.958L103.11 47.955L102.423 47.9578L102.177 48.5997L103.114 48.958ZM95.5818 68.6523L96.4162 69.209L96.4785 69.1156L96.5187 69.0106L95.5818 68.6523ZM89.7117 68.7891L88.7087 68.7956L88.7102 69.0295L88.8151 69.2386L89.7117 68.7891ZM89.7058 67.8916L88.7728 67.5237L88.7016 67.7041L88.7029 67.8981L89.7058 67.8916ZM109.568 17.5215L109.408 16.5313L108.845 16.6223L108.635 17.1535L109.568 17.5215ZM110.656 17.3857L110.77 18.3823L111.659 18.2808V17.3857H110.656ZM104.783 44.4561L103.842 44.1097L103.78 44.2774V44.4561H104.783ZM104.783 44.457H103.78V45.4753L104.798 45.4599L104.783 44.457ZM116.897 44.2744L116.912 45.2773L118.314 45.2562L117.842 43.9362L116.897 44.2744ZM110.955 27.6826L111.899 27.3444L110.968 24.7434L110.014 27.3363L110.955 27.6826ZM201.816 31.8496L200.813 31.8411V31.8412L201.816 31.8496ZM187.289 21.2744L186.58 20.5652L184.665 22.48L187.365 22.2745L187.289 21.2744ZM187.29 21.2734L187.999 21.9827L189.914 20.0681L187.214 20.2733L187.29 21.2734ZM184.831 21.5947L184.696 20.6008L183.833 20.7175L183.828 21.5883L184.831 21.5947ZM184.697 42.459L183.694 42.4526L183.692 42.7136L183.818 42.9423L184.697 42.459ZM190.923 42.6777L191.017 43.6763L191.017 43.6763L190.923 42.6777ZM277.189 31.7383L276.186 31.727V31.7271L277.189 31.7383ZM260.72 21.5713L260.572 20.5792L259.717 20.7063V21.5713H260.72ZM260.72 42.2354H259.717V43.1598L260.638 43.235L260.72 42.2354ZM83.2908 2.82324L82.5966 3.54717C82.5135 3.46747 82.4661 3.39208 82.4447 3.35495C82.421 3.31401 82.408 3.28268 82.4028 3.26954C82.393 3.24481 82.3937 3.24056 82.401 3.27062C82.415 3.32871 82.4336 3.43117 82.4538 3.58353C82.4935 3.88296 82.5279 4.28423 82.5564 4.7156C82.6133 5.57365 82.643 6.47699 82.6537 6.77268L83.656 6.73633L84.6584 6.69998C84.648 6.41292 84.6174 5.47704 84.5581 4.5829C84.5286 4.13818 84.4909 3.68511 84.4424 3.31988C84.4186 3.13992 84.3891 2.95748 84.3508 2.79908C84.3319 2.7209 84.3054 2.62551 84.2672 2.52937C84.24 2.46086 84.1611 2.26815 83.985 2.09931L83.2908 2.82324ZM83.656 6.73633L82.6537 6.77291C83.3491 25.8261 82.5731 45.0502 82.5329 64.1717L83.5359 64.1738L84.5389 64.1759C84.5789 45.1637 85.3554 25.7981 84.6584 6.69974L83.656 6.73633ZM83.5359 64.1738L82.5369 64.0847C81.6062 74.5207 75.9327 84.8452 66.1849 88.9719L66.576 89.8955L66.967 90.8192C77.5889 86.3225 83.5593 75.2039 84.535 64.2629L83.5359 64.1738ZM66.576 89.8955L66.185 88.9718C65.3012 89.3459 64.1358 89.8022 62.9703 90.1105C61.7708 90.4279 60.7198 90.5467 60.0003 90.3802L59.7742 91.3574L59.5482 92.3346C60.7661 92.6164 62.2162 92.3851 63.4833 92.0499C64.7844 91.7056 66.0511 91.2069 66.967 90.8192L66.576 89.8955ZM59.7742 91.3574L60.0004 90.3802C58.9924 90.1469 58.4606 89.0953 58.8182 88.3317L57.91 87.9062L57.0017 87.4808C55.9758 89.6707 57.6045 91.8847 59.548 92.3346L59.7742 91.3574ZM57.91 87.9062L58.8178 88.3327C58.7698 88.435 58.7204 88.4765 58.7434 88.4534C58.7574 88.4393 58.7929 88.407 58.8601 88.356C58.9947 88.254 59.1946 88.1234 59.4592 87.9668C59.9856 87.6553 60.6819 87.2911 61.4309 86.9107C62.164 86.5382 62.9628 86.1427 63.6318 85.7973C64.2884 85.4584 64.9117 85.1218 65.2917 84.8518L64.7107 84.0342L64.1298 83.2165C63.8853 83.3903 63.3912 83.664 62.7116 84.0148C62.0445 84.3592 61.2884 84.733 60.5224 85.1222C59.7721 85.5033 59.0248 85.8929 58.4376 86.2404C58.1454 86.4133 57.871 86.5885 57.6479 86.7577C57.5364 86.8423 57.4223 86.9369 57.3201 87.0398C57.227 87.1335 57.095 87.282 57.0021 87.4798L57.91 87.9062ZM64.7107 84.0342L65.2915 84.852C72.1354 79.9916 74.5187 72.1101 74.869 64.3411L73.867 64.2959L72.865 64.2507C72.5278 71.7306 70.2522 78.8686 64.13 83.2164L64.7107 84.0342ZM73.867 64.2959L74.869 64.341C75.2591 55.672 75.2168 46.8489 75.1112 38.0375C75.0054 29.2176 74.8363 20.4171 74.9695 11.7527L73.9666 11.7373L72.9637 11.7219C72.83 20.4219 72.9998 29.2624 73.1053 38.0616C73.2109 46.8692 73.2523 55.6432 72.865 64.2508L73.867 64.2959ZM73.9666 11.7373L74.9695 11.7526C75.0138 8.85205 75.0981 5.92707 75.1937 3.02125L74.1912 2.98828L73.1887 2.95531C73.093 5.8657 73.0083 8.80413 72.9637 11.722L73.9666 11.7373ZM74.1912 2.98828L74.2091 3.99113L83.3067 3.82902L83.2889 2.82617L83.271 1.82332L74.1733 1.98543L74.1912 2.98828ZM83.2889 2.82617L84.1234 3.38254L84.1254 3.37961L83.2908 2.82324L82.4563 2.26687L82.4543 2.2698L83.2889 2.82617ZM151.476 16.1631L151.524 17.165C153.718 17.0607 156.664 17.5823 159.346 18.6761C162.051 19.7789 164.295 21.3832 165.312 23.301L166.198 22.8311L167.084 22.3611C165.746 19.8373 162.99 17.9954 160.104 16.8185C157.195 15.6326 153.958 15.041 151.429 15.1612L151.476 16.1631ZM166.198 22.8311L165.312 23.3009C165.767 24.1593 165.984 25.0738 165.893 25.8257C165.808 26.5199 165.464 27.1159 164.644 27.5047L165.073 28.4111L165.503 29.3175C166.984 28.6154 167.722 27.4011 167.884 26.0679C168.039 24.7924 167.668 23.4623 167.084 22.3613L166.198 22.8311ZM165.073 28.4111L164.644 27.5046C163.946 27.835 163.457 27.8143 163.071 27.6754C162.641 27.5208 162.205 27.1709 161.732 26.6107C161.258 26.0503 160.826 25.3788 160.352 24.6572C159.901 23.9707 159.397 23.2162 158.828 22.6432L158.116 23.3496L157.404 24.0561C157.808 24.4628 158.206 25.0451 158.676 25.7593C159.122 26.4384 159.63 27.2312 160.2 27.9056C160.77 28.5801 161.482 29.2354 162.392 29.563C163.346 29.9062 164.389 29.8445 165.502 29.3177L165.073 28.4111ZM158.116 23.3496L158.828 22.6432C155.338 19.1247 150.549 19.1564 147.173 21.2468C143.771 23.3531 141.738 27.5921 143.77 32.3719L144.693 31.9795L145.616 31.5871C144.015 27.8205 145.572 24.5978 148.229 22.9524C150.912 21.2912 154.651 21.2812 157.404 24.056L158.116 23.3496ZM144.693 31.9795L143.77 32.3719C144.769 34.7211 146.769 36.3142 149.048 37.597C151.302 38.8667 154.053 39.9449 156.599 41.1094C161.812 43.4941 166.539 46.3855 167.811 52.6563L168.794 52.457L169.777 52.2577C168.296 44.9553 162.713 41.6999 157.433 39.2852C154.733 38.0499 152.192 37.0653 150.032 35.849C147.895 34.6458 146.357 33.3299 145.616 31.5871L144.693 31.9795ZM168.794 52.457L167.811 52.6563C169.262 59.8141 165.676 64.9737 160.334 67.5159C154.933 70.086 147.823 69.9212 142.505 66.3345L141.944 67.166L141.383 67.9976C147.342 72.0163 155.213 72.1743 161.196 69.3273C167.237 66.4524 171.439 60.4547 169.777 52.2577L168.794 52.457ZM141.944 67.166L142.505 66.3344C141.265 65.4983 139.336 63.533 138.236 61.4691C137.687 60.4391 137.398 59.4825 137.424 58.6903C137.448 57.9591 137.736 57.3183 138.503 56.7922L137.936 55.9648L137.369 55.1375C136.057 56.0372 135.463 57.2781 135.419 58.6254C135.377 59.9116 135.836 61.23 136.466 62.4125C137.724 64.7737 139.879 66.9833 141.383 67.9976L141.944 67.166ZM137.936 55.9648L138.503 56.7922C139.409 56.1715 140.019 56.1012 140.433 56.1834C140.874 56.2707 141.323 56.5747 141.807 57.1519C142.29 57.7285 142.724 58.4756 143.165 59.2877C143.582 60.0584 144.028 60.9328 144.484 61.5955L145.31 61.0264L146.136 60.4572C145.759 59.9103 145.392 59.187 144.928 58.3315C144.487 57.5174 143.97 56.6099 143.344 55.8632C142.719 55.1171 141.9 54.4292 140.824 54.2157C139.721 53.997 138.567 54.317 137.369 55.1375L137.936 55.9648ZM145.31 61.0264L144.484 61.5955C147.463 65.9184 152.478 67.1231 156.538 65.8307C160.647 64.5227 163.78 60.6526 162.933 55.0417L161.941 55.1914L160.949 55.3412C161.639 59.9104 159.166 62.8892 155.93 63.9192C152.644 64.965 148.575 63.9969 146.136 60.4573L145.31 61.0264ZM161.941 55.1914L162.933 55.0417C162.481 52.0508 160.643 49.9604 158.307 48.3161C156.001 46.6932 153.067 45.409 150.27 44.0954C144.52 41.3945 139.29 38.5226 138.304 32.3058L137.313 32.4629L136.323 32.62C137.495 40.0098 143.788 43.267 149.417 45.9111C152.31 47.27 155.029 48.4622 157.152 49.9565C159.245 51.4294 160.611 53.0969 160.949 55.3411L161.941 55.1914ZM137.313 32.4629L138.304 32.3058C136.972 23.9027 143.175 17.5632 151.525 17.1659L151.477 16.1641L151.43 15.1622C142.106 15.6057 134.77 22.8295 136.323 32.6199L137.313 32.4629ZM151.477 16.1641L152.187 15.4548L152.186 15.4538L151.476 16.1631L150.767 16.8723L150.768 16.8733L151.477 16.1641ZM220.619 17.3457L220.651 18.3482C224.49 18.2267 228.345 18.2731 232.224 18.3287C236.097 18.3842 239.995 18.4489 243.885 18.3612L243.862 17.3584L243.839 16.3556C239.994 16.4424 236.136 16.3785 232.253 16.3229C228.377 16.2673 224.479 16.22 220.587 16.3432L220.619 17.3457ZM243.862 17.3584L243.153 18.0682L243.766 18.6795L244.474 17.9697L245.183 17.2599L244.571 16.6486L243.862 17.3584ZM244.474 17.9697L243.472 17.9406L243.36 21.8127L244.362 21.8418L245.365 21.8709L245.477 17.9988L244.474 17.9697ZM244.362 21.8418L243.572 21.2243L243.279 21.5993L244.069 22.2168L244.86 22.8343L245.152 22.4593L244.362 21.8418ZM244.069 22.2168L244.313 21.2439C244.081 21.1857 243.865 21.1941 243.72 21.2085C243.567 21.2237 243.424 21.2535 243.317 21.2782C243.261 21.2909 243.209 21.3039 243.165 21.3147C243.118 21.3263 243.085 21.3347 243.054 21.3418C242.965 21.3627 243.006 21.3466 243.09 21.3466L243.091 22.3496L243.091 23.3526C243.195 23.3526 243.287 23.3393 243.343 23.3297C243.405 23.3192 243.464 23.3062 243.511 23.2952C243.558 23.2842 243.608 23.2717 243.648 23.2617C243.692 23.251 243.729 23.2417 243.766 23.2332C243.843 23.2155 243.891 23.2075 243.919 23.2047C243.955 23.2011 243.911 23.2112 243.825 23.1897L244.069 22.2168ZM243.091 22.3496V21.3466H223.46V22.3496V23.3526H243.091V22.3496ZM223.46 22.3496H222.457V39.5693H223.46H224.463V22.3496H223.46ZM223.46 39.5693V40.5723H240.977V39.5693V38.5663H223.46V39.5693ZM240.977 39.5693L240.552 40.4775C240.298 40.3588 240.248 40.1704 240.283 40.252C240.301 40.2966 240.334 40.4017 240.364 40.5852C240.424 40.9453 240.45 41.4393 240.444 41.9666C240.439 42.488 240.403 42.9999 240.353 43.3822C240.328 43.5764 240.302 43.7148 240.282 43.7961C240.271 43.8388 240.268 43.8404 240.278 43.8171C240.283 43.8051 240.299 43.7688 240.329 43.7211C240.355 43.6803 240.423 43.5814 240.549 43.4885L241.146 44.2939L241.744 45.0994C241.995 44.9133 242.099 44.6613 242.125 44.5995C242.171 44.4909 242.203 44.3801 242.227 44.2873C242.275 44.0975 242.313 43.8719 242.343 43.6396C242.404 43.169 242.444 42.5776 242.45 41.9883C242.456 41.4048 242.43 40.7803 242.343 40.2569C242.3 39.9986 242.236 39.7207 242.131 39.4713C242.041 39.2588 241.839 38.8655 241.403 38.6611L240.977 39.5693ZM241.146 44.2939L241.202 43.2925C241.013 43.282 240.842 43.3152 240.75 43.3356C240.643 43.3593 240.54 43.3896 240.465 43.4122C240.373 43.4399 240.333 43.453 240.287 43.4659C240.268 43.4712 240.267 43.4711 240.276 43.4691C240.282 43.468 240.296 43.4653 240.316 43.4626C240.335 43.4601 240.372 43.456 240.421 43.456V44.459V45.462C240.538 45.462 240.636 45.4433 240.682 45.4337C240.738 45.4222 240.79 45.4084 240.829 45.3974C240.9 45.3776 240.996 45.3474 241.045 45.3324C241.111 45.3124 241.154 45.3008 241.183 45.2945C241.225 45.285 241.18 45.3004 241.091 45.2954L241.146 44.2939ZM240.421 44.459V43.456H223.348V44.459V45.462H240.421V44.459ZM223.348 44.459L222.345 44.4646L222.456 64.24L223.459 64.2344L224.462 64.2288L224.351 44.4534L223.348 44.459ZM223.459 64.2344L223.463 65.2374L244.187 65.1446L244.182 64.1416L244.178 63.1386L223.454 63.2314L223.459 64.2344ZM244.182 64.1416L243.808 65.0721C243.562 64.9729 243.447 64.8037 243.424 64.7678C243.39 64.7161 243.382 64.6873 243.39 64.7088C243.404 64.7494 243.432 64.8482 243.46 65.0188C243.517 65.3504 243.556 65.8137 243.569 66.3103C243.581 66.8054 243.566 67.2969 243.522 67.6834C243.5 67.878 243.474 68.024 243.448 68.121C243.414 68.25 243.407 68.1944 243.493 68.0916L244.262 68.7363L245.03 69.3811C245.239 69.1314 245.336 68.8277 245.387 68.6341C245.447 68.4086 245.487 68.1576 245.516 67.9077C245.572 67.4053 245.588 66.8179 245.574 66.2599C245.56 65.7033 245.515 65.1391 245.438 64.6843C245.401 64.4618 245.349 64.2277 245.275 64.0226C245.238 63.9213 245.183 63.7915 245.099 63.664C245.025 63.5523 244.858 63.3324 244.557 63.2111L244.182 64.1416ZM244.262 68.7363L243.495 68.09C243.547 68.0277 243.59 68.0111 243.576 68.0177C243.562 68.0242 243.523 68.0393 243.448 68.0559C243.285 68.0924 243.115 68.1046 242.883 68.1281L242.985 69.126L243.087 70.1238C243.237 70.1085 243.572 70.0835 243.885 70.0138C244.172 69.9498 244.674 69.8032 245.029 69.3827L244.262 68.7363ZM242.985 69.126L242.883 68.1282C238.856 68.5413 234.427 68.4039 229.904 68.212C225.41 68.0212 220.816 67.7759 216.575 68.0003L216.628 69.002L216.681 70.0036C220.803 69.7854 225.28 70.0235 229.819 70.2162C234.33 70.4077 238.897 70.5537 243.088 70.1237L242.985 69.126ZM216.628 69.002L217.231 68.2003L216.723 67.8185L216.12 68.6201L215.517 69.4218L216.025 69.8036L216.628 69.002ZM216.12 68.6201L217.121 68.6857C217.217 67.2221 217.042 65.6442 217.006 64.3754L216.004 64.4033L215.001 64.4312C215.044 65.9625 215.208 67.2003 215.119 68.5546L216.12 68.6201ZM216.004 64.4033L217.006 64.3755C216.625 50.61 216.377 34.77 217.005 21.1125L216.003 21.0664L215.001 21.0204C214.369 34.7563 214.619 50.6585 215.001 64.4311L216.004 64.4033ZM216.003 21.0664L217.005 21.1123C217.061 19.8742 217.034 18.8791 217.345 18.0384L216.404 17.6904L215.463 17.3424C215.012 18.5634 215.046 20.0236 215.001 21.0205L216.003 21.0664ZM216.404 17.6904L217.106 18.407C217.031 18.4808 216.961 18.5229 216.926 18.5423C216.888 18.5635 216.86 18.575 216.849 18.5793C216.828 18.5874 216.828 18.5854 216.861 18.5776C216.927 18.5624 217.039 18.5434 217.202 18.5236C217.523 18.4846 217.952 18.4532 218.412 18.4283C219.332 18.3787 220.296 18.3593 220.65 18.3482L220.619 17.3457L220.588 16.3432C220.264 16.3533 219.255 16.3739 218.304 16.4252C217.83 16.4508 217.349 16.485 216.96 16.5322C216.769 16.5554 216.576 16.5846 216.409 16.6233C216.326 16.6425 216.227 16.669 216.128 16.707C216.054 16.7358 215.869 16.8109 215.702 16.9738L216.404 17.6904ZM256.692 17.4961L256.883 18.4807C260.483 17.7818 265.632 17.3978 270.422 18.0505C275.259 18.7097 279.458 20.3863 281.526 23.5517L282.366 23.0029L283.206 22.4542C280.645 18.5366 275.693 16.7442 270.693 16.0629C265.646 15.3751 260.273 15.7791 256.501 16.5115L256.692 17.4961ZM282.366 23.0029L281.526 23.5516C284.338 27.8539 284.262 32.4471 282.329 36.1985C280.384 39.9732 276.539 42.9242 271.771 43.8057L271.953 44.792L272.135 45.7783C277.495 44.7875 281.874 41.4607 284.112 37.1173C286.362 32.7505 286.428 27.3854 283.206 22.4542L282.366 23.0029ZM271.953 44.792L271.115 45.3438L286.277 68.3594L287.115 67.8076L287.953 67.2558L272.791 44.2402L271.953 44.792ZM287.115 67.8076L286.165 68.1307C286.204 68.244 286.186 68.2582 286.194 68.2073C286.199 68.1808 286.209 68.1474 286.227 68.113C286.246 68.0791 286.266 68.0551 286.281 68.0405C286.307 68.0154 286.305 68.0302 286.229 68.0577C286.155 68.0843 286.045 68.1108 285.896 68.1307L286.027 69.125L286.159 70.1193C286.597 70.0614 287.221 69.9222 287.675 69.4833C287.926 69.2412 288.107 68.9236 288.172 68.5429C288.234 68.1776 288.178 67.8171 288.065 67.4845L287.115 67.8076ZM286.027 69.125L285.896 68.1305C285.443 68.1902 284.295 68.2271 283.073 68.2275C281.851 68.2279 280.707 68.1916 280.259 68.1311L280.125 69.125L279.99 70.1189C280.594 70.2007 281.873 70.2339 283.074 70.2335C284.277 70.2331 285.554 70.1988 286.158 70.1195L286.027 69.125ZM280.125 69.125L280.26 68.1311C279.979 68.093 279.767 67.9576 279.518 67.6544C279.386 67.4935 279.259 67.3025 279.11 67.0683C278.972 66.8501 278.803 66.5715 278.626 66.3173L277.803 66.8896L276.979 67.462C277.123 67.6687 277.25 67.8792 277.415 68.1406C277.57 68.3858 277.752 68.6647 277.967 68.9266C278.412 69.4689 279.041 69.9902 279.99 70.1189L280.125 69.125ZM277.803 66.8896L278.627 66.3178C277.489 64.679 274.699 59.8778 271.839 55.2266C270.423 52.9243 268.999 50.6741 267.781 48.9229C267.173 48.0486 266.606 47.2827 266.11 46.6916C265.862 46.3961 265.621 46.132 265.393 45.9154C265.176 45.709 264.924 45.5001 264.652 45.363L264.201 46.2588L263.75 47.1545C263.748 47.1538 263.772 47.166 263.822 47.2048C263.871 47.2423 263.934 47.2958 264.011 47.3689C264.165 47.5161 264.353 47.7195 264.574 47.9816C265.014 48.5055 265.541 49.2151 266.134 50.0679C267.318 51.771 268.718 53.9818 270.13 56.2774C272.925 60.8222 275.801 65.765 276.979 67.4615L277.803 66.8896ZM264.201 46.2588L264.653 45.3632C264.096 45.0824 263.465 44.8187 262.774 44.7745C262.041 44.7276 261.336 44.9322 260.646 45.4136L261.22 46.2363L261.793 47.059C262.151 46.8098 262.412 46.7615 262.646 46.7764C262.923 46.7941 263.259 46.9069 263.749 47.1544L264.201 46.2588ZM261.22 46.2363L260.297 45.8432L259.799 47.0121L260.721 47.4053L261.644 47.7984L262.142 46.6295L261.22 46.2363ZM260.721 47.4053L259.718 47.4026L259.663 68.2327L260.666 68.2354L261.669 68.238L261.724 47.408L260.721 47.4053ZM260.666 68.2354L259.824 67.69L259.43 68.2974L260.272 68.8428L261.114 69.3882L261.508 68.7807L260.666 68.2354ZM260.272 68.8428L259.664 68.0454C259.753 67.9775 259.814 67.964 259.778 67.9757C259.756 67.983 259.706 67.9964 259.621 68.0121C259.452 68.0433 259.211 68.0707 258.909 68.0912C258.307 68.1319 257.544 68.14 256.778 68.1237C256.015 68.1074 255.272 68.0675 254.716 68.0164C254.436 67.9906 254.221 67.9636 254.082 67.9389C254.009 67.926 253.983 67.9181 253.987 67.9194C253.987 67.9196 254.022 67.9299 254.072 67.955C254.097 67.9673 254.26 68.0459 254.398 68.2338L253.59 68.8271L252.781 69.4205C252.931 69.6253 253.118 69.7209 253.177 69.75C253.261 69.7919 253.339 69.8189 253.394 69.8358C253.505 69.8703 253.625 69.8952 253.732 69.9141C253.951 69.953 254.229 69.9861 254.533 70.014C255.145 70.0704 255.936 70.1123 256.736 70.1292C257.533 70.1462 258.361 70.1389 259.044 70.0927C259.383 70.0697 259.708 70.0358 259.985 69.9849C260.122 69.9595 260.266 69.9267 260.402 69.8822C260.525 69.8421 260.709 69.7713 260.881 69.6401L260.272 68.8428ZM253.59 68.8271L254.593 68.826L254.538 18.8973L253.535 18.8984L252.532 18.8995L252.587 68.8282L253.59 68.8271ZM253.535 18.8984L254.484 19.2217C254.491 19.2015 254.595 19.0219 255.196 18.8324C255.751 18.6573 256.324 18.5894 256.883 18.4807L256.692 17.4961L256.501 16.5115C256.122 16.5852 255.293 16.6986 254.593 16.9192C253.939 17.1254 252.932 17.5558 252.585 18.5752L253.535 18.8984ZM177.424 18.5283L178.289 19.0353C178.224 19.1468 178.165 19.1612 178.244 19.1141C178.31 19.0747 178.428 19.0189 178.615 18.9545C178.987 18.8257 179.518 18.701 180.187 18.5863C181.516 18.3581 183.254 18.1917 185.059 18.0771C188.68 17.8471 192.412 17.834 193.406 17.9093L193.482 16.9092L193.558 15.909C192.423 15.8231 188.58 15.8434 184.932 16.0751C183.101 16.1914 181.281 16.3631 179.847 16.6092C179.134 16.7316 178.482 16.8781 177.96 17.0584C177.699 17.1484 177.442 17.2565 177.217 17.3909C177.004 17.5177 176.737 17.7158 176.558 18.0214L177.424 18.5283ZM193.482 16.9092L193.407 17.9093C197.285 18.202 200.922 19.2891 203.652 21.2925C206.353 23.2739 208.214 26.1815 208.554 30.2687L209.554 30.1855L210.553 30.1024C210.163 25.4163 207.991 21.9876 204.839 19.6752C201.717 17.3847 197.683 16.2203 193.558 15.909L193.482 16.9092ZM209.554 30.1855L208.554 30.2686C208.83 33.5899 208.162 36.2695 206.882 38.417C205.598 40.5723 203.66 42.2528 201.306 43.5046C196.574 46.0206 190.273 46.7414 184.754 46.1272L184.643 47.124L184.532 48.1209C190.322 48.7654 197.059 48.0348 202.247 45.2758C204.853 43.8901 207.095 41.9772 208.605 39.444C210.12 36.9031 210.86 33.799 210.553 30.1025L209.554 30.1855ZM184.643 47.124V46.121H184.641V47.124V48.127H184.643V47.124ZM184.641 47.124H183.638V68.5098H184.641H185.644V47.124H184.641ZM184.641 68.5098L184.035 67.711C183.505 68.1136 182.687 68.2274 181.513 68.174C180.938 68.1478 180.378 68.0898 179.757 68.0424C179.165 67.9971 178.536 67.9634 177.943 68.0109L178.023 69.0107L178.103 70.0105C178.529 69.9764 179.026 69.9983 179.604 70.0425C180.154 70.0846 180.807 70.15 181.422 70.178C182.63 70.2329 184.103 70.1779 185.248 69.3085L184.641 68.5098ZM178.023 69.0107L178.406 68.0835L177.854 67.8559L177.471 68.7832L177.089 69.7105L177.641 69.938L178.023 69.0107ZM177.471 68.7832L178.453 68.5755L178.297 67.8421L177.316 68.0498L176.335 68.2576L176.49 68.991L177.471 68.7832ZM177.316 68.0498L178.319 68.052L178.427 18.5305L177.424 18.5283L176.421 18.5261L176.313 68.0476L177.316 68.0498ZM110.656 17.3838L110.769 18.3804C111.26 18.3248 112.021 18.2416 112.695 18.288C113.034 18.3114 113.281 18.364 113.435 18.4285C113.583 18.4906 113.534 18.5134 113.504 18.4291L114.446 18.0859L115.389 17.7427C115.16 17.1163 114.659 16.7666 114.21 16.5784C113.767 16.3926 113.272 16.317 112.833 16.2867C111.95 16.2259 111.014 16.3338 110.543 16.3872L110.656 17.3838ZM114.446 18.0859L113.511 18.4496L133.089 68.769L134.024 68.4053L134.959 68.0416L115.381 17.7222L114.446 18.0859ZM134.024 68.4053L133.319 67.6924L132.658 68.3467L133.363 69.0596L134.069 69.7725L134.73 69.1182L134.024 68.4053ZM133.363 69.0596L133.072 68.0996C133.142 68.0785 133.131 68.0902 132.911 68.1064C132.74 68.119 132.51 68.1306 132.233 68.1406C131.681 68.1607 130.976 68.1737 130.262 68.1792C129.548 68.1848 128.833 68.1827 128.263 68.1731C127.978 68.1683 127.733 68.1617 127.546 68.1534C127.335 68.1441 127.253 68.1348 127.254 68.1349L127.082 69.123L126.91 70.1112C127.153 70.1535 127.687 70.1697 128.23 70.1789C128.82 70.1888 129.552 70.1908 130.277 70.1852C131.002 70.1796 131.728 70.1663 132.306 70.1453C132.593 70.1349 132.852 70.1222 133.058 70.107C133.215 70.0954 133.468 70.0757 133.654 70.0195L133.363 69.0596ZM127.082 69.123L127.254 68.1349C127.193 68.1243 127.164 68.1133 127.152 68.1083C127.142 68.1042 127.135 68.1002 127.124 68.0914C127.109 68.0803 127.083 68.058 127.038 68.0093C126.989 67.9569 126.938 67.8955 126.857 67.7998L126.091 68.4473L125.325 69.0948C125.456 69.2501 125.652 69.4907 125.903 69.6832C126.191 69.9041 126.517 70.0427 126.91 70.1112L127.082 69.123ZM126.091 68.4473L127.026 68.0854L119.462 48.5326L118.526 48.8945L117.591 49.2564L125.155 68.8092L126.091 68.4473ZM118.526 48.8945L118.522 47.8915L103.11 47.955L103.114 48.958L103.118 49.961L118.53 49.8975L118.526 48.8945ZM103.114 48.958L102.177 48.5997L94.645 68.294L95.5818 68.6523L96.5187 69.0106L104.051 49.3163L103.114 48.958ZM95.5818 68.6523L94.7475 68.0957C94.8674 67.9159 94.9915 67.9088 94.8441 67.9621C94.7397 67.9999 94.5672 68.0425 94.3211 68.0796C93.8341 68.1529 93.1947 68.1849 92.5368 68.1794C91.8818 68.1739 91.2477 68.1315 90.7793 68.0685C90.5409 68.0364 90.3746 68.0027 90.2792 67.9755C90.229 67.9612 90.2313 67.9578 90.2629 67.9739C90.2796 67.9824 90.3245 68.0065 90.3799 68.0516C90.4318 68.0939 90.5312 68.1857 90.6083 68.3395L89.7117 68.7891L88.8151 69.2386C88.98 69.5675 89.2639 69.7163 89.3521 69.7613C89.4828 69.8278 89.6179 69.873 89.7295 69.9048C89.9577 69.9698 90.2313 70.0188 90.5117 70.0565C91.081 70.1332 91.8011 70.1793 92.5199 70.1853C93.2358 70.1914 93.9899 70.158 94.6197 70.0632C94.9318 70.0163 95.2485 69.9491 95.527 69.8483C95.7624 69.7631 96.1631 69.5884 96.4162 69.209L95.5818 68.6523ZM89.7117 68.7891L90.7147 68.7825L90.7088 67.8851L89.7058 67.8916L88.7029 67.8981L88.7087 68.7956L89.7117 68.7891ZM89.7058 67.8916L90.6389 68.2595L110.501 17.8894L109.568 17.5215L108.635 17.1535L88.7728 67.5237L89.7058 67.8916ZM109.568 17.5215L109.728 18.5117C110.056 18.4587 110.389 18.4257 110.77 18.3823L110.656 17.3857L110.542 16.3892C110.202 16.428 109.796 16.4686 109.408 16.5313L109.568 17.5215ZM110.656 17.3857H111.659V17.3838H110.656H109.653V17.3857H110.656ZM104.783 44.4561H103.78V44.457H104.783H105.786V44.4561H104.783ZM104.783 44.457L104.798 45.4599L116.912 45.2773L116.897 44.2744L116.882 43.2715L104.768 43.4541L104.783 44.457ZM116.897 44.2744L117.842 43.9362L111.899 27.3444L110.955 27.6826L110.011 28.0208L115.953 44.6126L116.897 44.2744ZM110.955 27.6826L110.014 27.3363L103.842 44.1097L104.783 44.4561L105.724 44.8024L111.896 28.029L110.955 27.6826ZM201.816 31.8496L202.819 31.8581C202.859 27.1538 200.992 24.0133 197.971 22.1908C195.03 20.4171 191.135 19.9759 187.213 20.2743L187.289 21.2744L187.365 22.2745C191.102 21.9902 194.508 22.4448 196.935 23.9086C199.281 25.3235 200.848 27.762 200.813 31.8411L201.816 31.8496ZM187.289 21.2744L187.998 21.9837L187.999 21.9827L187.29 21.2734L186.581 20.5642L186.58 20.5652L187.289 21.2744ZM187.29 21.2734L187.214 20.2733C186.357 20.3385 185.45 20.4989 184.696 20.6008L184.831 21.5947L184.965 22.5887C185.84 22.4704 186.584 22.333 187.366 22.2736L187.29 21.2734ZM184.831 21.5947L183.828 21.5883L183.694 42.4526L184.697 42.459L185.7 42.4654L185.834 21.6012L184.831 21.5947ZM184.697 42.459L183.818 42.9423C183.98 43.2371 184.231 43.382 184.352 43.4431C184.494 43.5154 184.641 43.5613 184.761 43.5926C185.005 43.6558 185.292 43.6957 185.577 43.7231C186.157 43.779 186.886 43.7973 187.604 43.797C189.041 43.7962 190.558 43.7196 191.017 43.6763L190.923 42.6777L190.829 41.6791C190.45 41.7149 188.998 41.7902 187.603 41.7909C186.905 41.7913 186.253 41.7729 185.769 41.7263C185.523 41.7026 185.358 41.6749 185.264 41.6507C185.216 41.6383 185.223 41.6356 185.259 41.6538C185.272 41.6608 185.45 41.7462 185.576 41.9756L184.697 42.459ZM190.923 42.6777L191.017 43.6763C194.473 43.3497 197.427 42.3569 199.532 40.4018C201.662 38.4233 202.788 35.5844 202.819 31.858L201.816 31.8496L200.813 31.8412C200.785 35.1542 199.801 37.414 198.167 38.9321C196.507 40.4736 194.045 41.3752 190.828 41.6792L190.923 42.6777ZM277.189 31.7383L278.192 31.7495C278.222 29.0804 277.697 26.9123 276.691 25.1961C275.68 23.473 274.225 22.2735 272.515 21.4847C269.143 19.93 264.755 19.9575 260.572 20.5792L260.72 21.5713L260.867 22.5634C264.945 21.9574 268.848 22.0032 271.675 23.3064C273.063 23.9466 274.184 24.8859 274.96 26.2106C275.741 27.5423 276.213 29.331 276.186 31.727L277.189 31.7383ZM260.72 21.5713H259.717V42.2354H260.72H261.723V21.5713H260.72ZM260.72 42.2354L260.638 43.235C264.556 43.5551 268.859 43.2827 272.239 41.6346C273.945 40.8027 275.432 39.6116 276.497 37.9593C277.562 36.3055 278.164 34.2492 278.192 31.7495L277.189 31.7383L276.186 31.7271C276.162 33.9082 275.641 35.5829 274.81 36.8731C273.978 38.1649 272.797 39.1308 271.36 39.8315C268.454 41.2486 264.574 41.5439 260.801 41.2357L260.72 42.2354Z" fill="#585858"/>
<path d="M117.573 82.518V76.4014H119.13V84.4642C118.753 84.7467 117.907 84.6944 117.512 84.5253C116.354 84.0316 113.177 79.3084 111.79 78.4032V84.4642L110.248 84.4486L110.415 76.4181L112.067 76.6249L117.572 82.5191L117.573 82.518Z" fill="#C8C8C8"/>
<path d="M211.002 84.6316L209.571 84.4493L209.555 76.402C210.229 76.4131 210.64 76.2864 211.28 76.6244C212.262 77.1438 216.329 82.5431 216.73 82.5164L216.973 76.3987L218.27 76.4187L218.266 84.6361L216.619 84.4103L211.002 78.4049V84.6328V84.6316Z" fill="#C8C8C8"/>
<path d="M137.038 76.4019C139.684 76.641 143.954 75.5033 145.694 78.1445C147.547 80.956 145.564 84.6315 142.21 84.6315H137.204L137.038 84.4647V76.4019ZM138.595 83.5194H142.321C145.383 83.5194 145.563 77.514 142.21 77.514H138.762L138.595 77.6808V83.5194Z" fill="#C8C8C8"/>
<path d="M213.426 4.37012C221.179 3.50156 222.237 11.9592 215.601 12.7732C207.871 13.7219 207.095 5.07964 213.426 4.37012ZM213.982 5.37102C211.582 5.60123 210.484 7.33834 210.966 9.65487C211.926 12.6598 217.822 12.4819 218.231 9.28565C218.589 6.47423 216.607 5.11968 213.982 5.37102Z" fill="#C8C8C8"/>
<path d="M245.593 84.6311H243.869L242.596 82.3446L237.99 82.2C237.062 83.5412 237.315 85.0915 235.139 84.63L239.201 76.6272L240.535 76.3125C241.089 76.377 241.019 76.5205 241.302 76.8552C242.851 78.6924 244.091 82.5715 245.593 84.6311ZM241.922 81.1835C241.781 80.8266 240.393 77.6404 240.034 77.8472L238.474 81.1835H241.922Z" fill="#C8C8C8"/>
<path d="M192.872 84.6316H191.259L189.924 82.2972L185.383 82.2038L184.03 84.6316H182.417L186.484 76.7433C186.815 76.2273 188.306 76.184 188.624 76.8123L192.872 84.6316ZM185.865 81.184H189.202L187.588 77.7353L185.865 81.184Z" fill="#C8C8C8"/>
<path d="M101.89 6.78233L100.417 6.98695C98.2021 3.72624 92.6009 5.50562 93.9411 9.7828C94.7252 12.0048 98.1632 12.433 99.7782 10.9539C100.662 10.1431 100.181 9.41247 101.956 10.0008L101.916 10.5335C99.5835 14.4136 91.7822 13.4861 92.107 8.17691C92.3806 3.704 100.295 2.83099 101.89 6.78233Z" fill="#C8C8C8"/>
<path d="M244.926 5.44914H239.086L238.919 5.61596V7.89579H244.091L244.147 9.0079H238.919V12.6779H237.362V4.44824H244.648L245.022 4.7474L244.926 5.44914Z" fill="#C8C8C8"/>
<path d="M167.29 9.28498L163.065 4.44841C165.603 3.869 166.594 6.80164 168.236 8.12394C169.672 6.89728 170.786 4.18595 172.943 4.36166L173.295 4.50513L169.017 9.1215L168.848 12.6769H167.29V9.28498Z" fill="#C8C8C8"/>
<path d="M141.931 5.56041L138.328 5.46254L138.316 4.66961L147.088 4.46387L147.271 5.4492L143.6 5.56041V12.6779L141.931 12.5111V5.56041Z" fill="#C8C8C8"/>
<path d="M90.6569 76.4579L92.1962 76.4189C92.5866 76.6658 92.0683 83.6466 92.214 84.6319L90.6558 84.464V76.4568L90.6569 76.4579Z" fill="#C8C8C8"/>
<path d="M165.622 76.4014H164.065V84.631H165.622V76.4014Z" fill="#C8C8C8"/>
<path d="M121.132 4.55945V12.6779H119.575V4.44824L121.132 4.55945Z" fill="#C8C8C8"/>
<path d="M29.9019 0.0253435C33.3966 -0.422838 33.2031 5.23114 29.6995 4.51049C27.3226 4.02116 27.4784 0.336735 29.9019 0.0253435Z" fill="#2E2E2E"/>
<path d="M48.9181 24.0484C52.1459 23.4267 52.6419 28.2533 49.7723 28.5736C46.7393 28.9128 46.4089 24.531 48.9181 24.0484Z" fill="#2E2E2E"/>
<path d="M47.0586 6.67226L47.2788 6.78458C47.7293 3.89309 51.6377 4.32681 51.7189 7.15602L51.4586 8.1269C50.0038 10.4001 47.1131 9.1923 47.0586 6.67226Z" fill="#2E2E2E"/>
<path d="M24.8945 24.0481C28.1067 23.4676 28.5616 28.2186 25.7488 28.5744C22.7368 28.9559 22.3319 24.5119 24.8945 24.0481Z" fill="#2E2E2E"/>
<path d="M29.7909 24.0472C33.0287 23.5835 33.3813 28.3722 30.416 28.5735C27.4508 28.7748 27.2361 24.4131 29.7909 24.0472Z" fill="#2E2E2E"/>
<path d="M49.2596 0.023696C52.2938 -0.240987 52.4863 4.35648 49.6701 4.56556C46.6336 4.79021 46.3823 0.273921 49.2596 0.023696Z" fill="#2E2E2E"/>
<path d="M34.7995 0.0256976C38.2174 -0.299039 37.9961 5.14809 34.5937 4.50973C32.1412 4.05043 32.3036 0.262578 34.7995 0.0256976Z" fill="#2E2E2E"/>
<path d="M20.4456 14.3756C23.2696 14.191 23.7701 18.6884 20.8616 18.9042C17.5705 19.1488 17.7117 14.5547 20.4456 14.3756Z" fill="#2E2E2E"/>
<path d="M39.2425 14.4845C42.7149 13.7594 43.1498 19.1165 39.6585 18.913C37.0647 18.7617 36.9824 14.9561 39.2425 14.4845Z" fill="#2E2E2E"/>
<path d="M41.3423 24.6202C43.4055 26.4441 40.9597 29.6792 38.6117 28.1845C35.9901 26.5164 38.9187 22.4772 41.3423 24.6202Z" fill="#2E2E2E"/>
<path d="M33.4191 5.49171C35.4 3.38425 38.6133 6.42477 36.7725 8.5667C34.8383 10.8176 31.2636 7.78377 33.4191 5.49171Z" fill="#2E2E2E"/>
<path d="M39.8007 9.59544C42.2076 9.50424 43.0496 13.1364 40.7172 13.956C37.2359 15.1794 36.414 9.72444 39.8007 9.59544Z" fill="#2E2E2E"/>
<path d="M39.5822 0.0261503C42.722 -0.269672 42.9367 4.40898 39.9881 4.56134C37.0462 4.7137 36.8661 0.281936 39.5822 0.0261503Z" fill="#2E2E2E"/>
<path d="M44.3631 24.0494C47.4029 23.7002 47.6765 28.2332 44.9905 28.5746C41.9807 28.9561 41.4224 24.3875 44.3631 24.0494Z" fill="#2E2E2E"/>
<path d="M23.74 32.6567C21.9726 30.7761 24.5008 27.5387 26.802 29.317C29.368 31.301 25.8866 34.9409 23.74 32.6567Z" fill="#2E2E2E"/>
<path d="M57.4436 8.63213C55.723 6.8483 57.9319 3.78666 60.2387 5.11452C63.1294 6.77935 59.8472 11.1222 57.4436 8.63213Z" fill="#2E2E2E"/>
<path d="M53.814 24.0482C57.0607 23.56 57.3932 28.4088 54.4358 28.5723C51.4639 28.7369 51.3159 24.423 53.814 24.0482Z" fill="#2E2E2E"/>
<path d="M60.5865 27.9849C58.0194 30.2325 55.1976 25.794 57.9616 24.3038C60.3084 23.0393 62.593 26.2266 60.5865 27.9849Z" fill="#2E2E2E"/>
<path d="M48.9178 19.2665C52.2556 18.6048 52.656 23.7717 49.4483 23.7739C46.661 23.7762 46.542 19.7381 48.9178 19.2665Z" fill="#2E2E2E"/>
<path d="M23.74 8.63394C21.867 6.68552 24.6921 3.45484 26.9299 5.38769C29.1678 7.32054 25.8956 10.876 23.74 8.63394Z" fill="#2E2E2E"/>
<path d="M20.4548 9.59067C23.3767 9.38048 23.7582 14.2004 20.5293 14.1336C17.7075 14.0758 17.6797 9.78973 20.4548 9.59067Z" fill="#2E2E2E"/>
<path d="M39.4673 4.80776C42.5872 4.39739 43.1188 9.2651 39.8766 9.34406C37.0671 9.41302 36.9125 5.14362 39.4673 4.80776Z" fill="#2E2E2E"/>
<path d="M44.479 0.0255263C47.501 -0.198008 47.6011 4.3661 44.8839 4.56183C41.8408 4.78092 41.5494 0.241276 44.479 0.0255263Z" fill="#2E2E2E"/>
<path d="M54.0411 0.0261581C57.3834 -0.278561 57.2277 5.10073 53.8353 4.51019C51.355 4.07869 51.5185 0.256365 54.0411 0.0261581Z" fill="#2E2E2E"/>
<path d="M24.8938 19.2665C28.2339 18.6382 28.5753 23.636 25.5066 23.7684C22.6882 23.8896 22.4146 19.7336 24.8938 19.2665Z" fill="#2E2E2E"/>
<path d="M29.676 19.2666C32.6623 18.7039 33.5343 22.991 30.8416 23.6572C27.6205 24.4535 27.0466 19.7615 29.676 19.2666Z" fill="#2E2E2E"/>
<path d="M42.446 7.6028C41.6952 4.81695 46.1698 3.64145 46.7848 6.44397C47.4789 9.6046 43.1967 10.3897 42.446 7.6028Z" fill="#2E2E2E"/>
<path d="M58.8238 0.0259685C61.8681 -0.260956 62.115 4.19528 59.45 4.55226C56.3636 4.96597 55.9643 0.2951 58.8238 0.0259685Z" fill="#2E2E2E"/>
<path d="M29.9018 4.80814C33.0495 4.40889 33.3987 9.34444 30.201 9.34222C27.3926 9.3411 27.3103 5.13621 29.9018 4.80814Z" fill="#2E2E2E"/>
<path d="M39.3537 19.2679C42.6705 18.6807 43.0097 23.6541 39.9655 23.7675C37.1037 23.8743 36.8823 19.705 39.3537 19.2679Z" fill="#2E2E2E"/>
<path d="M44.1355 19.267C47.381 18.6264 47.7981 23.5865 44.8562 23.7755C41.931 23.9635 41.6218 19.763 44.1355 19.267Z" fill="#2E2E2E"/>
<path d="M22.2128 23.0898C20.3698 24.9782 17.1666 22.5649 18.8082 20.1861C20.6434 17.5271 24.4284 20.82 22.2128 23.0898Z" fill="#2E2E2E"/>
<path d="M33.4187 29.5128C35.3985 27.4076 38.6129 30.4415 36.7721 32.5878C34.9313 34.7342 31.2309 31.8394 33.4187 29.5128Z" fill="#2E2E2E"/>
<path d="M47.7647 10.3831C49.5676 8.25785 52.8699 10.8001 51.2827 13.1778C49.6955 15.5555 45.6458 12.882 47.7647 10.3831Z" fill="#2E2E2E"/>
<path d="M49.1439 28.8309C52.2393 28.4773 52.6542 33.3272 49.4375 33.3495C46.6002 33.3684 46.5235 29.1301 49.1439 28.8309Z" fill="#2E2E2E"/>
<path d="M26.8855 10.1601C29.0033 12.0184 26.4662 15.3625 24.0905 13.6777C21.5979 11.9094 24.5754 8.13158 26.8855 10.1601Z" fill="#2E2E2E"/>
<path d="M47.0586 16.238L47.2788 16.4594L48.2454 14.8112L48.9194 14.4854L50.6111 14.7422C52.2661 15.8744 51.9881 18.2365 50.0672 18.8571L48.2865 18.6224C47.4879 18.0185 47.1342 17.2356 47.0586 16.238Z" fill="#2E2E2E"/>
<path d="M58.935 9.58781C61.898 9.39319 62.2217 14.1764 59.014 14.1308C56.1333 14.0896 56.1989 9.76798 58.935 9.58781Z" fill="#2E2E2E"/>
<path d="M39.4675 28.8288C42.3315 28.4507 43.2414 32.8158 40.166 33.304C37.0906 33.7922 36.7547 29.1869 39.4675 28.8288Z" fill="#2E2E2E"/>
<path d="M58.5955 19.2678C62.4505 18.6261 61.9978 24.9151 58.1528 23.5483C56.2375 22.8677 56.5256 19.6126 58.5955 19.2678Z" fill="#2E2E2E"/>
<path d="M53.9264 4.80734C57.0051 4.40142 57.4945 9.24801 54.3246 9.33141C51.405 9.40815 51.3827 5.1432 53.9264 4.80734Z" fill="#2E2E2E"/>
<path d="M34.46 19.2666C37.8335 18.5771 38.2606 23.8196 35.0061 23.7551C32.2756 23.7006 32.1488 19.7382 34.46 19.2666Z" fill="#2E2E2E"/>
<path d="M57.4436 32.6542C55.2458 30.4077 59.2454 26.9312 61.0328 30.0107C62.383 32.3361 59.2231 34.4736 57.4436 32.6542Z" fill="#2E2E2E"/>
<path d="M24.7811 14.4827C27.9732 13.772 28.6539 18.3695 25.9523 18.8777C22.7334 19.4838 22.3352 15.0265 24.7811 14.4827Z" fill="#2E2E2E"/>
<path d="M30.1312 9.59145C33.1243 9.43909 33.2956 14.2345 30.0945 14.1322C27.255 14.041 27.3951 9.73046 30.1312 9.59145Z" fill="#2E2E2E"/>
<path d="M34.9048 9.59329C37.9146 9.40423 38.1793 14.2441 34.8793 14.1329C32.1431 14.0395 32.1698 9.76567 34.9048 9.59329Z" fill="#2E2E2E"/>
<path d="M46.2376 10.2724C48.0038 12.0829 45.8894 15.169 43.4614 13.7711C40.6296 12.1418 43.8941 7.87022 46.2376 10.2724Z" fill="#2E2E2E"/>
<path d="M22.3258 27.763C20.5729 29.8827 17.1939 27.4816 18.7588 25.0305C20.4249 22.4237 24.3245 25.3464 22.3258 27.763Z" fill="#2E2E2E"/>
<path d="M58.4843 14.4837C62.0513 13.743 62.3093 19.3391 58.6912 18.8943C56.2676 18.5962 56.321 14.9329 58.4843 14.4837Z" fill="#2E2E2E"/>
<path d="M53.8131 19.2669C57.1732 18.7287 57.439 23.8866 54.1567 23.7332C51.4618 23.6075 51.385 19.6551 53.8131 19.2669Z" fill="#2E2E2E"/>
<path d="M29.7889 28.8304C32.9132 28.2944 33.4771 33.2733 30.3005 33.3534C27.3909 33.4268 27.3253 29.253 29.7889 28.8304Z" fill="#2E2E2E"/>
<path d="M42.4456 31.6234C41.6993 28.8542 46.1672 27.662 46.7845 30.4646C47.4819 33.6296 43.1864 34.3759 42.4456 31.6234Z" fill="#2E2E2E"/>
<path d="M34.4604 14.484C37.5869 13.83 38.292 18.3107 35.6082 18.8568C32.3749 19.5141 31.9378 15.0122 34.4604 14.484Z" fill="#2E2E2E"/>
<path d="M36.5624 27.9852C34.6471 29.6812 31.832 27.4069 33.1533 25.0781C34.7872 22.1989 39.0983 25.7398 36.5624 27.9852Z" fill="#2E2E2E"/>
<path d="M31.7786 15.0549C34.3556 17.5405 29.6853 20.7823 28.2116 17.6762C27.1383 15.4142 30.0045 13.3434 31.7786 15.0549Z" fill="#2E2E2E"/>
<path d="M22.2119 5.4899C24.3096 7.62405 21.0218 10.8114 18.9586 8.63162C16.981 6.54308 20.1454 3.38801 22.2119 5.4899Z" fill="#2E2E2E"/>
<path d="M53.9264 28.8295C57.0596 28.4169 57.4 33.2935 54.3246 33.3535C51.4283 33.4103 51.3449 29.1698 53.9264 28.8295Z" fill="#2E2E2E"/>
<path d="M53.7021 14.484C56.8831 13.8624 57.4548 18.3275 54.851 18.8569C51.5788 19.5208 51.1917 14.9745 53.7021 14.484Z" fill="#2E2E2E"/>
<path d="M54.2677 9.59213C56.6679 9.55209 57.3653 13.152 55.1541 13.936C51.546 15.215 50.9354 9.64885 54.2677 9.59213Z" fill="#2E2E2E"/>
<path d="M44.0227 14.4819C47.8688 13.6022 47.7053 20.0791 43.798 18.7724C41.7582 18.0907 42.123 14.9167 44.0227 14.4819Z" fill="#2E2E2E"/>
<path d="M22.2132 29.5125C24.0228 31.3687 21.7505 34.3347 19.437 33.0112C16.6253 31.4031 19.823 27.0603 22.2132 29.5125Z" fill="#2E2E2E"/>
<path d="M62.3376 29.5117C64.2161 27.5699 67.3783 30.2701 65.5798 32.4755C63.66 34.8287 60.1809 31.7415 62.3376 29.5117Z" fill="#2E2E2E"/>
<path d="M63.2671 24.1591C66.3613 23.4607 67.0988 27.9114 64.4149 28.4196C61.3062 29.0091 60.888 24.6963 63.2671 24.1591Z" fill="#2E2E2E"/>
<path d="M63.265 19.3757C66.5072 18.6339 67.0089 23.4327 64.097 23.664C61.3075 23.8864 61.0183 19.8895 63.265 19.3757Z" fill="#2E2E2E"/>
<path d="M63.2668 14.5953C66.3033 13.9614 66.9884 18.0873 64.6115 18.7201C61.4116 19.572 60.8477 15.1013 63.2668 14.5953Z" fill="#2E2E2E"/>
<path d="M63.7153 9.69731C66.5849 9.48823 66.8918 14.1157 63.7954 14.0201C61.0637 13.9367 61.2405 9.87747 63.7153 9.69731Z" fill="#2E2E2E"/>
<path d="M62.4466 8.63437C60.4134 6.74823 63.3264 3.55202 65.3584 5.55604C67.3905 7.56007 64.3964 10.4427 62.4466 8.63437Z" fill="#2E2E2E"/>
<path d="M15.4405 14.5954C18.2823 14.135 18.7784 18.5189 16.069 18.7858C13.2728 19.0616 12.9347 15.0013 15.4405 14.5954Z" fill="#2E2E2E"/>
<path d="M15.4408 9.81468C18.3927 9.35538 18.792 13.9217 15.8435 14.0051C13.3398 14.0752 12.9338 10.205 15.4408 9.81468Z" fill="#2E2E2E"/>
<path d="M15.4418 19.3759C18.2325 18.9433 18.8275 23.2917 16.0692 23.563C13.234 23.8422 12.9727 19.7585 15.4418 19.3759Z" fill="#2E2E2E"/>
<path d="M14.3973 8.63402C12.4787 6.87133 14.9234 3.8208 17.0811 5.45005C19.3768 7.18383 16.4761 10.5435 14.3973 8.63402Z" fill="#2E2E2E"/>
<path d="M17.2069 32.6546C15.0502 34.5041 12.2818 31.1666 14.5252 29.4729C16.7686 27.7791 19.1288 31.0065 17.2069 32.6546Z" fill="#2E2E2E"/>
<path d="M63.3772 0.249365C66.3513 -0.296682 66.8307 3.78588 64.4149 4.28856C61.4041 4.91356 61.0103 0.684201 63.3772 0.249365Z" fill="#2E2E2E"/>
<path d="M15.2181 24.2702C18.1322 23.6196 18.8151 27.7711 16.366 28.3082C13.3874 28.9622 12.8947 24.7895 15.2181 24.2702Z" fill="#2E2E2E"/>
<path d="M25.0059 0.804779C27.375 0.312114 27.6442 3.69961 25.4875 3.84085C23.7002 3.95873 23.3376 1.15176 25.0059 0.804779Z" fill="#2E2E2E"/>
<path d="M16.7628 3.29524C15.2557 4.69094 13.336 2.13197 15.08 1.11216C16.5081 0.278077 17.9729 2.17423 16.7628 3.29524Z" fill="#2E2E2E"/>
<path d="M19.844 1.4828C21.0018 0.51971 22.5501 2.22903 21.1976 3.2277C20.2043 3.96058 18.8318 2.32467 19.844 1.4828Z" fill="#2E2E2E"/>
<path d="M49.0311 48.0699C52.2255 47.5883 52.5269 52.2692 49.7708 52.5984C46.7733 52.9565 46.3495 48.4747 49.0311 48.0699Z" fill="#575757"/>
<path d="M41.3421 48.6416C43.3653 50.4299 41.0073 53.6984 38.6093 52.2082C35.9955 50.5845 38.8985 46.4819 41.3421 48.6416Z" fill="#575757"/>
<path d="M60.5866 52.0072C58.688 53.6698 55.8674 51.4856 57.1965 49.119C58.8393 46.1942 63.1526 49.7596 60.5866 52.0072Z" fill="#575757"/>
<path d="M20.4454 38.396C23.2593 38.2147 23.7587 42.6898 20.8602 42.9234C17.598 43.187 17.7026 38.5728 20.4454 38.396Z" fill="#575757"/>
<path d="M25.0069 48.0704C28.189 47.6144 28.4537 52.2797 25.7465 52.5989C22.7323 52.9548 22.3075 48.4574 25.0069 48.0704Z" fill="#575757"/>
<path d="M20.1104 43.2878C23.3893 42.685 23.7119 47.5727 20.8311 47.7963C17.9104 48.0232 17.5778 43.7526 20.1104 43.2878Z" fill="#575757"/>
<path d="M29.7904 48.0685C33.0393 47.6026 33.3974 52.4725 30.3021 52.5937C27.4514 52.706 27.3001 48.4255 29.7904 48.0685Z" fill="#575757"/>
<path d="M53.815 48.0687C57.0983 47.5994 57.4075 52.5127 54.3266 52.595C51.4848 52.6706 51.3558 48.4212 53.815 48.0687Z" fill="#575757"/>
<path d="M49.1435 52.8503C52.2033 52.4733 52.6493 57.2587 49.5316 57.3532C46.5753 57.4422 46.5097 53.175 49.1435 52.8503Z" fill="#575757"/>
<path d="M20.4453 62.4185C23.2893 62.2351 23.713 66.7335 20.859 66.9482C17.589 67.194 17.7103 62.5954 20.4453 62.4185Z" fill="#575757"/>
<path d="M44.1349 43.2875C47.3693 42.6492 47.8042 47.5747 44.8612 47.7905C41.9426 48.0051 41.6101 43.7846 44.1349 43.2875Z" fill="#575757"/>
<path d="M22.1014 48.6405C24.0868 50.4055 21.7533 53.7095 19.3708 52.2049C16.7726 50.5656 19.6444 46.4552 22.1014 48.6405Z" fill="#575757"/>
<path d="M24.8933 43.2876C28.0075 42.7016 28.5236 47.1333 26.0645 47.6827C22.7122 48.4323 22.2806 43.7792 24.8933 43.2876Z" fill="#575757"/>
<path d="M39.3523 43.2876C42.9638 42.6203 42.9182 48.4667 39.3412 47.696C36.9176 47.1733 37.2279 43.6801 39.3523 43.2876Z" fill="#575757"/>
<path d="M51.02 47.1117C49.0246 49.1213 45.7846 46.1909 47.8301 43.9778C49.8755 41.7647 53.1644 44.9509 51.02 47.1117Z" fill="#575757"/>
<path d="M46.3396 51.7775C44.7535 53.8649 41.1787 51.5506 42.7826 49.0528C44.3831 46.5605 48.3427 49.1418 46.3396 51.7775Z" fill="#575757"/>
<path d="M25.1224 52.8513C28.1244 52.5454 28.6238 57.223 25.5073 57.3542C22.5365 57.4788 22.4597 53.1226 25.1224 52.8513Z" fill="#575757"/>
<path d="M63.7175 57.6307C66.1422 57.4483 67.1588 61.0438 64.803 61.949C61.3717 63.268 60.4497 57.8765 63.7175 57.6307Z" fill="#575757"/>
<path d="M15.2179 62.5276C18.6547 61.8103 19.0729 67.1217 15.6361 66.9571C13.0379 66.8326 12.9522 63.0003 15.2179 62.5276Z" fill="#575757"/>
<path d="M58.5953 43.2889C62.4358 42.6505 61.9954 48.935 58.1526 47.5694C56.2217 46.8832 56.5521 43.6292 58.5953 43.2889Z" fill="#575757"/>
<path d="M19.0687 37.5479C17.1011 35.7463 19.5014 32.5378 21.8037 33.9791C24.5187 35.6784 21.4878 39.7621 19.0687 37.5479Z" fill="#575757"/>
<path d="M34.4597 43.288C37.5484 42.6596 38.1823 47.1248 35.7432 47.6853C32.3686 48.4615 31.936 43.8007 34.4597 43.288Z" fill="#575757"/>
<path d="M34.6865 48.0709C37.8386 47.6962 38.1389 52.4293 35.1937 52.595C32.2818 52.7585 32.0583 48.3834 34.6865 48.0709Z" fill="#575757"/>
<path d="M33.4185 53.5351C35.5318 51.2875 38.7695 54.8162 36.6073 56.7791C34.5697 58.6274 31.3531 55.7326 33.4185 53.5351Z" fill="#575757"/>
<path d="M39.4674 52.8504C42.3726 52.4678 43.0155 56.735 40.5251 57.2466C36.9771 57.9761 36.798 53.2018 39.4674 52.8504Z" fill="#575757"/>
<path d="M58.484 62.5268C61.486 61.9029 62.3224 66.0333 59.8743 66.8084C56.5654 67.8549 55.8391 63.0773 58.484 62.5268Z" fill="#575757"/>
<path d="M58.4839 38.5056C61.4491 37.8862 62.3578 42.001 59.8742 42.7873C56.5719 43.8327 55.8312 39.0595 58.4839 38.5056Z" fill="#575757"/>
<path d="M39.8005 57.6384C42.1707 57.5483 42.9904 61.0626 40.7771 61.9479C37.3469 63.318 36.3292 57.7719 39.8005 57.6384Z" fill="#575757"/>
<path d="M44.4766 33.6089C47.3807 33.3742 47.8078 38.2119 44.5544 38.1518C41.8339 38.1029 41.6548 33.8368 44.4766 33.6089Z" fill="#575757"/>
<path d="M39.8005 33.6169C42.1707 33.5269 42.9904 37.0411 40.7771 37.9264C37.3469 39.2965 36.3292 33.7504 39.8005 33.6169Z" fill="#575757"/>
<path d="M58.7089 52.8505C61.5774 52.4757 62.2803 56.7295 59.7667 57.2467C56.1975 57.9818 56.0573 53.1964 58.7089 52.8505Z" fill="#575757"/>
<path d="M39.3526 38.5063C42.6949 37.9102 43.0608 43.0337 39.7719 42.9358C37.0424 42.8546 36.9534 38.9344 39.3526 38.5063Z" fill="#575757"/>
<path d="M29.6756 43.2873C32.7487 42.6801 33.415 47.1274 30.8468 47.6824C27.5268 48.3997 27.1386 43.7889 29.6756 43.2873Z" fill="#575757"/>
<path d="M34.4596 38.5053C37.8653 37.788 38.318 43.085 34.8778 42.9349C32.2885 42.8225 32.1784 38.9857 34.4596 38.5053Z" fill="#575757"/>
<path d="M49.3718 57.6341C52.3126 57.5129 52.5206 62.2594 49.3351 62.1771C46.5178 62.1037 46.5856 57.7487 49.3718 57.6341Z" fill="#575757"/>
<path d="M49.3727 33.6118C52.3324 33.5161 52.5037 38.2382 49.3349 38.1559C46.4831 38.0814 46.6143 33.7019 49.3727 33.6118Z" fill="#575757"/>
<path d="M39.2426 62.5279C42.6572 61.8139 43.1099 67.0453 39.7743 66.9586C37.0482 66.8874 37.007 62.995 39.2426 62.5279Z" fill="#575757"/>
<path d="M53.7016 62.5275C57.1796 61.848 57.4721 67.1038 54.1198 66.957C51.476 66.8413 51.4404 62.969 53.7016 62.5275Z" fill="#575757"/>
<path d="M53.8128 43.2891C56.847 42.7998 57.4231 47.1748 54.8716 47.683C51.5838 48.3392 51.1312 43.7217 53.8128 43.2891Z" fill="#575757"/>
<path d="M48.9191 38.5057C52.0434 37.8951 52.644 42.4259 49.9768 42.8985C46.7925 43.4624 46.3198 39.0128 48.9191 38.5057Z" fill="#575757"/>
<path d="M44.3635 52.8501C47.4711 52.5165 47.7658 57.461 44.5525 57.3609C41.7575 57.2741 41.7463 53.1315 44.3635 52.8501Z" fill="#575757"/>
<path d="M34.4596 62.5278C37.8564 61.8172 38.2779 67.003 34.989 66.9596C32.2907 66.924 32.145 63.0127 34.4596 62.5278Z" fill="#575757"/>
<path d="M44.4767 57.6304C47.393 57.3946 47.809 62.2323 44.5545 62.1623C41.794 62.1033 41.6983 57.8551 44.4767 57.6304Z" fill="#575757"/>
<path d="M20.3394 52.8506C23.4415 52.5581 23.7173 57.4225 20.5285 57.358C17.7446 57.3012 17.7068 53.0986 20.3394 52.8506Z" fill="#575757"/>
<path d="M20.4542 57.6334C23.4628 57.4421 23.6908 62.3354 20.4219 62.1697C17.797 62.0363 17.6769 57.8091 20.4542 57.6334Z" fill="#575757"/>
<path d="M25.3483 33.6109C28.2179 33.513 28.5027 38.2095 25.3128 38.1527C22.5043 38.1027 22.5032 33.7076 25.3483 33.6109Z" fill="#575757"/>
<path d="M57.5524 61.5703C55.5993 59.7898 57.9617 56.5724 60.2874 58.0015C63.0257 59.6841 59.9337 63.7411 57.5524 61.5703Z" fill="#575757"/>
<path d="M30.1307 33.6119C33.0592 33.4607 33.3228 38.2505 30.0939 38.1527C27.31 38.0681 27.3734 33.7543 30.1307 33.6119Z" fill="#575757"/>
<path d="M29.9018 52.8506C32.738 52.4914 33.4054 56.7485 30.8472 57.2457C27.3314 57.9296 27.1868 53.1942 29.9018 52.8506Z" fill="#575757"/>
<path d="M44.1351 38.5051C47.7532 37.8123 47.741 43.692 44.0528 42.8713C41.8016 42.3697 41.9673 38.92 44.1351 38.5051Z" fill="#575757"/>
<path d="M48.9191 62.5267C52.0567 61.9139 52.6907 66.528 49.8667 66.9195C46.7424 67.3532 46.3787 63.0227 48.9191 62.5267Z" fill="#575757"/>
<path d="M57.5524 37.5488C55.5993 35.7683 57.9617 32.551 60.2874 33.98C63.0124 35.6549 59.9415 39.7263 57.5524 37.5488Z" fill="#575757"/>
<path d="M55.8024 39.0763C57.8344 40.958 55.2129 44.1564 52.8983 42.4805C50.5081 40.7511 53.4377 36.8865 55.8024 39.0763Z" fill="#575757"/>
<path d="M53.9263 52.8499C56.8003 52.4707 57.4276 56.7479 54.8717 57.245C51.3559 57.929 51.2691 53.2003 53.9263 52.8499Z" fill="#575757"/>
<path d="M25.348 57.6324C28.2766 57.5334 28.4746 62.3588 25.2023 62.1731C22.5062 62.0196 22.5396 57.728 25.348 57.6324Z" fill="#575757"/>
<path d="M44.1351 62.5267C47.4919 61.8839 47.8445 67.0919 44.5533 66.9573C41.8339 66.8461 41.7772 62.9793 44.1351 62.5267Z" fill="#575757"/>
<path d="M54.2674 57.6352C57.2059 57.5851 57.2248 62.3127 54.1228 62.1704C51.311 62.0414 51.4278 57.683 54.2674 57.6352Z" fill="#575757"/>
<path d="M36.5617 37.5486C34.2349 39.5871 31.2685 35.9972 33.6554 34.1422C35.9822 32.3339 38.6316 35.7347 36.5617 37.5486Z" fill="#575757"/>
<path d="M54.2674 33.6137C57.1826 33.5636 57.2393 38.2923 54.1228 38.1489C51.311 38.0199 51.4278 33.6615 54.2674 33.6137Z" fill="#575757"/>
<path d="M36.5618 61.5705C34.2338 63.6068 31.2608 59.9924 33.6555 58.1641C36.0412 56.3425 38.5905 59.7956 36.5618 61.5705Z" fill="#575757"/>
<path d="M30.1297 57.6338C33.0127 57.497 33.3397 62.1457 30.2009 62.169C27.3224 62.1901 27.3358 57.7662 30.1297 57.6338Z" fill="#575757"/>
<path d="M24.8933 62.5269C28.0677 61.9186 28.5437 66.5272 25.841 66.9209C22.7156 67.3746 22.3252 63.0196 24.8933 62.5269Z" fill="#575757"/>
<path d="M24.8933 38.5064C28.0677 37.8981 28.5437 42.5067 25.841 42.9004C22.7156 43.3541 22.3252 38.9991 24.8933 38.5064Z" fill="#575757"/>
<path d="M29.6768 38.506C33.0202 37.8531 33.4573 42.9544 30.2073 42.9377C27.4545 42.9233 27.3488 38.9608 29.6768 38.506Z" fill="#575757"/>
<path d="M29.6771 62.5268C32.8081 61.9162 33.4821 66.4837 30.6248 66.9207C27.5416 67.3923 27.1746 63.015 29.6771 62.5268Z" fill="#575757"/>
<path d="M63.6048 52.8467C66.3554 52.552 67.1162 56.7836 64.4368 57.2462C60.9621 57.8457 60.9332 53.1325 63.6048 52.8467Z" fill="#575757"/>
<path d="M63.4906 43.2876C66.4336 42.8516 67.052 47.1911 64.4383 47.6815C61.2205 48.2854 60.8179 43.6835 63.4906 43.2876Z" fill="#575757"/>
<path d="M63.6073 48.0666C66.9184 47.7352 66.9396 53.0833 63.3782 52.4639C60.9635 52.0435 61.2894 48.299 63.6073 48.0666Z" fill="#575757"/>
<path d="M63.3773 38.506C66.1523 37.9811 67.1623 41.9158 64.7398 42.7587C61.4787 43.8942 60.6334 39.0243 63.3773 38.506Z" fill="#575757"/>
<path d="M65.3691 37.5485C62.9622 39.5426 60.1938 35.8437 62.574 34.1421C64.9653 32.4328 67.4345 35.8359 65.3691 37.5485Z" fill="#575757"/>
<path d="M63.49 62.5276C66.3963 62.0883 66.9424 66.2454 64.6378 66.7903C61.1087 67.6244 60.8662 62.9246 63.49 62.5276Z" fill="#575757"/>
<path d="M15.3292 57.7451C18.3045 57.1958 18.8873 61.4496 16.4771 62.0056C13.1715 62.7686 12.6754 58.2345 15.3292 57.7451Z" fill="#575757"/>
<path d="M15.5547 52.959C18.0094 52.6588 18.9549 56.5133 16.3845 57.1306C13.2312 57.889 12.7763 53.2982 15.5547 52.959Z" fill="#575757"/>
<path d="M15.4412 48.1813C18.1039 47.7854 18.8858 51.7089 16.3833 52.3495C13.378 53.118 12.7151 48.5872 15.4412 48.1813Z" fill="#575757"/>
<path d="M17.4214 46.8833C15.9188 48.8751 12.4063 46.5808 14.1358 44.2075C15.7219 42.0311 19.2511 44.4566 17.4214 46.8833Z" fill="#575757"/>
<path d="M15.328 38.6167C18.2132 38.0762 18.8472 42.3289 16.2757 42.7882C13.3115 43.3176 12.8444 39.0816 15.328 38.6167Z" fill="#575757"/>
<path d="M15.3277 33.8347C18.4031 33.2542 18.8012 37.865 15.9517 38.0251C13.2845 38.1753 12.9575 34.2818 15.3277 33.8347Z" fill="#575757"/>
<path d="M20.2255 80.8761C24.1795 80.4368 24.9603 86.5578 20.9618 86.9526C16.7842 87.3663 16.5517 81.2842 20.2255 80.8761Z" fill="#7B7B7B"/>
<path d="M49.2593 76.87C52.3969 76.6187 52.4614 81.3407 49.554 81.4075C46.6466 81.4742 46.4809 77.0925 49.2593 76.87Z" fill="#A9A9A9"/>
<path d="M49.1484 72.0895C52.8154 71.6936 52.2282 77.5744 48.7291 76.4534C46.43 75.7161 46.9439 72.3275 49.1484 72.0895Z" fill="#A9A9A9"/>
<path d="M22.1016 72.6619C24.1215 74.4569 21.7157 77.7109 19.3711 76.2263C16.7784 74.5859 19.6491 70.4822 22.1016 72.6619Z" fill="#A9A9A9"/>
<path d="M25.2335 76.8724C28.1654 76.6177 28.4557 81.2763 25.5305 81.4109C22.6209 81.5444 22.3294 77.1248 25.2335 76.8724Z" fill="#A9A9A9"/>
<path d="M17.4315 80.6988C15.5429 82.6373 12.3185 80.1383 14.0247 77.7929C15.9044 75.2095 19.5659 78.5069 17.4315 80.6988Z" fill="#A9A9A9"/>
<path d="M29.9059 72.09C33.0669 71.7464 33.3227 76.4973 30.3085 76.6108C27.4623 76.7175 27.2565 72.3781 29.9059 72.09Z" fill="#A9A9A9"/>
<path d="M44.6834 81.6738C47.4919 81.6661 47.6453 86.1946 44.6656 86.1946C41.726 86.1946 41.6681 81.6816 44.6834 81.6738Z" fill="#A9A9A9"/>
<path d="M44.3632 72.092C46.7946 71.8118 47.8023 75.107 45.7613 76.2736C42.5747 78.0941 40.9052 72.4902 44.3632 72.092Z" fill="#A9A9A9"/>
<path d="M12.426 90.4855C9.95343 92.4151 7.25846 88.5749 9.69539 86.9212C12.1868 85.2308 14.5748 88.8085 12.426 90.4855Z" fill="#A9A9A9"/>
<path d="M51.0201 71.1326C49.0747 73.0933 45.7736 70.2519 47.8313 67.9998C49.8889 65.7478 53.1645 68.9729 51.0201 71.1326Z" fill="#A9A9A9"/>
<path d="M44.2475 67.3102C47.6543 66.7641 47.7533 72.3358 44.1173 71.723C41.8083 71.3338 41.8862 67.6894 44.2475 67.3102Z" fill="#A9A9A9"/>
<path d="M39.3525 67.3096C42.8383 66.6668 43.0151 72.3442 39.3347 71.7236C37.0068 71.331 37.1603 67.7144 39.3525 67.3096Z" fill="#A9A9A9"/>
<path d="M58.5952 67.3103C62.1021 66.6997 62.2323 72.2992 58.5952 71.7031C56.2284 71.3161 56.3919 67.6929 58.5952 67.3103Z" fill="#A9A9A9"/>
<path d="M20.111 67.3091C23.5589 66.6251 23.8069 72.3225 20.0932 71.7219C17.8042 71.3516 17.8809 67.7506 20.111 67.3091Z" fill="#A9A9A9"/>
<path d="M20.339 91.3316C23.3454 91.0114 23.5979 95.2674 21.1709 95.7245C17.8398 96.3517 17.4583 91.6375 20.339 91.3316Z" fill="#A9A9A9"/>
<path d="M25.1234 72.0902C28.7738 71.6943 28.1342 77.6719 24.624 76.423C22.414 75.6367 22.9123 72.3293 25.1234 72.0902Z" fill="#A9A9A9"/>
<path d="M15.3293 86.5493C18.5659 86.0066 18.9541 90.7187 16.0656 90.9589C13.1771 91.1991 12.7945 86.9753 15.3293 86.5493Z" fill="#A9A9A9"/>
<path d="M34.6866 72.0911C37.8565 71.6907 38.0823 76.4917 35.196 76.6152C32.3097 76.7386 32.1117 72.4169 34.6866 72.0911Z" fill="#A9A9A9"/>
<path d="M39.5817 72.0896C41.9575 71.8483 43.0887 75.1691 40.8875 76.2934C37.6031 77.9705 36.2517 72.4288 39.5817 72.0896Z" fill="#A9A9A9"/>
<path d="M24.8934 67.3092C27.8954 66.732 28.5894 71.1037 26.0413 71.682C22.6879 72.4427 22.3331 67.8019 24.8934 67.3092Z" fill="#A9A9A9"/>
<path d="M29.6762 67.3088C32.7772 66.696 33.3722 71.1445 30.8474 71.7039C27.6119 72.4201 27.1192 67.8137 29.6762 67.3088Z" fill="#A9A9A9"/>
<path d="M53.8141 67.3095C56.8317 66.8069 57.3944 71.1986 54.873 71.7035C51.5952 72.3596 51.1403 67.7544 53.8141 67.3095Z" fill="#A9A9A9"/>
<path d="M39.9011 81.6738C42.6929 81.6683 42.8441 86.2468 39.771 86.1846C36.9615 86.1278 36.8614 81.6794 39.9011 81.6738Z" fill="#A9A9A9"/>
<path d="M39.4672 76.8719C42.309 76.4716 43.0675 80.7821 40.4126 81.267C36.948 81.8998 36.8734 77.2367 39.4672 76.8719Z" fill="#A9A9A9"/>
<path d="M34.5721 67.3101C37.9734 66.7496 38.2114 72.1923 34.6667 71.7196C32.1674 71.386 32.3287 67.6793 34.5721 67.3101Z" fill="#A9A9A9"/>
<path d="M31.7783 87.1184C33.787 89.0557 31.1543 92.1729 28.8742 90.5226C26.4529 88.7699 29.4993 84.9198 31.7783 87.1184Z" fill="#A9A9A9"/>
<path d="M35.0058 81.6714C37.9155 81.6147 38.0467 86.2333 34.988 86.1833C32.1073 86.1365 32.154 81.727 35.0058 81.6714Z" fill="#A9A9A9"/>
<path d="M30.0162 76.8719C32.9981 76.6105 33.3407 81.2947 30.302 81.3615C27.2945 81.4271 27.3824 77.1032 30.0162 76.8719Z" fill="#A9A9A9"/>
<path d="M44.3633 76.8701C47.1939 76.5654 47.769 80.8059 45.1952 81.2674C41.7584 81.8835 41.5893 77.1693 44.3633 76.8701Z" fill="#A9A9A9"/>
<path d="M24.8932 86.5483C28.0397 85.9556 28.617 90.5964 25.7285 90.9401C22.6809 91.3026 22.3784 87.0221 24.8932 86.5483Z" fill="#A9A9A9"/>
<path d="M38.3106 87.1175C40.4472 85.0545 43.4903 88.382 41.3882 90.3615C39.2293 92.3956 36.1851 89.1704 38.3106 87.1175Z" fill="#A9A9A9"/>
<path d="M34.6854 76.8696C37.5972 76.5237 38.1645 80.7709 35.6285 81.2669C32.1706 81.9431 32.056 77.1821 34.6854 76.8696Z" fill="#A9A9A9"/>
<path d="M29.6771 81.7671C32.5055 81.1965 33.5154 85.0678 31.1041 85.9731C27.8608 87.1908 26.842 82.3387 29.6771 81.7671Z" fill="#A9A9A9"/>
<path d="M12.5354 95.1538C10.4144 97.1757 7.36795 93.9917 9.47676 91.9287C11.5856 89.8657 14.6654 93.122 12.5354 95.1538Z" fill="#A9A9A9"/>
<path d="M5.87749 91.33C8.80047 90.9731 9.28986 95.3982 6.50591 95.7418C3.48283 96.1144 3.14471 91.6637 5.87749 91.33Z" fill="#A9A9A9"/>
<path d="M15.5573 67.308C18.507 67.0088 18.8752 71.583 15.9633 71.732C13.0492 71.881 12.8446 67.5838 15.5573 67.308Z" fill="#A9A9A9"/>
<path d="M30.1119 91.3483C33.1984 91.2215 33.1306 95.7267 30.2065 95.7612C27.4459 95.7934 27.3391 91.4618 30.1119 91.3483Z" fill="#A9A9A9"/>
<path d="M34.6831 86.5483C37.8086 86.1146 38.1178 90.8956 35.0824 90.959C32.3419 91.0168 32.1339 86.902 34.6831 86.5483Z" fill="#A9A9A9"/>
<path d="M63.1524 67.417C66.3957 66.6341 67.1187 71.2104 64.3036 71.6809C61.2727 72.188 61.0258 67.9308 63.1524 67.417Z" fill="#A9A9A9"/>
<path d="M9.3919 82.4469C11.3561 80.2983 14.6017 83.3811 12.5751 85.463C10.6654 87.4259 7.40321 84.6211 9.3919 82.4469Z" fill="#A9A9A9"/>
<path d="M15.4414 72.2026C18.2621 71.8078 18.7893 75.8937 16.389 76.3753C13.1324 77.0281 12.871 72.5618 15.4414 72.2026Z" fill="#A9A9A9"/>
<path d="M17.2089 95.1549C14.9454 97.0988 12.2393 93.5434 14.5272 91.863C16.8151 90.1826 19.1764 93.4645 17.2089 95.1549Z" fill="#A9A9A9"/>
<path d="M53.8128 72.2006C56.827 71.6779 57.3753 76.2698 54.4045 76.4589C51.6406 76.6357 51.496 72.6021 53.8128 72.2006Z" fill="#A9A9A9"/>
<path d="M43.2063 90.2605C41.4511 88.5812 43.5166 85.6208 45.7789 86.9653C48.3204 88.4756 45.4385 92.3969 43.2063 90.2605Z" fill="#A9A9A9"/>
<path d="M25.1191 91.4402C27.9442 91.0743 28.2746 95.3393 25.7476 95.6329C22.8513 95.9687 22.5721 91.7705 25.1191 91.4402Z" fill="#A9A9A9"/>
<path d="M49.1435 81.8768C52.2345 81.4642 52.3134 86.4642 49.0112 85.9571C46.8356 85.6235 46.9268 82.1726 49.1435 81.8768Z" fill="#A9A9A9"/>
<path d="M58.5946 72.3134C61.1906 71.7941 62.057 75.4129 59.847 76.2336C56.9385 77.3135 56.0086 72.8306 58.5946 72.3134Z" fill="#A9A9A9"/>
<path d="M4.72289 87.343C6.62261 85.3735 9.63568 88.4106 7.57803 90.2534C5.66608 91.9649 2.8888 89.2458 4.72289 87.343Z" fill="#A9A9A9"/>
<path d="M54.0387 77.2034C56.6736 76.9009 56.8393 81.019 54.3379 81.0758C51.9366 81.1303 51.7475 77.4658 54.0387 77.2034Z" fill="#A9A9A9"/>
<path d="M10.6589 77.427C12.9846 77.0678 13.4951 80.452 11.3841 80.8234C8.9249 81.256 8.57121 77.7496 10.6589 77.427Z" fill="#A9A9A9"/>
<path d="M5.87729 96.6647C8.02281 96.3244 8.5489 99.554 6.60025 99.951C4.17111 100.446 3.87414 96.9828 5.87729 96.6647Z" fill="#A9A9A9"/>
<path d="M39.4649 91.997C41.6349 91.57 42.0476 94.6939 40.3013 95.0576C38.0101 95.5347 37.6008 92.364 39.4649 91.997Z" fill="#A9A9A9"/>
<path d="M44.2452 91.9958C46.4642 91.531 46.918 94.7628 44.9704 95.0586C42.7081 95.4022 42.5435 92.3528 44.2452 91.9958Z" fill="#A9A9A9"/>
<path d="M34.6834 91.9965C36.7566 91.615 37.2871 94.5977 35.4986 95.037C33.2664 95.5842 32.7937 92.3446 34.6834 91.9965Z" fill="#A9A9A9"/>
<path d="M65.0355 75.3605C63.4739 77.1444 60.9836 74.1339 63.1302 72.955C64.654 72.1176 66.1889 74.0438 65.0355 75.3605Z" fill="#A9A9A9"/>
<path d="M20.448 77.6452C22.2498 77.445 22.7292 80.4811 20.6371 80.52C18.7718 80.5545 18.793 77.8287 20.448 77.6452Z" fill="#A9A9A9"/>
<path d="M20.2229 97.002C22.8911 96.4693 22.315 100.769 19.9281 99.5788C18.7825 99.0082 19.0439 97.2367 20.2229 97.002Z" fill="#A9A9A9"/>
<path d="M20.3354 87.326C22.2229 87.0023 22.571 89.6736 21.0584 90.0517C18.9852 90.5689 18.5169 87.6385 20.3354 87.326Z" fill="#A9A9A9"/>
<path d="M2.41471 94.4873C1.34028 95.6762 -0.514946 94.434 0.134605 92.9293C0.889819 91.1777 3.91401 92.8281 2.41471 94.4873Z" fill="#A9A9A9"/>
<path d="M5.76611 82.6583C7.53236 82.2291 8.23085 84.6401 6.74711 85.1951C4.80958 85.9201 4.14001 83.0531 5.76611 82.6583Z" fill="#A9A9A9"/>
<path d="M16.7651 84.9257C15.2647 86.3092 13.4251 83.6635 15.1412 82.8016C16.6761 82.0298 17.903 83.8781 16.7651 84.9257Z" fill="#A9A9A9"/>
<path d="M26.4414 83.0019C27.6281 84.1874 25.8308 86.0335 24.5995 85.0104C23.1781 83.8293 25.1045 81.6673 26.4414 83.0019Z" fill="#A9A9A9"/>
<path d="M10.6566 97.1105C12.4596 96.7068 12.8989 99.3292 11.2717 99.6194C9.55327 99.9253 9.12506 97.4541 10.6566 97.1105Z" fill="#A9A9A9"/>
<path d="M1.09436 97.1102C2.95515 96.8033 3.16202 99.5024 1.49922 99.6414C-0.0356805 99.7693 -0.404946 97.3582 1.09436 97.1102Z" fill="#A9A9A9"/>
<path d="M29.4068 97.6753C30.0886 96.8568 31.7025 97.5519 31.1375 98.7963C30.5024 100.196 28.4781 98.7908 29.4068 97.6753Z" fill="#A9A9A9"/>
</g>
<defs>
<clipPath id="clip0_391_3092">
<rect width="291" height="100" fill="white"/>
</clipPath>
</defs>
</svg>
